<?xml version="1.0" encoding="UTF-8" standalone="no"?>
<svg
   xmlns:dc="http://purl.org/dc/elements/1.1/"
   xmlns:cc="http://creativecommons.org/ns#"
   xmlns:rdf="http://www.w3.org/1999/02/22-rdf-syntax-ns#"
   xmlns:svg="http://www.w3.org/2000/svg"
   xmlns="http://www.w3.org/2000/svg"
   xmlns:sodipodi="http://sodipodi.sourceforge.net/DTD/sodipodi-0.dtd"
   xmlns:inkscape="http://www.inkscape.org/namespaces/inkscape"
   inkscape:version="1.0 (4035a4fb49, 2020-05-01)"
   sodipodi:docname="AEFE_RF_logo_rvb.svg"
   viewBox="0 0 871.27466 398.79733"
   height="398.79733"
   width="871.27466"
   xml:space="preserve"
   id="svg2"
   version="1.1"><metadata
     id="metadata8"><rdf:RDF><cc:Work
         rdf:about=""><dc:format>image/svg+xml</dc:format><dc:type
           rdf:resource="http://purl.org/dc/dcmitype/StillImage" /><dc:title></dc:title></cc:Work></rdf:RDF></metadata><defs
     id="defs6"><clipPath
       id="clipPath18"
       clipPathUnits="userSpaceOnUse"><path
         id="path16"
         d="M 0,299.098 H 653.456 V 0 H 0 Z" /></clipPath><clipPath
       id="clipPath232"
       clipPathUnits="userSpaceOnUse"><path
         id="path230"
         d="M 0,299.098 H 653.456 V 0 H 0 Z" /></clipPath></defs><sodipodi:namedview
     inkscape:current-layer="g10"
     inkscape:window-maximized="1"
     inkscape:window-y="-8"
     inkscape:window-x="-8"
     inkscape:cy="199.39867"
     inkscape:cx="435.63733"
     inkscape:zoom="1.3945086"
     showgrid="false"
     id="namedview4"
     inkscape:window-height="1017"
     inkscape:window-width="1920"
     inkscape:pageshadow="2"
     inkscape:pageopacity="0"
     guidetolerance="10"
     gridtolerance="10"
     objecttolerance="10"
     borderopacity="1"
     bordercolor="#666666"
     pagecolor="#ffffff" /><g
     transform="matrix(1.3333333,0,0,-1.3333333,0,398.79733)"
     inkscape:label="AEFE_RF_logo_rvb"
     inkscape:groupmode="layer"
     id="g10"><g
       id="g1615"><path
         id="path22"
         style="fill:#000095;fill-opacity:1;fill-rule:nonzero;stroke:none"
         d="m 449.9826,201.2502 c 3.693,3.764 9.14,5.753 15.738,5.753 6.674,0 12.092,-2.003 15.663,-5.763 l 0.009,-7.834 -0.082,-0.901 -31.373,0.007 -0.009,8.536 z m 15.738,18.899 c -11.186,0 -28.936,-5.051 -28.936,-18.619 v -31.324 c 0,-13.561 17.75,-18.617 28.936,-18.617 8.85,0 14.746,0.982 21.744,3.613 3.203,1.153 4.903,3.999 4.335,7.251 -0.487,2.782 -2.803,5.601 -6.286,5.601 -0.735,0 -1.495,-0.128 -2.253,-0.381 l -0.543,-0.175 c -3.559,-1.167 -8.436,-2.762 -16.997,-2.762 -6.484,0 -11.926,1.993 -15.785,5.827 l -0.007,0.014 v 0.101 7.888 l 0.009,0.462 c 0.003,0.112 0.093,0.2 0.209,0.203 l 37.877,0.006 c 3.659,0 6.637,2.975 6.637,6.638 v 15.655 c 0,13.568 -17.753,18.619 -28.94,18.619" /><path
         id="path26"
         style="fill:#000095;fill-opacity:1;fill-rule:nonzero;stroke:none"
         d="m 568.0032,201.0817 0.047,0.168 c 3.699,3.764 9.146,5.754 15.739,5.754 6.682,0 12.101,-2.003 15.669,-5.764 l 0.01,-8.735 -31.465,-0.07 z m 15.786,19.068 c -11.182,0 -28.932,-5.052 -28.932,-18.62 v -31.323 c 0,-13.562 17.75,-18.617 28.932,-18.617 8.854,0 14.752,0.981 21.753,3.612 3.201,1.153 4.9,3.997 4.33,7.248 -0.481,2.785 -2.802,5.605 -6.286,5.605 -0.738,0 -1.497,-0.128 -2.256,-0.381 l -0.526,-0.173 c -3.562,-1.166 -8.432,-2.765 -17.015,-2.765 -6.481,0 -11.922,1.993 -15.776,5.825 l -0.01,8.292 0.003,0.172 c 0.004,0.115 0.095,0.203 0.213,0.206 l 37.883,0.007 c 3.656,0 6.63,2.974 6.63,6.637 v 15.655 c 0,13.568 -17.752,18.62 -28.943,18.62" /><path
         id="path30"
         style="fill:#000095;fill-opacity:1;fill-rule:nonzero;stroke:none"
         d="m 543.053,220.1261 -15.776,0.007 -0.018,6.441 c 0,0.004 -0.019,0.253 0.146,0.52 0.111,0.168 0.195,0.303 0.364,0.455 3.773,3.484 9.061,5.325 15.284,5.325 3.662,0 6.634,2.924 6.634,6.52 0,3.716 -2.914,6.63 -6.634,6.63 -11.187,0 -28.937,-5.052 -28.937,-18.61 l -0.05,-7.288 h -6.843 c -3.717,0 -6.63,-2.86 -6.63,-6.509 0,-3.72 2.913,-6.634 6.63,-6.634 h 6.742 c 0.047,-0.033 0.094,-0.067 0.131,-0.097 l 0.02,-53.04 c 0.051,-0.762 0.597,-1.292 1.336,-1.292 h 10.412 c 0.812,0 1.318,0.637 1.402,1.369 v 52.969 c 0.034,0.031 0.081,0.061 0.135,0.091 h 15.652 c 3.72,0 6.634,2.86 6.634,6.513 0,3.716 -2.914,6.63 -6.634,6.63" /><path
         id="path34"
         style="fill:#000095;fill-opacity:1;fill-rule:nonzero;stroke:none"
         d="m 412.6115,183.3556 0.025,-16.613 c -0.042,-0.078 -0.234,-0.229 -0.413,-0.337 -5.278,-1.093 -9.574,-1.67 -12.436,-1.67 -2.733,0 -5.028,0.071 -7.151,0.223 -6.228,0.253 -10.195,1.571 -11.173,3.709 -0.336,0.729 -0.42,3.063 -0.208,5.808 l 0.046,0.523 c 0.017,0.094 0.16,0.36 0.352,0.506 1.896,1.372 10.757,3.48 13.624,4.057 0.171,0.04 13.294,3.052 17.22,3.953 0.065,-0.024 0.114,-0.085 0.114,-0.159 m 13.149,-25.567 v 43.741 c 0,13.568 -17.746,18.62 -28.932,18.62 -8.828,0 -14.728,-0.978 -21.755,-3.612 -3.204,-1.153 -4.901,-3.999 -4.332,-7.254 0.488,-2.782 2.801,-5.598 6.284,-5.598 0.734,0 1.497,0.128 2.253,0.38 l 0.556,0.183 c 3.558,1.16 8.431,2.755 16.994,2.755 5.682,0 10.458,-1.494 14.264,-4.492 0.579,-0.439 1.001,-0.816 1.24,-1.076 0.009,-0.03 0.023,-0.118 0.025,-0.172 l 0.003,-3.409 c 0.021,-0.351 -0.966,-0.962 -3.843,-1.518 l -16.627,-3.97 c -0.821,-0.185 -1.721,-0.374 -2.672,-0.566 -8.448,-1.744 -21.22,-4.378 -21.22,-14.826 v -9.258 c 0,-11.904 17.126,-16.127 31.789,-16.127 6.728,0 14.483,1.15 23.708,3.514 l 0.195,0.047 c 0.489,0.122 0.951,0.233 1.481,0.763 0.663,0.661 0.603,1.736 0.589,1.875" /><path
         id="path38"
         style="fill:#ff0007;fill-opacity:1;fill-rule:nonzero;stroke:none"
         d="m 453.6779,125.7199 c 0.812,0.939 1.968,1.396 3.53,1.396 1.543,0 2.699,-0.457 3.532,-1.396 v -7.548 c -0.862,-0.978 -1.856,-1.396 -3.321,-1.396 -1.612,0 -2.939,0.496 -3.741,1.396 z m 3.53,2.243 c -2.13,0 -4.394,-0.9 -4.394,-2.568 v -13.626 c 0,-0.225 0.196,-0.423 0.42,-0.423 0.241,0 0.444,0.194 0.444,0.423 v 5.129 c 1.512,-0.842 2.988,-0.969 3.741,-0.969 2.02,0 4.166,0.9 4.166,2.569 v 6.897 c 0,1.668 -2.255,2.568 -4.377,2.568" /><path
         id="path42"
         style="fill:#ff0007;fill-opacity:1;fill-rule:nonzero;stroke:none"
         d="m 465.2951,125.7199 c 0.812,0.939 1.966,1.396 3.526,1.396 1.544,0 2.701,-0.457 3.535,-1.396 v -7.546 c -0.852,-0.941 -2.008,-1.398 -3.535,-1.398 -1.544,0 -2.698,0.457 -3.526,1.396 z m 3.526,2.243 c -2.13,0 -4.393,-0.9 -4.393,-2.568 v -6.897 c 0,-1.669 2.263,-2.569 4.393,-2.569 2.122,0 4.377,0.9 4.377,2.569 v 6.897 c 0,1.668 -2.255,2.568 -4.377,2.568" /><path
         id="path46"
         style="fill:#ff0007;fill-opacity:1;fill-rule:nonzero;stroke:none"
         d="m 484.4406,118.174 c -0.852,-0.941 -2.007,-1.398 -3.53,-1.398 -1.55,0 -2.704,0.457 -3.532,1.396 v 9.622 h -0.867 v -9.296 c 0,-1.669 2.267,-2.569 4.399,-2.569 2.121,0 4.374,0.9 4.374,2.569 v 9.296 h -0.844 z" /><path
         id="path50"
         style="fill:#ff0007;fill-opacity:1;fill-rule:nonzero;stroke:none"
         d="m 495.2903,127.6003 c -0.687,0.234 -1.502,0.362 -2.298,0.362 -2.184,0 -4.394,-0.781 -4.394,-2.275 v -9.589 h 0.866 v 9.881 c 0.864,0.592 1.891,1.137 3.528,1.137 0.671,0 1.312,-0.105 2.013,-0.329 0.049,-0.018 0.1,-0.026 0.152,-0.026 0.186,0 0.339,0.11 0.399,0.288 0.077,0.224 -0.039,0.466 -0.266,0.551" /><path
         id="path54"
         style="fill:#ff0007;fill-opacity:1;fill-rule:nonzero;stroke:none"
         d="m 394.8386,124.7233 c -0.61,0.671 -1.577,1.113 -2.922,1.113 -1.346,0 -2.314,-0.442 -2.945,-1.113 v -2.02 c 0.631,-0.651 1.599,-1.113 2.945,-1.113 1.345,0 2.312,0.462 2.922,1.113 z m -2.964,-13.291 c -1.808,0 -3.808,0.337 -4.943,0.904 v 2.209 c 1.789,-0.756 3.721,-1.052 4.943,-1.052 1.829,0 2.86,0.168 3.446,0.735 v 1.032 c -0.293,0.209 -2.334,0.63 -2.523,0.671 l -4.603,1.052 0.715,3.177 c -1.072,0.482 -1.978,1.302 -1.978,2.543 v 2.02 c 0,2.31 3.049,3.153 4.985,3.153 1.934,0 4.983,-0.843 4.983,-3.153 v -2.02 c 0,-2.313 -3.049,-3.153 -4.983,-3.153 -0.338,0 -0.673,0.02 -1.009,0.06 l -0.255,-1.113 c 1.304,-0.293 2.672,-0.566 3.977,-0.903 1.175,-0.294 2.731,-0.82 2.731,-2.314 v -1.137 c 0,-2.037 -3.088,-2.711 -5.486,-2.711" /><path
         id="path58"
         style="fill:#ff0007;fill-opacity:1;fill-rule:nonzero;stroke:none"
         d="m 404.6154,125.8361 c -1.346,0 -2.313,-0.441 -2.942,-1.113 v -1.747 h 5.865 v 1.747 c -0.61,0.672 -1.577,1.113 -2.923,1.113 m -2.942,-4.92 v -1.744 c 0.629,-0.654 1.596,-1.116 2.942,-1.116 1.621,0 2.504,0.317 3.155,0.526 1.261,0.421 1.934,-1.471 0.651,-1.933 -1.177,-0.441 -2.185,-0.634 -3.806,-0.634 -1.934,0 -4.983,0.843 -4.983,3.157 v 5.551 c 0,2.31 3.049,3.154 4.983,3.154 1.936,0 4.984,-0.844 4.984,-3.154 v -3.807 z" /><path
         id="path62"
         style="fill:#ff0007;fill-opacity:1;fill-rule:nonzero;stroke:none"
         d="m 420.0295,116.1842 v 8.539 c -0.608,0.671 -1.575,1.113 -2.921,1.113 -1.345,0 -2.314,-0.442 -2.943,-1.113 v -8.539 h -2.041 v 8.539 c 0,2.31 3.049,3.153 4.984,3.153 1.933,0 4.984,-0.843 4.984,-3.153 v -8.539 z" /><path
         id="path66"
         style="fill:#ff0007;fill-opacity:1;fill-rule:nonzero;stroke:none"
         d="m 429.5988,116.0153 c -1.934,0 -4.982,0.843 -4.982,3.157 v 5.551 c 0,2.31 3.048,3.153 4.982,3.153 1.053,0 2.376,-0.148 3.598,-0.631 v -2.104 c -1.136,0.422 -2.166,0.695 -3.598,0.695 -1.346,0 -2.312,-0.442 -2.942,-1.113 v -5.551 c 0.63,-0.655 1.596,-1.116 2.942,-1.116 1.432,0 2.462,0.273 3.598,0.694 v -2.101 c -1.222,-0.486 -2.545,-0.634 -3.598,-0.634" /><path
         id="path70"
         style="fill:#ff0007;fill-opacity:1;fill-rule:nonzero;stroke:none"
         d="m 440.7033,125.8361 c -1.346,0 -2.313,-0.441 -2.944,-1.113 v -1.747 h 5.866 v 1.747 c -0.609,0.672 -1.576,1.113 -2.922,1.113 m -2.944,-4.92 v -1.744 c 0.631,-0.654 1.598,-1.116 2.944,-1.116 1.619,0 2.502,0.317 3.155,0.526 1.261,0.421 1.933,-1.471 0.651,-1.933 -1.177,-0.441 -2.187,-0.634 -3.806,-0.634 -1.935,0 -4.982,0.843 -4.982,3.157 v 5.551 c 0,2.31 3.047,3.154 4.982,3.154 1.935,0 4.982,-0.844 4.982,-3.154 v -3.807 z" /><path
         id="path74"
         style="fill:#ff0007;fill-opacity:1;fill-rule:nonzero;stroke:none"
         d="m 388.4343,94.0236 h -5.868 v 1.743 c 0.63,0.675 1.598,1.116 2.944,1.116 1.345,0 2.314,-0.441 2.924,-1.116 z m -2.924,4.9 c -1.934,0 -4.983,-0.843 -4.983,-3.157 v -5.551 c 0,-2.31 3.049,-3.153 4.983,-3.153 1.62,0 2.629,0.191 3.806,0.63 1.283,0.463 0.61,2.357 -0.651,1.936 -0.653,-0.209 -1.535,-0.526 -3.155,-0.526 -1.346,0 -2.314,0.462 -2.944,1.113 v 1.747 h 7.929 v 3.804 c 0,2.314 -3.051,3.157 -4.985,3.157" /><path
         id="path78"
         style="fill:#ff0007;fill-opacity:1;fill-rule:nonzero;stroke:none"
         d="m 398.0036,98.9235 c -1.936,0 -4.984,-0.843 -4.984,-3.157 v -8.536 h 2.038 v 8.536 c 0.633,0.675 1.599,1.116 2.946,1.116 1.346,0 2.312,-0.441 2.92,-1.116 v -8.536 h 2.063 v 8.536 c 0,2.314 -3.05,3.157 -4.983,3.157" /><path
         id="path82"
         style="fill:#ff0007;fill-opacity:1;fill-rule:nonzero;stroke:none"
         d="m 411.6945,93.6857 c -0.777,0.169 -3.784,0.735 -4.121,1.009 v 1.072 c 0.61,0.675 1.578,1.116 2.924,1.116 1.45,0 2.46,-0.273 3.615,-0.694 v 2.101 c -1.239,0.485 -2.543,0.634 -3.615,0.634 -1.935,0 -4.985,-0.843 -4.985,-3.157 v -1.197 c 0,-1.515 1.578,-1.977 2.755,-2.249 0.778,-0.19 3.784,-0.736 4.121,-1.009 v -1.096 c -0.63,-0.651 -1.598,-1.113 -2.922,-1.113 -1.452,0 -2.461,0.273 -3.617,0.694 v -2.104 c 1.22,-0.482 2.545,-0.63 3.617,-0.63 1.935,0 4.983,0.843 4.983,3.153 v 1.221 c 0,1.514 -1.576,1.977 -2.755,2.249" /><path
         id="path86"
         style="fill:#ff0007;fill-opacity:1;fill-rule:nonzero;stroke:none"
         d="m 424.883,94.0236 h -5.867 v 1.743 c 0.631,0.675 1.597,1.116 2.943,1.116 1.346,0 2.314,-0.441 2.924,-1.116 z m -2.924,4.9 c -1.932,0 -4.983,-0.843 -4.983,-3.157 v -5.551 c 0,-2.31 3.051,-3.153 4.983,-3.153 1.62,0 2.629,0.191 3.808,0.63 1.281,0.463 0.608,2.357 -0.654,1.936 -0.652,-0.209 -1.534,-0.526 -3.154,-0.526 -1.346,0 -2.312,0.462 -2.943,1.113 v 1.747 h 7.928 v 3.804 c 0,2.314 -3.049,3.157 -4.985,3.157" /><path
         id="path90"
         style="fill:#ff0007;fill-opacity:1;fill-rule:nonzero;stroke:none"
         d="m 430.8537,102.7545 c -0.693,0 -1.271,-0.56 -1.271,-1.258 0,-0.695 0.578,-1.254 1.271,-1.254 0.678,0 1.257,0.559 1.257,1.254 0,0.698 -0.579,1.258 -1.257,1.258" /><path
         id="path94"
         style="fill:#ff0007;fill-opacity:1;fill-rule:nonzero;stroke:none"
         d="m 596.9709,102.7545 c -0.692,0 -1.271,-0.56 -1.271,-1.258 0,-0.695 0.579,-1.254 1.271,-1.254 0.678,0 1.257,0.559 1.257,1.254 0,0.698 -0.579,1.258 -1.257,1.258" /><path
         id="path98"
         style="fill:#ff0007;fill-opacity:1;fill-rule:nonzero;stroke:none"
         d="m 430.8371,98.9235 c -0.57,0 -1.01,-0.465 -1.01,-1.032 v -10.661 h 2.038 v 10.661 c 0,0.567 -0.462,1.032 -1.028,1.032" /><path
         id="path102"
         style="fill:#ff0007;fill-opacity:1;fill-rule:nonzero;stroke:none"
         d="m 436.7883,95.7668 c 0.63,0.675 1.6,1.116 2.945,1.116 1.346,0 2.312,-0.441 2.921,-1.116 v -2.017 c -0.609,-0.651 -1.575,-1.113 -2.921,-1.113 -1.345,0 -2.315,0.462 -2.945,1.113 z m 5.657,-7.126 c -1.303,0.337 -2.671,0.61 -3.974,0.903 l 0.253,1.114 c 0.336,-0.04 0.672,-0.061 1.009,-0.061 1.935,0 4.984,0.84 4.984,3.153 v 2.017 c 0,2.313 -3.049,3.157 -4.984,3.157 -1.935,0 -4.984,-0.844 -4.984,-3.157 v -2.017 c 0,-1.241 0.903,-2.06 1.977,-2.543 l -0.716,-3.176 4.605,-1.053 c 0.19,-0.04 2.23,-0.462 2.523,-0.671 v -1.032 c -0.588,-0.567 -1.619,-0.736 -3.447,-0.736 -1.22,0 -3.155,0.294 -4.942,1.053 v -2.209 c 1.135,-0.566 3.133,-0.904 4.942,-0.904 2.397,0 5.486,0.675 5.486,2.712 v 1.137 c 0,1.494 -1.555,2.019 -2.732,2.313" /><path
         id="path106"
         style="fill:#ff0007;fill-opacity:1;fill-rule:nonzero;stroke:none"
         d="m 452.2004,98.8898 c -1.936,0 -4.984,-0.843 -4.984,-3.156 v -8.536 h 2.038 v 8.536 c 0.633,0.674 1.6,1.116 2.946,1.116 1.346,0 2.312,-0.442 2.921,-1.116 v -8.536 h 2.061 v 8.536 c 0,2.313 -3.049,3.156 -4.982,3.156" /><path
         id="path110"
         style="fill:#ff0007;fill-opacity:1;fill-rule:nonzero;stroke:none"
         d="m 467.6125,93.9894 h -5.863 v 1.744 c 0.629,0.674 1.597,1.116 2.942,1.116 1.346,0 2.315,-0.442 2.921,-1.116 z m -2.921,4.9 c -1.933,0 -4.982,-0.842 -4.982,-3.156 v -5.552 c 0,-2.31 3.049,-3.153 4.982,-3.153 1.619,0 2.628,0.192 3.805,0.631 1.285,0.462 0.61,2.357 -0.651,1.935 -0.651,-0.209 -1.535,-0.526 -3.154,-0.526 -1.345,0 -2.313,0.463 -2.942,1.113 v 1.747 h 7.927 v 3.805 c 0,2.314 -3.052,3.156 -4.985,3.156" /><path
         id="path114"
         style="fill:#ff0007;fill-opacity:1;fill-rule:nonzero;stroke:none"
         d="m 484.0403,98.8898 c -1.281,0 -2.691,-0.442 -3.618,-1.262 -0.925,0.82 -2.311,1.262 -3.592,1.262 -2.064,0 -4.628,-1.221 -4.628,-3.386 v -8.306 h 2.037 v 8.536 c 0.635,0.653 1.265,1.116 2.591,1.116 1.321,0 1.952,-0.463 2.563,-1.116 v -8.536 h 2.06 v 8.536 c 0.61,0.653 1.241,1.116 2.587,1.116 1.325,0 1.956,-0.463 2.566,-1.116 v -8.536 h 2.061 v 8.306 c 0,2.165 -2.566,3.386 -4.627,3.386" /><path
         id="path118"
         style="fill:#ff0007;fill-opacity:1;fill-rule:nonzero;stroke:none"
         d="m 499.1018,93.9894 h -5.868 v 1.744 c 0.631,0.674 1.598,1.116 2.944,1.116 1.346,0 2.314,-0.442 2.924,-1.116 z m -2.924,4.9 c -1.935,0 -4.984,-0.842 -4.984,-3.156 v -5.552 c 0,-2.31 3.049,-3.153 4.984,-3.153 1.619,0 2.627,0.192 3.808,0.631 1.281,0.462 0.607,2.357 -0.655,1.935 -0.65,-0.209 -1.534,-0.526 -3.153,-0.526 -1.346,0 -2.313,0.463 -2.944,1.113 v 1.747 h 7.929 v 3.805 c 0,2.314 -3.049,3.156 -4.985,3.156" /><path
         id="path122"
         style="fill:#ff0007;fill-opacity:1;fill-rule:nonzero;stroke:none"
         d="m 508.6731,98.8898 c -1.936,0 -4.984,-0.843 -4.984,-3.156 v -8.536 h 2.04 v 8.536 c 0.628,0.674 1.598,1.116 2.944,1.116 1.346,0 2.311,-0.442 2.921,-1.116 v -8.536 h 2.06 v 8.536 c 0,2.313 -3.048,3.156 -4.981,3.156" /><path
         id="path126"
         style="fill:#ff0007;fill-opacity:1;fill-rule:nonzero;stroke:none"
         d="m 519.5901,102.1676 c 0,0.57 -0.441,1.032 -1.012,1.032 -0.587,0 -1.028,-0.462 -1.028,-1.032 v -3.447 h -0.338 c -0.566,0 -1.031,-0.465 -1.031,-1.032 0,-0.566 0.465,-1.008 1.031,-1.008 h 0.338 v -6.33 c 0,-2.31 3.049,-3.153 4.98,-3.153 0.571,0 1.033,0.441 1.033,1.032 0,0.566 -0.462,1.008 -1.033,1.008 -1.344,0 -2.309,0.462 -2.94,1.113 v 6.33 h 3.973 v 2.04 h -3.973 z" /><path
         id="path130"
         style="fill:#ff0007;fill-opacity:1;fill-rule:nonzero;stroke:none"
         d="m 536.2961,101.4328 c 0.566,0 1.028,0.442 1.028,1.008 0,0.591 -0.462,1.032 -1.028,1.032 -1.936,0 -4.984,-0.843 -4.984,-3.153 v -1.599 h -1.367 v -2.04 h 1.367 v -9.483 h 2.04 v 9.483 h 2.944 c 0.566,0 1.028,0.441 1.028,1.008 0,0.591 -0.462,1.032 -1.028,1.032 h -2.944 v 1.599 c 0.631,0.651 1.598,1.113 2.944,1.113" /><path
         id="path134"
         style="fill:#ff0007;fill-opacity:1;fill-rule:nonzero;stroke:none"
         d="m 543.4622,98.8898 c -1.976,0 -4.984,-0.674 -4.984,-2.86 v -8.832 h 2.041 v 8.789 c 0.755,0.485 1.618,0.863 2.943,0.863 0.695,0 1.302,-0.125 1.809,-0.294 0.545,-0.192 1.132,0.085 1.301,0.631 0.549,1.575 -2.25,1.703 -3.11,1.703" /><path
         id="path138"
         style="fill:#ff0007;fill-opacity:1;fill-rule:nonzero;stroke:none"
         d="m 554.9514,89.4064 c -0.881,-0.189 -1.788,-0.338 -2.415,-0.338 -1.831,0 -2.86,0.169 -3.45,0.76 v 1.47 c 0.294,0.209 2.334,0.63 2.543,0.671 l 3.322,0.758 z m -2.941,9.483 c -1.033,0 -2.86,-0.169 -3.936,-0.654 v -2.101 c 0.887,0.273 2.503,0.715 3.936,0.715 1.345,0 2.31,-0.442 2.941,-1.116 v -0.86 l -3.784,-0.905 c -1.41,-0.316 -4.121,-0.654 -4.121,-2.586 v -1.639 c 0,-2.04 3.093,-2.715 5.49,-2.715 1.552,0 3.193,0.357 4.455,0.695 v 8.01 c 0,2.314 -3.049,3.156 -4.981,3.156" /><path
         id="path142"
         style="fill:#ff0007;fill-opacity:1;fill-rule:nonzero;stroke:none"
         d="m 564.5051,98.8898 c -1.936,0 -4.987,-0.843 -4.987,-3.156 v -8.536 h 2.04 v 8.536 c 0.634,0.674 1.601,1.116 2.947,1.116 1.343,0 2.311,-0.442 2.921,-1.116 v -8.536 h 2.06 v 8.536 c 0,2.313 -3.048,3.156 -4.981,3.156" /><path
         id="path146"
         style="fill:#ff0007;fill-opacity:1;fill-rule:nonzero;stroke:none"
         d="m 572.0129,95.7336 v -5.552 c 0,-1.44 1.186,-2.31 2.548,-2.761 l -0.452,-2.007 3.084,-0.705 c 0.749,-0.163 1.083,-0.253 1.229,-0.3 v -0.348 c -0.295,-0.223 -0.823,-0.31 -1.817,-0.31 -0.654,0 -1.8,0.159 -2.865,0.61 l -0.341,0.145 v -1.844 l 0.135,-0.068 c 0.691,-0.343 1.895,-0.566 3.071,-0.566 1.629,0 3.529,0.488 3.529,1.868 v 0.681 c 0,1.164 -1.275,1.484 -1.819,1.623 -0.55,0.141 -1.116,0.263 -1.677,0.384 l -0.472,0.104 0.086,0.38 c 0.258,-0.026 0.509,-0.039 0.742,-0.039 1.052,0 2.377,0.148 3.595,0.631 v 2.104 c -1.133,-0.422 -2.165,-0.695 -3.595,-0.695 -1.345,0 -2.314,0.463 -2.941,1.113 v 5.552 c 0.627,0.674 1.596,1.116 2.941,1.116 1.43,0 2.462,-0.273 3.595,-0.695 v 2.101 c -1.218,0.486 -2.543,0.634 -3.595,0.634 -1.932,0 -4.981,-0.843 -4.981,-3.156" /><path
         id="path150"
         style="fill:#ff0007;fill-opacity:1;fill-rule:nonzero;stroke:none"
         d="m 591.0208,89.4064 c -0.884,-0.189 -1.788,-0.338 -2.419,-0.338 -1.827,0 -2.859,0.169 -3.45,0.76 v 1.47 c 0.294,0.209 2.334,0.63 2.547,0.671 l 3.322,0.758 z m -2.944,9.483 c -1.03,0 -2.861,-0.169 -3.933,-0.654 v -2.101 c 0.884,0.273 2.502,0.715 3.933,0.715 1.345,0 2.313,-0.442 2.944,-1.116 v -0.86 l -3.784,-0.905 c -1.41,-0.316 -4.121,-0.654 -4.121,-2.586 v -1.639 c 0,-2.04 3.089,-2.715 5.486,-2.715 1.555,0 3.197,0.357 4.459,0.695 v 8.01 c 0,2.314 -3.049,3.156 -4.984,3.156" /><path
         id="path154"
         style="fill:#ff0007;fill-opacity:1;fill-rule:nonzero;stroke:none"
         d="m 596.9524,98.8898 c -0.566,0 -1.008,-0.465 -1.008,-1.032 v -10.66 h 2.036 v 10.66 c 0,0.567 -0.462,1.032 -1.028,1.032" /><path
         id="path158"
         style="fill:#ff0007;fill-opacity:1;fill-rule:nonzero;stroke:none"
         d="m 607.0461,93.6525 c -0.775,0.168 -3.783,0.735 -4.121,1.008 v 1.073 c 0.61,0.674 1.578,1.116 2.924,1.116 1.45,0 2.459,-0.273 3.616,-0.695 v 2.101 c -1.241,0.486 -2.543,0.634 -3.616,0.634 -1.936,0 -4.985,-0.842 -4.985,-3.156 v -1.197 c 0,-1.515 1.578,-1.977 2.756,-2.25 0.779,-0.189 3.783,-0.736 4.121,-1.009 v -1.096 c -0.631,-0.65 -1.598,-1.113 -2.921,-1.113 -1.453,0 -2.461,0.273 -3.618,0.695 v -2.104 c 1.221,-0.483 2.542,-0.631 3.618,-0.631 1.933,0 4.982,0.843 4.982,3.153 v 1.221 c 0,1.515 -1.578,1.977 -2.756,2.25" /><path
         id="path162"
         style="fill:#ff0007;fill-opacity:1;fill-rule:nonzero;stroke:none"
         d="m 372.5984,103.7614 c -0.239,0 -0.441,-0.194 -0.441,-0.423 v -16.194 h 0.863 v 16.194 c 0,0.237 -0.185,0.423 -0.422,0.423" /><path
         id="path166"
         style="fill:#ff0007;fill-opacity:1;fill-rule:nonzero;stroke:none"
         d="m 376.8117,103.5895 -1.269,-4.409 c -0.023,-0.107 -0.003,-0.222 0.051,-0.308 0.053,-0.081 0.135,-0.136 0.24,-0.16 l 0.07,-0.006 h 0.003 c 0.167,0 0.323,0.116 0.379,0.283 l 1.829,4.482 0.047,0.118 z" /><path
         id="path170"
         style="fill:#ff0007;fill-opacity:1;fill-rule:nonzero;stroke:none"
         d="m 405.0656,64.6183 h -5.865 v 1.743 c 0.629,0.675 1.597,1.116 2.943,1.116 1.346,0 2.314,-0.441 2.922,-1.116 z m -2.922,4.9 c -1.934,0 -4.983,-0.843 -4.983,-3.157 v -5.548 c 0,-2.313 3.049,-3.153 4.983,-3.153 1.62,0 2.629,0.189 3.808,0.631 1.281,0.462 0.608,2.354 -0.654,1.932 -0.65,-0.209 -1.534,-0.526 -3.154,-0.526 -1.346,0 -2.314,0.462 -2.943,1.116 v 1.744 h 7.928 v 3.804 c 0,2.314 -3.049,3.157 -4.985,3.157" /><path
         id="path174"
         style="fill:#ff0007;fill-opacity:1;fill-rule:nonzero;stroke:none"
         d="m 401.9494,70.7423 c 0.192,0 0.41,0.021 0.701,0.385 0.291,0.364 2.376,2.974 2.376,2.974 h -2.666 l -1.198,-1.905 c -0.211,-0.29 -0.243,-0.607 -0.095,-0.9 0.165,-0.327 0.528,-0.554 0.882,-0.554" /><path
         id="path178"
         style="fill:#ff0007;fill-opacity:1;fill-rule:nonzero;stroke:none"
         d="m 412.5598,72.8 c 0,0.566 -0.443,1.028 -1.011,1.028 -0.59,0 -1.03,-0.462 -1.03,-1.028 v -3.45 h -0.337 c -0.568,0 -1.03,-0.462 -1.03,-1.032 0,-0.567 0.462,-1.008 1.03,-1.008 h 0.337 v -6.327 c 0,-2.314 3.049,-3.158 4.983,-3.158 0.569,0 1.031,0.443 1.031,1.033 0,0.566 -0.462,1.008 -1.031,1.008 -1.347,0 -2.313,0.462 -2.942,1.117 v 6.327 h 3.973 v 2.04 h -3.973 z" /><path
         id="path182"
         style="fill:#ff0007;fill-opacity:1;fill-rule:nonzero;stroke:none"
         d="m 423.9113,69.5187 c -1.978,0 -4.984,-0.675 -4.984,-2.86 v -8.833 h 2.04 v 8.793 c 0.757,0.482 1.619,0.859 2.944,0.859 0.693,0 1.304,-0.124 1.808,-0.293 0.546,-0.189 1.134,0.084 1.303,0.631 0.546,1.574 -2.249,1.703 -3.111,1.703" /><path
         id="path186"
         style="fill:#ff0007;fill-opacity:1;fill-rule:nonzero;stroke:none"
         d="m 435.9699,60.0353 c -0.882,-0.189 -1.786,-0.338 -2.416,-0.338 -1.83,0 -2.86,0.169 -3.449,0.759 v 1.471 c 0.294,0.212 2.334,0.63 2.545,0.674 l 3.32,0.755 z m -2.942,9.483 c -1.031,0 -2.859,-0.169 -3.933,-0.651 v -2.104 c 0.884,0.273 2.503,0.714 3.933,0.714 1.347,0 2.313,-0.441 2.942,-1.116 v -0.859 l -3.782,-0.905 c -1.41,-0.317 -4.123,-0.65 -4.123,-2.586 v -1.639 c 0,-2.04 3.091,-2.712 5.489,-2.712 1.555,0 3.196,0.357 4.456,0.691 v 8.01 c 0,2.314 -3.049,3.157 -4.982,3.157" /><path
         id="path190"
         style="fill:#ff0007;fill-opacity:1;fill-rule:nonzero;stroke:none"
         d="m 445.5207,69.5187 c -1.936,0 -4.984,-0.844 -4.984,-3.157 v -8.536 h 2.04 v 8.536 c 0.631,0.675 1.598,1.116 2.944,1.116 1.346,0 2.313,-0.441 2.923,-1.116 v -8.536 h 2.06 v 8.536 c 0,2.313 -3.048,3.157 -4.983,3.157" /><path
         id="path194"
         style="fill:#ff0007;fill-opacity:1;fill-rule:nonzero;stroke:none"
         d="m 455.0686,66.3615 c 0.631,0.675 1.599,1.116 2.944,1.116 1.346,0 2.314,-0.441 2.922,-1.116 v -2.017 c -0.608,-0.65 -1.576,-1.113 -2.922,-1.113 -1.345,0 -2.313,0.463 -2.944,1.113 z m 5.657,-7.126 c -1.304,0.337 -2.671,0.61 -3.974,0.904 l 0.253,1.117 c 0.337,-0.044 0.672,-0.065 1.008,-0.065 1.934,0 4.983,0.84 4.983,3.153 v 2.017 c 0,2.313 -3.049,3.157 -4.983,3.157 -1.934,0 -4.983,-0.844 -4.983,-3.157 v -2.017 c 0,-1.241 0.904,-2.06 1.977,-2.543 l -0.715,-3.176 4.603,-1.049 c 0.191,-0.044 2.23,-0.466 2.525,-0.675 v -1.028 c -0.589,-0.571 -1.62,-0.736 -3.449,-0.736 -1.219,0 -3.153,0.294 -4.941,1.049 v -2.205 c 1.135,-0.57 3.134,-0.907 4.941,-0.907 2.398,0 5.489,0.674 5.489,2.715 v 1.135 c 0,1.492 -1.557,2.018 -2.734,2.311" /><path
         id="path198"
         style="fill:#ff0007;fill-opacity:1;fill-rule:nonzero;stroke:none"
         d="m 473.2414,64.6183 h -5.865 v 1.743 c 0.631,0.675 1.595,1.116 2.941,1.116 1.346,0 2.317,-0.441 2.924,-1.116 z m -2.924,4.9 c -1.932,0 -4.979,-0.843 -4.979,-3.157 v -5.548 c 0,-2.313 3.047,-3.153 4.979,-3.153 1.622,0 2.631,0.189 3.808,0.631 1.281,0.462 0.61,2.354 -0.652,1.932 -0.65,-0.209 -1.534,-0.526 -3.156,-0.526 -1.346,0 -2.31,0.462 -2.941,1.116 v 1.744 h 7.926 v 3.804 c 0,2.314 -3.049,3.157 -4.985,3.157" /><path
         id="path202"
         style="fill:#ff0007;fill-opacity:1;fill-rule:nonzero;stroke:none"
         d="m 483.4602,69.5187 c -1.977,0 -4.984,-0.675 -4.984,-2.86 v -8.833 h 2.04 v 8.793 c 0.758,0.482 1.622,0.859 2.944,0.859 0.694,0 1.306,-0.124 1.808,-0.293 0.549,-0.189 1.136,0.084 1.305,0.631 0.546,1.574 -2.25,1.703 -3.113,1.703" /><path
         id="path206"
         style="fill:#ff0007;fill-opacity:1;fill-rule:nonzero;stroke:none"
         d="m 389.2317,74.3566 c -0.24,0 -0.442,-0.194 -0.442,-0.424 v -16.193 h 0.866 v 16.193 c 0,0.238 -0.186,0.424 -0.424,0.424" /><path
         id="path210"
         style="fill:#ff0007;fill-opacity:1;fill-rule:nonzero;stroke:none"
         d="m 376.5681,71.1115 c 0.093,0 0.184,0.029 0.254,0.081 0.092,0.067 0.153,0.165 0.17,0.275 0.018,0.113 -0.012,0.231 -0.086,0.331 l -1.723,2.355 -0.027,0.034 h -1.573 l 2.633,-2.887 c 0.074,-0.118 0.205,-0.189 0.352,-0.189" /><path
         id="path214"
         style="fill:#ff0007;fill-opacity:1;fill-rule:nonzero;stroke:none"
         d="m 379.4319,64.1125 v -5.25 c -1.349,-0.299 -2.333,-0.444 -3.007,-0.444 -1.677,0 -3.138,0.081 -4.035,1.082 v 2.633 c 0.209,0.31 0.446,0.425 0.86,0.552 0.203,0.054 0.483,0.119 0.837,0.2 l 0.039,0.009 c 0.338,0.078 0.751,0.175 1.246,0.294 z m -3.533,5.492 c -0.972,0 -2.455,-0.149 -3.286,-0.426 l -0.057,-0.02 v -0.933 l 0.108,0.033 c 0.53,0.151 1.905,0.5 3.235,0.5 1.517,0 2.706,-0.484 3.533,-1.437 v -2.297 l -4.225,-0.993 c -0.203,-0.047 -0.41,-0.095 -0.618,-0.141 -0.263,-0.059 -0.523,-0.118 -0.775,-0.177 l -0.163,-0.047 c -0.353,-0.098 -0.719,-0.2 -1.044,-0.335 -0.739,-0.322 -1.083,-0.741 -1.083,-1.321 v -2.313 c 0,-1.389 1.694,-2.123 4.901,-2.123 1.475,0 3.016,0.331 3.804,0.528 l 0.067,0.017 v 8.917 c 0,1.669 -2.266,2.568 -4.397,2.568" /><path
         id="path218"
         style="fill:#ff0007;fill-opacity:1;fill-rule:nonzero;stroke:none"
         d="m 393.927,74.1877 -1.269,-4.409 c -0.023,-0.111 -0.004,-0.223 0.049,-0.306 0.051,-0.082 0.131,-0.138 0.236,-0.162 l 0.073,-0.01 h 0.007 c 0.166,0 0.322,0.119 0.378,0.286 l 1.829,4.483 0.047,0.118 z" /><path
         id="path222"
         style="fill:#ff0007;fill-opacity:1;fill-rule:nonzero;stroke:none"
         d="m 375.5056,122.6662 0.934,2.654 1.108,3.154 c 0.157,0.444 0.535,0.809 0.84,0.809 0.305,0 0.683,-0.365 0.84,-0.809 l 0.784,-2.223 1.266,-3.585 z m 9.743,-5.322 -4.359,12.354 -0.033,0.097 -0.007,0.017 -0.039,0.112 c -0.147,0.388 -0.405,0.725 -0.735,0.968 -0.455,0.377 -1.042,0.607 -1.685,0.607 -0.635,0 -1.22,-0.227 -1.676,-0.604 -0.335,-0.243 -0.593,-0.58 -0.742,-0.971 l -0.04,-0.112 -0.009,-0.027 -0.023,-0.064 -4.368,-12.377 c -0.44,-1.248 1.432,-1.899 1.872,-0.668 l 1.364,3.899 h 3.481 0.284 3.481 l 1.363,-3.899 c 0.441,-1.231 2.311,-0.58 1.871,0.668" /><path
         d="m 327.483,40.098 h 0.499 v 220.001 h -0.499 z"
         style="fill:#000000;fill-opacity:1;fill-rule:nonzero;stroke:none"
         id="path224" /><path
         id="path236"
         style="fill:#000000;fill-opacity:1;fill-rule:nonzero;stroke:none"
         d="m 47.032,196.214 v -7.261 h 3.319 c 2.49,0 3.942,1.328 3.942,3.693 0,2.199 -1.452,3.568 -3.942,3.568 z m -5.892,5.021 h 8.88 c 6.389,0 10.331,-3.278 10.331,-8.672 0,-3.486 -1.701,-6.099 -4.647,-7.511 l 9.128,-12.862 h -7.053 l -7.718,11.742 H 47.032 V 172.19 H 41.14 Z" /><path
         id="path240"
         style="fill:#000000;fill-opacity:1;fill-rule:nonzero;stroke:none"
         d="m 74.2107,203.7243 4.688,5.602 h 6.059 l -5.394,-5.602 z m -5.726,-2.489 h 16.929 v -5.021 h -11.037 v -6.722 h 9.377 v -5.021 h -9.377 v -7.261 h 11.037 v -5.021 h -16.929 z" /><path
         id="path244"
         style="fill:#000000;fill-opacity:1;fill-rule:nonzero;stroke:none"
         d="m 98.153,196.214 v -7.261 h 3.941 c 2.49,0 3.984,1.328 3.984,3.693 0,2.199 -1.494,3.568 -3.984,3.568 z m -5.893,5.021 h 9.586 c 6.39,0 10.29,-3.278 10.29,-8.672 0,-5.353 -3.9,-8.631 -10.29,-8.631 H 98.153 V 172.19 H 92.26 Z" /><path
         id="path248"
         style="fill:#000000;fill-opacity:1;fill-rule:nonzero;stroke:none"
         d="m 134.1281,201.235 h 5.892 v -17.676 c 0,-7.635 -4.481,-12.199 -11.785,-12.199 -7.261,0 -11.742,4.564 -11.742,12.199 v 17.676 h 5.892 v -18.174 c 0,-3.901 2.2,-6.183 5.892,-6.183 3.61,0 5.851,2.282 5.851,6.183 z" /><path
         id="path252"
         style="fill:#000000;fill-opacity:1;fill-rule:nonzero;stroke:none"
         d="m 153.2155,184.8039 v -7.593 h 3.319 c 2.739,0 4.399,1.452 4.399,3.858 0,2.407 -1.66,3.735 -4.399,3.735 z m 0,11.41 v -6.348 h 2.489 c 2.241,0 3.528,1.12 3.528,3.195 0,1.95 -1.287,3.153 -3.528,3.153 z m -5.893,5.021 h 8.258 c 6.058,0 9.709,-2.988 9.709,-7.884 0,-2.323 -1.079,-4.357 -3.07,-5.726 3.07,-1.369 4.771,-3.859 4.771,-6.888 0,-5.311 -4.108,-8.547 -10.788,-8.547 h -8.88 z" /><path
         id="path256"
         style="fill:#000000;fill-opacity:1;fill-rule:nonzero;stroke:none"
         d="m 173.0085,201.235 h 5.892 v -23.693 h 11.037 v -5.352 h -16.929 z" /><path
         d="m 195.125,201.235 h 5.892 V 172.19 h -5.892 z"
         style="fill:#000000;fill-opacity:1;fill-rule:nonzero;stroke:none"
         id="path258" /><path
         id="path262"
         style="fill:#000000;fill-opacity:1;fill-rule:nonzero;stroke:none"
         d="m 231.4319,186.7121 c 0,5.56 -3.9,9.834 -9.336,9.834 -5.477,0 -9.377,-4.274 -9.377,-9.834 0,-5.56 3.9,-9.834 9.377,-9.834 5.436,0 9.336,4.274 9.336,9.834 m 8.174,-16.556 c 0.622,0 1.452,0.083 2.075,0.332 v -4.979 c -0.955,-0.373 -1.785,-0.539 -3.071,-0.539 -3.236,0 -6.224,1.327 -9.087,3.817 l -3.444,3.071 c -1.244,-0.332 -2.572,-0.499 -3.983,-0.499 -9.17,0 -15.435,7.055 -15.435,15.353 0,8.299 6.265,15.353 15.435,15.353 9.128,0 15.394,-7.054 15.394,-15.353 0,-4.854 -2.158,-9.294 -5.726,-12.116 l 1.742,-1.659 c 2.241,-2.034 4.233,-2.781 6.1,-2.781" /><path
         id="path266"
         style="fill:#000000;fill-opacity:1;fill-rule:nonzero;stroke:none"
         d="m 260.2707,201.235 h 5.892 v -17.676 c 0,-7.635 -4.481,-12.199 -11.785,-12.199 -7.26,0 -11.742,4.564 -11.742,12.199 v 17.676 h 5.892 v -18.174 c 0,-3.901 2.2,-6.183 5.892,-6.183 3.61,0 5.851,2.282 5.851,6.183 z" /><path
         id="path270"
         style="fill:#000000;fill-opacity:1;fill-rule:nonzero;stroke:none"
         d="m 273.4655,201.235 h 16.93 v -5.021 h -11.037 v -6.722 h 9.377 v -5.021 h -9.377 v -7.26 h 11.037 v -5.021 h -16.93 z" /><path
         id="path274"
         style="fill:#000000;fill-opacity:1;fill-rule:nonzero;stroke:none"
         d="m 41.1399,159.3527 h 16.929 v -5.021 h -11.037 v -6.721 h 9.378 v -5.021 h -9.378 v -12.282 h -5.892 z" /><path
         id="path278"
         style="fill:#000000;fill-opacity:1;fill-rule:nonzero;stroke:none"
         d="m 69.1482,154.3322 v -7.261 h 3.32 c 2.49,0 3.942,1.328 3.942,3.693 0,2.199 -1.452,3.568 -3.942,3.568 z m -5.892,5.021 h 8.88 c 6.39,0 10.332,-3.278 10.332,-8.672 0,-3.486 -1.701,-6.099 -4.648,-7.511 l 9.129,-12.862 h -7.054 l -7.718,11.742 h -3.029 v -11.742 h -5.892 z" /><path
         id="path282"
         style="fill:#000000;fill-opacity:1;fill-rule:nonzero;stroke:none"
         d="m 107.032,142.8805 -3.983,10.912 -3.983,-10.912 z m -7.842,16.472 h 7.718 l 10.996,-29.045 h -6.266 l -2.78,7.552 H 97.24 l -2.78,-7.552 h -6.265 z" /><path
         id="path286"
         style="fill:#000000;fill-opacity:1;fill-rule:nonzero;stroke:none"
         d="m 122.385,159.3527 h 7.552 l 12.988,-20.788 v 20.788 h 5.891 v -29.045 h -7.551 l -12.987,20.871 v -20.871 h -5.893 z" /><path
         id="path290"
         style="fill:#000000;fill-opacity:1;fill-rule:nonzero;stroke:none"
         d="m 177.489,138.9796 4.647,-3.568 c -2.24,-3.071 -5.726,-5.228 -9.958,-5.768 l -3.61,-6.017 h -5.228 l 3.651,6.101 c -7.551,1.327 -12.53,7.717 -12.53,15.103 0,8.298 6.265,15.352 15.435,15.352 5.269,0 9.585,-2.365 12.24,-5.892 l -4.647,-3.61 c -1.66,2.365 -4.274,3.984 -7.593,3.984 -5.477,0 -9.377,-4.274 -9.377,-9.834 0,-5.56 3.9,-9.834 9.377,-9.834 3.319,0 5.933,1.618 7.593,3.983" /><path
         id="path294"
         style="fill:#000000;fill-opacity:1;fill-rule:nonzero;stroke:none"
         d="m 202.2204,142.8805 -3.983,10.912 -3.984,-10.912 z m -7.842,16.472 h 7.717 l 10.996,-29.045 h -6.265 l -2.78,7.552 h -11.618 l -2.78,-7.552 h -6.266 z" /><path
         d="m 217.573,159.353 h 5.892 v -29.045 h -5.892 z"
         style="fill:#000000;fill-opacity:1;fill-rule:nonzero;stroke:none"
         id="path296" /><path
         id="path300"
         style="fill:#000000;fill-opacity:1;fill-rule:nonzero;stroke:none"
         d="m 233.2585,138.2746 c 1.742,-2.241 4.066,-3.569 6.431,-3.569 2.324,0 3.735,1.245 3.735,3.361 0,5.187 -13.278,4.025 -13.278,13.693 0,4.606 3.776,8.423 9.294,8.423 4.357,0 7.717,-1.95 10.166,-4.896 l -4.315,-3.859 c -1.701,2.199 -3.61,3.61 -5.809,3.61 -2.034,0 -3.361,-1.327 -3.361,-3.029 0,-5.187 13.278,-3.983 13.278,-13.817 -0.083,-5.395 -4.316,-8.714 -9.627,-8.714 -4.896,0 -8.215,1.784 -10.788,4.855 z" /><path
         id="path304"
         style="fill:#000000;fill-opacity:1;fill-rule:nonzero;stroke:none"
         d="m 255.5822,159.3527 h 16.929 v -5.021 h -11.037 v -6.721 h 9.378 v -5.021 h -9.378 v -7.261 h 11.037 v -5.021 h -16.929 z" /><path
         id="path308"
         style="fill:#000000;fill-opacity:1;fill-rule:nonzero;stroke:none"
         d="m 49.5129,40.5236 0.213,0.66 c -2.833,0.532 -3.194,0.532 -2.066,3.62 l 1.15,3.174 h 3.13 c 1.406,0 1.427,-0.575 1.214,-2.108 h 0.81 l 1.874,5.132 h -0.81 c -0.703,-1.214 -1.256,-2.109 -2.789,-2.109 h -3.088 l 1.639,4.493 c 0.512,1.428 0.81,1.726 2.726,1.726 h 1.363 c 1.981,0 2.215,-0.532 2.215,-2.534 h 0.788 l 0.66,3.492 h -11.755 l -0.213,-0.66 c 2.278,-0.469 2.492,-0.682 1.427,-3.62 l -2.556,-6.986 c -1.064,-2.917 -1.512,-3.151 -4.131,-3.62 l -0.192,-0.66 z m 16.312,8.562 c 0.405,1.383 0.192,2.597 -0.873,2.597 -1.256,0 -1.576,-0.958 -2.854,-3.705 v 1.575 c 0,1.129 -0.362,2.13 -1.384,2.13 -1.193,0 -2.279,-1.852 -3.109,-3.684 h 0.554 c 0.575,0.831 1.107,1.32 1.533,1.32 0.511,0 0.788,-0.787 0,-2.534 l -2.3,-5.111 c -0.426,-0.959 0.021,-1.576 0.958,-1.576 0.575,0 0.831,0.15 1.065,0.767 l 2.257,5.984 c 0.639,0.788 1.214,1.469 1.938,2.237 z m 10.35,3.086 -0.895,0.065 -1.001,-0.98 h -0.213 c -4.855,0 -9.051,-5.452 -9.051,-9.413 0,-1.107 0.682,-1.746 1.747,-1.746 1.256,0 2.491,1.789 3.876,3.705 l -0.064,-0.68 c -0.17,-1.96 0.426,-3.025 1.448,-3.025 1.193,0 2.279,1.853 3.109,3.685 h -0.554 c -0.575,-0.831 -1.107,-1.321 -1.533,-1.321 -0.447,0 -0.766,0.809 0,2.535 z m -8.966,-8.752 c 0,2.62 2.918,6.176 4.557,6.176 0.362,0 0.703,-0.043 1.001,-0.128 l -1.703,-4.536 c -0.98,-1.192 -2.492,-2.64 -3.195,-2.64 -0.404,0 -0.66,0.34 -0.66,1.128 m 10.754,6.624 h 1.959 l -3.109,-8.498 c -0.277,-0.724 0.107,-1.448 0.852,-1.448 1.767,0 4.621,1.746 5.622,4.132 h -0.554 c -0.787,-0.831 -2.3,-1.938 -3.598,-2.173 l 2.853,7.987 h 2.918 l 0.361,1.213 h -2.832 l 1.086,3.067 h -1.128 l -2.024,-3.067 -2.406,-0.34 z m 13.906,-5.835 h -0.724 c -0.916,-1.086 -1.895,-1.939 -2.875,-1.939 -1.001,0 -1.512,0.597 -1.512,1.939 0,0.553 0.064,1.107 0.171,1.618 l 5.898,1.937 c 1.15,2.727 -0.233,3.919 -1.852,3.919 -2.79,0 -5.963,-4.664 -5.963,-8.753 0,-1.831 0.873,-2.832 2.236,-2.832 1.597,0 3.258,1.555 4.621,4.111 m -2.023,5.898 c 0.788,0 1.47,-0.596 1.107,-2.108 l -3.662,-0.852 c 0.639,1.704 1.703,2.96 2.555,2.96 m 13.076,-1.021 c 0.404,1.383 0.192,2.597 -0.873,2.597 -1.257,0 -1.576,-0.958 -2.854,-3.705 v 1.575 c 0,1.129 -0.362,2.13 -1.384,2.13 -1.193,0 -2.279,-1.852 -3.11,-3.684 h 0.554 c 0.575,0.831 1.108,1.32 1.533,1.32 0.512,0 0.788,-0.787 0,-2.534 l -2.299,-5.111 c -0.426,-0.959 0.021,-1.576 0.958,-1.576 0.575,0 0.831,0.15 1.065,0.767 l 2.257,5.984 c 0.639,0.788 1.214,1.469 1.938,2.237 z m 0.042,-7.412 c -0.426,-0.959 0.021,-1.576 0.958,-1.576 0.575,0 0.831,0.15 1.065,0.767 l 2.257,5.984 c 1.044,1.278 3.195,2.641 4.047,2.641 0.618,0 0.532,-0.512 0.128,-1.279 l -3.472,-6.665 c -0.34,-0.66 0.107,-1.448 0.852,-1.448 1.704,0 3.727,1.533 4.536,3.685 h -0.553 c -0.554,-0.788 -1.491,-1.661 -2.364,-1.811 l 2.981,6.027 c 0.384,0.766 0.575,1.491 0.575,2.066 0,0.98 -0.554,1.618 -1.576,1.618 -1.469,0 -2.96,-1.661 -4.727,-3.705 v 1.575 c 0,1.129 -0.363,2.13 -1.385,2.13 -0.639,0 -1.256,-0.554 -1.831,-1.342 v -0.213 c 1.107,0.064 1.597,-1.596 0.809,-3.343 z m 18.761,13.034 c 0.767,0 1.406,0.617 1.406,1.405 0,0.766 -0.639,1.405 -1.406,1.405 -0.788,0 -1.405,-0.639 -1.405,-1.405 0,-0.788 0.617,-1.405 1.405,-1.405 m -0.596,-4.26 c 0.235,0.788 -0.298,1.235 -0.702,1.235 -1.704,0 -3.727,-1.533 -4.537,-3.684 h 0.554 c 0.554,0.788 1.491,1.661 2.364,1.81 l -3.258,-8.475 c -0.299,-0.789 0.298,-1.236 0.702,-1.236 1.619,0 3.514,1.555 4.324,3.685 h -0.554 c -0.554,-0.788 -1.491,-1.661 -2.364,-1.811 z m 2.64,-0.404 h 1.96 l -3.11,-8.498 c -0.276,-0.724 0.107,-1.448 0.852,-1.448 1.768,0 4.622,1.746 5.623,4.132 h -0.554 c -0.788,-0.831 -2.3,-1.938 -3.599,-2.173 l 2.853,7.987 h 2.918 l 0.362,1.213 h -2.832 l 1.086,3.067 h -1.129 l -2.023,-3.067 -2.407,-0.34 z m 12.735,2.725 4.153,3.876 v 0.447 h -2.236 l -2.556,-4.323 z m 1.172,-8.56 h -0.725 c -0.916,-1.086 -1.895,-1.939 -2.875,-1.939 -1,0 -1.512,0.597 -1.512,1.939 0,0.553 0.064,1.107 0.171,1.618 l 5.899,1.937 c 1.15,2.727 -0.234,3.919 -1.853,3.919 -2.79,0 -5.963,-4.664 -5.963,-8.753 0,-1.831 0.873,-2.832 2.236,-2.832 1.598,0 3.258,1.555 4.622,4.111 m -2.024,5.898 c 0.788,0 1.47,-0.596 1.108,-2.108 l -3.663,-0.852 c 0.639,1.704 1.704,2.96 2.555,2.96" /><path
         id="path312"
         style="fill:#000000;fill-opacity:1;fill-rule:nonzero;stroke:none"
         d="m 53.7292,83.7326 4.153,2.854 v 0.447 h -2.513 l -2.3,-3.301 z m -1.704,-8.923 c 1.406,0 1.427,-0.575 1.214,-2.108 h 0.809 l 1.874,5.133 h -0.809 c -0.702,-1.214 -1.256,-2.109 -2.789,-2.109 h -3.088 l 1.554,4.28 c 0.511,1.427 0.81,1.705 2.726,1.705 h 1.363 c 1.98,0 2.215,-0.534 2.215,-2.514 h 0.788 l 0.66,3.493 h -11.755 l -0.213,-0.66 c 2.278,-0.469 2.491,-0.682 1.426,-3.62 l -2.555,-6.986 c -1.065,-2.918 -1.512,-3.151 -4.132,-3.62 l -0.191,-0.66 h 13.076 l 2.342,3.705 h -0.894 c -1.491,-1.405 -3.365,-2.747 -5.984,-2.747 -3.472,0 -3.152,0.15 -2.002,3.322 l 1.235,3.386 z m 14.886,-9.114 c 0,1.363 -1.214,1.852 -3.194,2.449 -1.704,0.511 -2.47,0.66 -2.47,1.214 0,0.447 0.361,0.979 1.086,1.362 2.789,0.15 4.6,2.662 4.6,4.771 0,0.447 -0.086,0.83 -0.235,1.171 h 2.364 l 0.362,1.214 h -3.748 c -0.447,0.277 -0.98,0.426 -1.512,0.426 -2.96,0 -4.877,-2.598 -4.877,-4.707 0,-1.596 1.023,-2.597 2.257,-2.832 -1.384,-0.617 -2.15,-1.342 -2.15,-2.193 0,-0.49 0.17,-0.831 0.575,-1.15 -3.195,-0.937 -4.451,-2.002 -4.451,-3.514 0,-1.47 1.938,-2.087 4.238,-2.087 3.897,0 7.155,2.108 7.155,3.876 m -4.621,5.835 c -0.703,0 -0.979,0.597 -0.979,1.277 0,1.896 1.022,4.686 2.619,4.686 0.702,0 0.979,-0.597 0.979,-1.279 0,-1.894 -1.022,-4.684 -2.619,-4.684 m -4.408,-6.879 c 0,1.129 1.086,1.832 2.64,2.449 0.512,-0.256 1.278,-0.532 2.3,-0.873 1.619,-0.532 2.237,-0.745 2.237,-1.235 0,-1.043 -1.768,-1.831 -4.175,-1.831 -2.023,0 -3.002,0.425 -3.002,1.49 m 21.679,14.141 -0.895,0.064 -1.001,-0.98 h -0.213 c -4.855,0 -9.051,-5.452 -9.051,-9.413 0,-1.107 0.682,-1.746 1.747,-1.746 1.256,0 2.492,1.788 3.875,3.705 l -0.063,-0.681 c -0.17,-1.959 0.426,-3.024 1.448,-3.024 1.193,0 2.279,1.853 3.109,3.684 h -0.554 c -0.575,-0.83 -1.107,-1.32 -1.533,-1.32 -0.447,0 -0.766,0.809 0,2.534 z m -8.966,-8.753 c 0,2.62 2.918,6.175 4.557,6.175 0.362,0 0.703,-0.042 1.001,-0.127 l -1.703,-4.536 c -0.98,-1.192 -2.492,-2.64 -3.195,-2.64 -0.404,0 -0.66,0.341 -0.66,1.128 m 11.286,-1.448 5.942,15.567 -0.192,0.234 -3.726,-0.426 v -0.447 l 0.724,-0.554 c 0.66,-0.51 0.447,-1.001 -0.15,-2.576 l -4.642,-12.224 c -0.34,-0.661 0.106,-1.448 0.852,-1.448 1.704,0 3.514,1.534 4.323,3.684 h -0.554 c -0.553,-0.788 -1.703,-1.661 -2.577,-1.81 m 11.33,12.735 c 0.767,0 1.405,0.618 1.405,1.405 0,0.767 -0.638,1.406 -1.405,1.406 -0.788,0 -1.406,-0.639 -1.406,-1.406 0,-0.787 0.618,-1.405 1.406,-1.405 m -0.596,-4.259 c 0.234,0.788 -0.299,1.235 -0.703,1.235 -1.704,0 -3.727,-1.534 -4.536,-3.684 h 0.554 c 0.553,0.788 1.49,1.661 2.363,1.81 l -3.258,-8.476 c -0.298,-0.787 0.298,-1.235 0.703,-1.235 1.618,0 3.513,1.555 4.323,3.684 h -0.554 c -0.553,-0.788 -1.49,-1.661 -2.363,-1.81 z m 2.64,-0.405 h 1.959 l -3.109,-8.497 c -0.277,-0.724 0.106,-1.448 0.852,-1.448 1.768,0 4.621,1.746 5.622,4.131 h -0.554 c -0.788,-0.83 -2.3,-1.937 -3.599,-2.172 l 2.854,7.986 h 2.917 l 0.363,1.214 h -2.833 l 1.086,3.067 h -1.128 l -2.023,-3.067 -2.407,-0.341 z m 12.735,2.726 4.152,3.876 v 0.447 h -2.236 l -2.555,-4.323 z m 1.171,-8.561 h -0.724 c -0.916,-1.086 -1.895,-1.938 -2.875,-1.938 -1.001,0 -1.512,0.596 -1.512,1.938 0,0.553 0.064,1.107 0.17,1.619 l 5.899,1.937 c 1.15,2.726 -0.234,3.919 -1.852,3.919 -2.79,0 -5.963,-4.664 -5.963,-8.753 0,-1.831 0.873,-2.832 2.236,-2.832 1.597,0 3.258,1.555 4.621,4.11 m -2.023,5.899 c 0.788,0 1.469,-0.597 1.107,-2.108 l -3.662,-0.852 c 0.638,1.703 1.703,2.96 2.555,2.96" /><path
         id="path316"
         style="fill:#000000;fill-opacity:1;fill-rule:nonzero;stroke:none"
         d="m 54.4958,109.3092 h -7.751 l -0.213,-0.66 c 2.278,-0.469 2.491,-0.682 1.426,-3.621 l -2.513,-6.984 c -1.064,-2.918 -1.512,-3.152 -4.131,-3.621 l -0.192,-0.66 h 11.798 l 2.555,4.557 h -0.894 c -1.448,-1.597 -3.151,-3.598 -5.771,-3.598 -1.981,0 -2.215,0.34 -1.15,3.322 l 2.513,6.984 c 1.044,2.918 1.512,3.152 4.132,3.621 z m 8.582,-1.363 c 0.767,0 1.405,0.617 1.405,1.405 0,0.767 -0.638,1.406 -1.405,1.406 -0.788,0 -1.406,-0.639 -1.406,-1.406 0,-0.788 0.618,-1.405 1.406,-1.405 m -0.596,-4.259 c 0.234,0.788 -0.299,1.235 -0.703,1.235 -1.704,0 -3.727,-1.533 -4.536,-3.684 h 0.554 c 0.553,0.788 1.491,1.661 2.364,1.81 l -3.259,-8.476 c -0.298,-0.788 0.299,-1.235 0.703,-1.235 1.619,0 3.514,1.555 4.323,3.684 h -0.554 c -0.553,-0.788 -1.49,-1.661 -2.363,-1.81 z m 11.584,-1.129 c 0,1.725 -0.638,2.364 -1.831,2.364 -1.491,0 -2.896,-1.576 -4.302,-3.492 l 3.557,9.348 -0.192,0.235 -3.727,-0.426 v -0.447 l 0.724,-0.554 c 0.66,-0.511 0.448,-1.044 -0.149,-2.577 l -3.833,-9.881 c -0.277,-0.725 -0.618,-1.576 -0.618,-1.811 0,-1.021 1.384,-1.98 2.641,-1.98 2.896,0 7.73,5.218 7.73,9.221 m -6.708,-7.496 c -0.575,0 -1.405,0.533 -1.405,1 0,0.15 0.255,0.81 0.575,1.641 l 0.958,2.534 c 1.022,1.214 2.577,2.513 3.45,2.513 0.532,0 0.937,-0.341 0.937,-1.129 0,-2.321 -2.172,-6.559 -4.515,-6.559 m 14.46,2.385 h -0.724 c -0.916,-1.086 -1.896,-1.938 -2.875,-1.938 -1.001,0 -1.512,0.596 -1.512,1.938 0,0.554 0.063,1.108 0.17,1.618 l 5.899,1.938 c 1.15,2.726 -0.234,3.919 -1.853,3.919 -2.789,0 -5.963,-4.664 -5.963,-8.752 0,-1.832 0.873,-2.833 2.237,-2.833 1.597,0 3.258,1.555 4.621,4.11 m -2.023,5.899 c 0.787,0 1.469,-0.596 1.107,-2.108 l -3.663,-0.852 c 0.639,1.704 1.704,2.96 2.556,2.96 m 13.075,-1.022 c 0.405,1.384 0.192,2.598 -0.873,2.598 -1.256,0 -1.576,-0.958 -2.854,-3.706 v 1.576 c 0,1.129 -0.361,2.13 -1.384,2.13 -1.192,0 -2.278,-1.853 -3.109,-3.684 h 0.554 c 0.575,0.83 1.107,1.32 1.533,1.32 0.511,0 0.788,-0.788 0,-2.534 l -2.3,-5.111 c -0.426,-0.958 0.021,-1.576 0.958,-1.576 0.576,0 0.831,0.149 1.065,0.766 l 2.258,5.985 c 0.638,0.788 1.214,1.469 1.938,2.236 z m 1.533,0.958 h 1.555 l -3.109,-8.497 c -0.277,-0.724 0.106,-1.448 0.852,-1.448 1.767,0 4.621,1.746 5.622,4.132 h -0.554 c -0.788,-0.831 -2.3,-1.939 -3.599,-2.173 l 2.853,7.986 h 2.918 l 0.362,1.214 h -2.832 l 1.086,3.066 h -1.129 l -2.023,-3.066 -2.002,-0.341 z m 12.202,2.726 4.153,3.876 v 0.447 h -2.236 l -2.555,-4.323 z m 1.172,-8.561 h -0.724 c -0.916,-1.086 -1.895,-1.938 -2.875,-1.938 -1.001,0 -1.512,0.596 -1.512,1.938 0,0.554 0.064,1.108 0.17,1.618 l 5.899,1.938 c 1.15,2.726 -0.234,3.919 -1.853,3.919 -2.789,0 -5.963,-4.664 -5.963,-8.752 0,-1.832 0.874,-2.833 2.237,-2.833 1.597,0 3.258,1.555 4.621,4.11 m -2.023,5.899 c 0.787,0 1.469,-0.596 1.107,-2.108 l -3.663,-0.852 c 0.639,1.704 1.704,2.96 2.556,2.96" /><path
         id="path320"
         style="fill:#000095;fill-opacity:1;fill-rule:nonzero;stroke:none"
         d="m 72.1477,231.4518 c -0.073,0.073 0.218,0 0.292,0.146 h -0.584 c -0.073,0 -0.073,0.073 -0.073,0.146 -0.364,-0.073 -0.802,-0.219 -1.166,-0.292 -0.51,-0.146 -0.947,-0.51 -1.53,-0.656 -0.802,-0.291 -1.458,-0.948 -2.333,-1.239 -0.072,0 -0.072,0.073 -0.072,0.146 0.072,0.218 0.364,0.291 0.51,0.51 0,0.073 0,0.146 -0.073,0.146 0.583,0.801 1.385,1.239 2.113,1.895 v 0.219 c 0.219,0.291 0.583,0.437 0.729,0.801 0.073,0.219 0.365,0.51 0.729,0.656 -0.073,0.073 -0.218,0.073 -0.218,0.219 -0.292,0 -0.584,-0.146 -0.875,0.073 0.136,0.135 0.292,0.21 0.457,0.258 -0.063,0.013 -0.119,0.044 -0.166,0.106 -0.073,0.145 0.141,0.308 0.365,0.364 0.291,0.073 0.656,0.073 0.874,0.292 -0.51,0.073 -1.093,-0.146 -1.603,0.146 0.364,0.947 0.948,1.749 1.822,2.186 0.073,0 0.219,0 0.219,-0.073 0,-0.364 -0.219,-0.656 -0.584,-0.729 0.584,-0.146 1.167,-0.146 1.75,-0.437 -0.073,-0.146 -0.219,-0.073 -0.291,-0.073 0.364,-0.219 0.801,-0.073 1.166,-0.364 -0.219,-0.219 -0.438,0 -0.657,0 2.26,-0.656 4.665,-1.167 6.56,-2.624 -1.604,-0.801 -3.28,-1.166 -5.029,-1.53 -0.219,0 -0.364,0 -0.583,0.072 0,-0.072 0,-0.218 -0.073,-0.218 -0.291,0 -0.51,0 -0.729,-0.146 -0.291,-0.146 -0.729,-0.219 -0.947,0 m -1.493,-5.07 c -0.006,-0.004 -0.012,-0.008 -0.018,-0.013 -0.273,-0.191 -0.545,-0.388 -0.832,-0.555 -0.312,-0.18 -0.638,-0.318 -0.961,-0.471 -0.003,0.005 -0.006,0.012 -0.009,0.017 -0.025,0.034 -0.076,0.055 -0.124,0.03 -0.276,-0.15 -0.511,-0.347 -0.733,-0.559 -0.035,-0.032 -0.068,-0.065 -0.101,-0.098 -0.003,-0.002 -0.005,-0.004 -0.007,-0.006 -0.002,-0.002 -0.004,-0.004 -0.005,-0.005 -0.035,-0.035 -0.07,-0.069 -0.104,-0.103 -0.004,-0.004 -0.008,-0.009 -0.012,-0.013 -0.002,-0.002 -0.003,-0.004 -0.005,-0.007 -0.052,-0.051 -0.101,-0.103 -0.158,-0.17 -0.037,-0.043 -0.049,-0.069 -0.098,-0.102 -0.045,-0.03 -0.17,-0.029 -0.158,0.055 0,0.005 0,0.009 0,0.014 -0.043,-0.023 -0.086,-0.046 -0.129,-0.066 -0.04,-0.019 -0.077,-0.041 -0.114,-0.063 -0.016,0.007 -0.033,0.009 -0.05,0.008 -0.019,-0.001 -0.037,-0.006 -0.053,-0.018 -0.089,-0.07 -0.177,-0.144 -0.263,-0.222 -0.152,-0.138 -0.296,-0.288 -0.423,-0.45 -0.003,-0.002 -0.004,-0.004 -0.006,-0.006 -0.005,-0.007 -0.01,-0.014 -0.015,-0.021 l -0.022,-0.027 c -0.007,-0.011 -0.015,-0.02 -0.023,-0.031 -0.002,-0.003 -0.004,-0.006 -0.007,-0.009 -0.017,-0.023 -0.033,-0.048 -0.049,-0.072 l -0.003,-0.005 c -0.012,-0.013 -0.033,-0.023 -0.06,-0.028 -0.009,0.014 -0.02,0.028 -0.029,0.043 -0.007,0.012 -0.014,0.023 -0.02,0.035 -0.022,0.038 -0.043,0.077 -0.062,0.117 -0.001,0.002 -0.002,0.003 -0.002,0.004 -0.006,0.013 -0.013,0.025 -0.018,0.037 0.079,0.084 0.155,0.172 0.229,0.262 l 0.015,0.018 c 0.025,0.031 0.05,0.062 0.075,0.093 0.041,0.052 0.082,0.104 0.122,0.156 0.015,0.019 0.03,0.039 0.045,0.058 0.08,0.104 0.157,0.206 0.228,0.308 0.002,0.002 0.003,0.005 0.005,0.008 0.011,0.015 0.021,0.03 0.031,0.046 0.036,0.051 0.069,0.103 0.101,0.156 0.028,0.048 0.054,0.096 0.079,0.145 0.002,0.004 0.004,0.008 0.006,0.011 0.002,0.006 0.005,0.01 0.008,0.015 0.004,0.009 0.008,0.019 0.012,0.028 0.025,0.054 0.048,0.111 0.069,0.17 0.002,0.006 0.004,0.012 0.006,0.019 0.006,0.015 0.011,0.031 0.017,0.047 0.008,0.026 0.015,0.053 0.022,0.081 h 0.001 c 0.001,0.006 0.002,0.012 0.004,0.018 0.008,0.035 0.018,0.069 0.025,0.107 0.004,0.019 -0.001,0.035 -0.009,0.048 0.078,0.138 0.177,0.269 0.289,0.394 -0.011,-0.007 -0.023,-0.012 -0.033,-0.019 -0.104,-0.067 -0.174,-0.161 -0.271,-0.234 -0.079,-0.059 -0.225,0.039 -0.132,0.109 0.064,0.048 0.113,0.1 0.166,0.151 0.003,0.004 0.004,0.008 0.008,0.011 0.12,0.119 0.235,0.27 0.372,0.371 0.084,0.061 0.156,0.112 0.224,0.17 0.011,0.01 0.021,0.02 0.032,0.03 0.05,0.067 0.106,0.127 0.163,0.183 0.003,0.003 0.005,0.006 0.007,0.008 0.698,0.673 1.873,0.643 2.792,1.072 0.365,0.146 0.802,-0.073 1.166,0 0.219,0 0.438,0 0.656,-0.146 -0.655,-0.356 -1.26,-0.759 -1.857,-1.134 m 1.306,-0.602 c -0.033,-0.08 -0.107,-0.149 -0.179,-0.213 0.091,-0.018 0.155,-0.058 0.096,-0.113 -0.169,-0.155 -0.331,-0.31 -0.552,-0.385 -0.016,-0.005 -0.06,-0.012 -0.113,-0.015 -0.089,-0.086 -0.178,-0.172 -0.272,-0.255 -0.086,-0.076 -0.486,-0.021 -0.364,0.088 0.185,0.163 0.356,0.341 0.539,0.508 0.103,0.094 0.211,0.184 0.303,0.29 0.05,0.059 0.092,0.117 0.156,0.162 0.06,0.042 0.446,0.076 0.386,-0.067 m -3.384,10.92 c -0.073,-0.146 -0.154,-0.162 -0.219,-0.292 -0.073,-0.146 -0.146,-0.219 -0.292,-0.291 -0.072,0 -0.146,0 -0.146,0.072 0.074,0.292 0.292,0.583 0.584,0.656 0.073,0 0.073,-0.073 0.073,-0.145 m -6.05,-4.811 c 0,0 -0.072,0.073 -0.072,0.146 0.947,1.239 1.676,2.405 2.332,3.717 0.947,0.51 1.734,1.253 2.478,2.04 1.239,1.312 2.55,2.478 4.081,3.207 0.583,0.219 1.312,0.146 1.895,-0.072 -0.218,-0.292 -0.583,-0.219 -0.875,-0.438 -0.072,0 -0.145,0 -0.218,0.073 0.073,0.073 0.073,0.146 0.073,0.219 -0.729,-0.802 -1.749,-1.166 -2.333,-2.114 -0.437,-0.729 -0.728,-1.676 -1.676,-1.895 -0.292,-0.072 0.073,0.219 -0.073,0.146 -2.259,-1.384 -3.862,-3.061 -5.612,-5.029 m 11.151,-1.603 c -0.145,0 -0.437,-0.073 -0.364,0.073 0.073,0.364 0.583,0.364 0.875,0.51 0.145,0.073 0.364,0.219 0.51,0.146 0.145,-0.219 0.364,-0.146 0.51,-0.292 -0.437,-0.437 -1.02,-0.218 -1.531,-0.437 m 11.208,-5.221 c 0.414,0.414 0.832,0.858 1.247,1.304 h -0.009 c 0.774,0.876 1.533,1.712 2.431,2.481 0.274,0.245 0.539,0.46 0.793,0.634 0.072,0.073 0.072,0.219 0.145,0.292 -0.364,-0.146 -0.583,-0.438 -0.947,-0.583 -0.073,0 -0.146,0.072 -0.073,0.145 l 0.779,0.585 c -0.016,-0.001 -0.033,-0.002 -0.05,-0.002 -0.073,0 -0.073,0.073 -0.073,0.146 -0.948,0.146 -1.676,-0.51 -2.332,-1.093 -0.146,-0.073 -0.292,0.073 -0.365,0.073 -1.093,-0.365 -1.894,-1.312 -2.988,-1.749 v 0.146 c -0.437,-0.146 -0.862,-0.41 -1.312,-0.511 -0.655,-0.146 -1.238,-0.072 -1.822,-0.072 -0.883,-0.089 -1.766,-0.284 -2.65,-0.472 -0.025,-0.007 -0.051,-0.013 -0.076,-0.02 -0.474,-0.129 -0.921,-0.306 -1.358,-0.546 -0.017,-0.01 -0.033,-0.019 -0.05,-0.029 -0.036,-0.046 -0.071,-0.09 -0.105,-0.127 -0.157,-0.172 -0.292,-0.33 -0.5,-0.435 -0.448,-0.228 -0.813,-0.625 -1.209,-0.947 -0.028,-0.024 -0.071,-0.035 -0.116,-0.038 -0.391,-0.375 -0.777,-0.755 -1.174,-1.123 -0.028,-0.026 -0.141,-0.041 -0.223,-0.027 0.002,0.002 0.005,0.004 0.007,0.007 0.014,0.023 0.028,0.046 0.042,0.069 0.061,0.103 0.124,0.206 0.187,0.308 0.07,0.114 0.142,0.226 0.216,0.338 0.099,0.151 0.201,0.3 0.31,0.444 0.028,0.038 0.02,0.071 -0.003,0.096 -0.023,0.024 -0.062,0.038 -0.101,0.038 0.364,0.352 0.796,0.653 1.224,0.913 v 0.012 c -0.049,-0.017 -0.12,0.022 -0.083,0.073 0.046,0.065 0.083,0.134 0.125,0.199 0.009,0.022 0.016,0.044 0.024,0.065 -0.018,0.02 -0.037,0.038 -0.055,0.058 -0.117,-0.077 -0.243,-0.15 -0.343,-0.24 -0.174,-0.157 -0.311,-0.478 -0.575,-0.475 -0.017,0 -0.069,0.003 -0.111,0.015 -0.031,0.006 -0.059,0.015 -0.076,0.026 0.003,0.006 0.006,0.012 0.009,0.017 0.004,0.007 0.007,0.014 0.011,0.02 l 0.011,0.019 c 0.011,0.021 0.022,0.042 0.034,0.063 0.012,0.021 0.023,0.042 0.035,0.063 0.01,0.017 0.018,0.034 0.028,0.05 0.017,0.031 0.034,0.062 0.051,0.093 0.013,0.022 0.026,0.043 0.039,0.066 0.031,0.054 0.063,0.107 0.094,0.161 0.015,0.025 0.03,0.051 0.045,0.077 0.026,0.044 0.051,0.089 0.077,0.133 0.036,0.06 -0.001,0.109 -0.054,0.129 0.135,0.176 0.3,0.323 0.499,0.435 h -0.022 c 0.279,0.141 0.558,0.312 0.837,0.468 0.04,0.035 0.08,0.071 0.12,0.105 -0.416,-0.14 -0.789,-0.329 -1.159,-0.573 0,0 -0.096,-0.039 -0.123,-0.066 0,0 -0.084,-0.031 -0.182,0.066 -0.01,0.014 -0.017,0.03 -0.017,0.054 0.073,0.146 0.291,0.219 0.437,0.364 0.073,0 0.146,0 0.146,-0.072 2.332,1.822 5.539,1.384 8.236,2.332 0.218,0.146 0.437,0.291 0.655,0.437 0.365,0.146 0.656,0.51 1.094,0.729 0.583,0.437 1.02,0.947 1.238,1.676 0,0.073 -0.072,0.146 -0.072,0.146 -0.948,-1.02 -2.041,-1.822 -3.207,-2.405 -1.531,-0.802 -3.207,-0.656 -4.81,-0.875 0.073,0.146 0.218,0.146 0.364,0.146 0,0.219 0.146,0.292 0.292,0.437 h 0.218 c 0.073,0 0.073,0.146 0.146,0.146 0.146,0 0.364,0.073 0.292,0.073 -0.219,0.291 -0.656,-0.219 -1.021,0 0.146,0.146 0.073,0.364 0.219,0.437 h 0.291 c 0,0.146 0.146,0.292 0.146,0.292 1.093,0.656 2.114,1.166 3.134,1.749 -0.219,0 -0.364,-0.219 -0.583,-0.073 0.146,0 0,0.219 0.146,0.219 0.801,0.218 1.458,0.656 2.259,0.947 -0.292,0 -0.51,-0.218 -0.801,0 0.145,0.073 0.218,0.219 0.437,0.219 v 0.218 c 0,0.074 0.072,0.074 0.146,0.074 -0.074,0 -0.146,0.072 -0.146,0.072 0.072,0.146 0.291,0.073 0.437,0.219 -0.073,0 -0.219,0 -0.219,0.073 0.219,0.291 0.583,0.364 0.948,0.437 -0.073,0.146 -0.292,0 -0.292,0.146 0,0.073 0.073,0.073 0.146,0.073 h -0.146 c -0.145,0.072 -0.073,0.218 -0.073,0.291 0.437,0.51 0.437,1.167 0.656,1.75 -0.073,0 -0.145,0 -0.145,0.072 -0.729,-0.801 -1.895,-1.093 -2.989,-1.384 h -0.364 c -0.365,-0.146 -0.875,-0.146 -1.239,0.072 -0.292,0.146 -0.437,0.365 -0.729,0.583 -0.583,0.365 -1.166,0.657 -1.822,0.875 -1.822,0.583 -3.717,0.874 -5.612,0.802 0.802,0.437 1.686,0.474 2.551,0.729 1.239,0.364 2.405,0.801 3.717,0.728 -0.218,0.073 -0.51,0 -0.729,0 -1.02,0.073 -2.04,-0.218 -3.133,-0.437 -0.729,-0.146 -1.385,-0.437 -2.114,-0.583 -0.437,-0.146 -0.656,-0.583 -1.166,-0.51 v 0.219 c 0.729,0.874 1.603,1.749 2.769,1.821 1.312,0.219 2.551,0 3.863,-0.145 0.947,-0.073 1.822,-0.292 2.769,-0.51 0.365,0 0.438,-0.583 0.729,-0.656 0.438,-0.146 0.875,0 1.312,-0.292 0,0.146 -0.073,0.292 0,0.437 0.292,0.292 0.656,-0.072 0.947,0.073 0.583,0.365 -0.509,1.021 -0.801,1.531 0,0.073 0.073,0.145 0.073,0.145 0.583,-0.51 1.02,-1.093 1.749,-1.457 0.364,-0.146 1.239,-0.364 1.093,0.073 -0.365,0.801 -1.093,1.458 -1.676,2.186 v 0.292 c -0.146,0 -0.146,0.072 -0.219,0.146 v 0.291 c -0.291,0.146 -0.219,0.437 -0.364,0.656 -0.219,0.364 -0.073,0.874 -0.219,1.312 -0.145,0.437 -0.219,0.802 -0.291,1.239 -0.219,1.239 -0.511,2.332 -0.656,3.498 -0.146,1.384 0.802,2.478 1.457,3.717 0.511,0.875 1.094,1.749 2.041,2.332 0.219,0.875 0.802,1.604 1.385,2.332 0.582,0.711 1.549,1.145 2.249,1.458 1.018,0.455 1.937,0.739 1.938,0.739 h -50.018 v -38.568 h 35.421 c 1.388,0.999 2.773,1.474 4.71,2.429 0.915,0.45 3.007,1.411 3.716,2.12" /><path
         id="path324"
         style="fill:#ff0007;fill-opacity:1;fill-rule:nonzero;stroke:none"
         d="m 147.0998,259.0841 h -41.488 c 0,0 0.078,-0.013 0.394,-0.182 0.337,-0.181 0.773,-0.414 1.047,-0.557 0.534,-0.28 1.054,-0.631 1.389,-1.167 0.146,-0.218 0.365,-0.656 0.219,-0.947 -0.146,-0.364 -0.219,-0.947 -0.583,-1.093 -0.437,-0.219 -1.02,-0.219 -1.531,-0.146 -0.291,0 -0.583,0.073 -0.874,0.146 1.093,-0.437 2.113,-0.948 2.842,-1.968 0.073,-0.146 0.364,-0.219 0.656,-0.219 0.073,0 0.073,-0.145 0.073,-0.218 -0.146,-0.146 -0.291,-0.219 -0.219,-0.438 h 0.219 c 0.364,0.146 0.292,0.875 0.802,0.656 0.364,-0.218 0.51,-0.728 0.291,-1.093 -0.291,-0.291 -0.583,-0.51 -0.875,-0.729 -0.072,-0.146 -0.072,-0.364 0,-0.51 0.219,-0.291 0.292,-0.583 0.365,-0.874 0.219,-0.511 0.292,-1.094 0.51,-1.604 0.292,-1.093 0.583,-2.186 0.51,-3.279 0,-0.583 -0.291,-1.093 -0.073,-1.676 0.146,-0.583 0.511,-1.021 0.802,-1.531 0.292,-0.437 0.583,-0.729 0.802,-1.166 0.437,-0.729 1.239,-1.458 0.874,-2.332 -0.218,-0.51 -1.02,-0.438 -1.53,-0.729 -0.437,-0.365 -0.073,-0.948 0.146,-1.312 0.364,-0.656 -0.438,-1.093 -0.948,-1.312 0.146,-0.219 0.437,-0.146 0.51,-0.291 0.073,-0.365 0.438,-0.583 0.219,-0.948 -0.292,-0.437 -1.166,-0.656 -0.729,-1.312 0.292,-0.51 0.103,-1.077 -0.073,-1.603 -0.218,-0.656 -0.801,-0.947 -1.311,-1.093 -0.438,-0.146 -0.948,-0.146 -1.385,-0.073 -0.146,0.073 -0.292,0.145 -0.438,0.145 -1.238,0.146 -2.478,0.511 -3.717,0.511 -0.364,-0.073 -0.729,-0.146 -1.02,-0.292 -0.329,-0.242 -0.622,-0.504 -0.882,-0.78 -0.003,-0.003 -0.006,-0.006 -0.009,-0.009 -0.054,-0.058 -0.107,-0.118 -0.159,-0.177 -0.032,-0.037 -0.063,-0.074 -0.094,-0.111 -0.021,-0.026 -0.041,-0.051 -0.062,-0.076 -0.212,-0.266 -0.403,-0.548 -0.573,-0.84 -0.011,-0.019 -0.022,-0.037 -0.033,-0.056 -0.019,-0.033 -0.037,-0.068 -0.056,-0.102 -0.239,-0.443 -0.42,-0.894 -0.552,-1.337 -0.495,-1.669 -0.279,-3.101 0.069,-3.448 0.097,-0.097 2.406,-0.81 4.014,-1.525 0.754,-0.336 1.282,-0.595 1.72,-0.871 h 40.741 z" /><path
         id="path328"
         style="fill:#9d9d9c;fill-opacity:1;fill-rule:nonzero;stroke:none"
         d="m 108.0793,245.0143 c 0.292,-0.073 0.729,-0.073 0.729,-0.219 -0.146,-0.583 -1.021,-0.728 -1.458,-1.312 h -0.219 c -0.218,-0.145 -0.145,-0.51 -0.364,-0.51 -0.219,0.073 -0.438,0 -0.656,-0.073 0.292,-0.291 0.656,-0.51 1.093,-0.437 0.073,0 0.219,-0.146 0.219,-0.292 0,0 0.073,0 0.146,0.073 0.073,0 0.146,0 0.146,-0.073 v -0.291 c -0.219,-0.292 -0.584,-0.146 -0.875,-0.219 0.583,-0.146 1.166,-0.146 1.676,0 0.438,0.146 0,0.875 0.292,1.239 -0.146,0 0,0.219 -0.146,0.219 0.146,0.145 0.292,0.364 0.438,0.437 0.146,0 0.364,0.073 0.437,0.219 0,0.146 -0.291,0.218 -0.219,0.364 0.437,0.292 0.802,0.729 0.656,1.167 -0.073,0.218 -0.656,0.218 -1.02,0.364 -0.365,0.146 -0.802,0 -1.239,-0.073 -0.365,0 -0.729,-0.219 -1.094,-0.291 -0.51,-0.146 -0.947,-0.438 -1.385,-0.729 0.511,0.218 1.021,0.291 1.604,0.437 0.437,0 0.809,0.107 1.239,0" /></g></g></svg>
