<?xml version="1.0" encoding="UTF-8" standalone="no"?>
<!-- Created with Inkscape (http://www.inkscape.org/) -->

<svg
   width="600mm"
   height="126.10829mm"
   viewBox="0 0 600.00001 126.10829"
   version="1.1"
   id="svg32169"
   inkscape:version="1.1.1 (3bf5ae0d25, 2021-09-20)"
   sodipodi:docname="nuitsdelalecture-titre.svg"
   xmlns:inkscape="http://www.inkscape.org/namespaces/inkscape"
   xmlns:sodipodi="http://sodipodi.sourceforge.net/DTD/sodipodi-0.dtd"
   xmlns="http://www.w3.org/2000/svg"
   xmlns:svg="http://www.w3.org/2000/svg">
  <sodipodi:namedview
     id="namedview32171"
     pagecolor="#ffffff"
     bordercolor="#666666"
     borderopacity="1.0"
     inkscape:pageshadow="2"
     inkscape:pageopacity="0.0"
     inkscape:pagecheckerboard="0"
     inkscape:document-units="mm"
     showgrid="false"
     fit-margin-top="0"
     fit-margin-left="0"
     fit-margin-right="0"
     fit-margin-bottom="0"
     inkscape:zoom="0.27023919"
     inkscape:cx="921.40596"
     inkscape:cy="934.35745"
     inkscape:window-width="1920"
     inkscape:window-height="1017"
     inkscape:window-x="1912"
     inkscape:window-y="-8"
     inkscape:window-maximized="1"
     inkscape:current-layer="layer1" />
  <defs
     id="defs32166" />
  <g
     inkscape:label="Layer 1"
     inkscape:groupmode="layer"
     id="layer1"
     transform="translate(-12.839739,-98.488333)">
    <g
       id="g2105">
      <g
         aria-label="Nuits de la lecture"
         id="text11754"
         style="font-size:25.4px;line-height:1.25;letter-spacing:0px;word-spacing:0px;stroke-width:0.264583"
         transform="matrix(3.0634285,0,0,3.0535225,-20.074892,-184.37)">
        <path
           d="m 16.662577,116.63645 q -0.9398,0 -1.3462,-0.4064 -0.4064,-0.4318 -0.4064,-1.6002 0,-0.7874 0.1524,-1.905 0.1524,-1.1176 0.5334,-3.3782 0.0508,-0.3048 0.4064,-2.4638 0.3556,-2.1844 0.635,-4.572 0.254,-2.032 0.254,-3.047997 0,-1.143 -0.8382,-1.143 -0.635,0 -1.6002,0.6858 -0.9398,0.6604 -2.032,2.133597 -0.3556,0.4826 -0.7874,0.4826 -0.3556,0 -0.635,-0.3302 -0.254,-0.3556 -0.254,-0.7874 0,-0.431797 0.1524,-0.812797 0.1524,-0.4064 0.5588,-0.9652 1.2446,-1.7018 2.7686,-2.6162 1.524,-0.9398 3.2004,-0.9398 1.397,0 2.0828,0.8636 0.7112,0.8636 0.7112,2.5146 0,1.4732 -0.4064,4.267197 1.27,-3.759197 3.2258,-5.689597 1.9558,-1.9558 4.5974,-1.9558 2.0828,0 3.1242,1.1938 1.0668,1.1684 1.0668,3.1496 0,1.117597 -0.3302,2.717797 l -1.5494,7.2644 q -0.254,1.27 -0.254,2.1844 0,1.0668 0.4826,1.6002 0.508,0.5334 1.397,0.5334 0.8382,0 1.6256,-0.5588 0.8128,-0.5588 1.905,-1.8542 0.3048,-0.3556 0.6858,-0.3556 0.3302,0 0.508,0.3048 0.2032,0.3048 0.2032,0.8382 0,0.9906 -0.4826,1.5748 -1.3208,1.6002 -2.6162,2.3368 -1.2954,0.7366 -2.7178,0.7366 -2.159,0 -3.3782,-1.27 -1.2192,-1.2954 -1.2192,-3.4544 0,-0.8382 0.127,-1.8288 0.1524,-0.9906 0.4826,-2.5146 l 1.016,-4.6482 q 0.0508,-0.2286 0.1778,-0.8128 0.127,-0.5842 0.2032,-1.0922 0.0762,-0.5334 0.0762,-1.041397 0,-0.8128 -0.4572,-1.2954 -0.4572,-0.4826 -1.2954,-0.4826 -1.524,0 -3.048,1.6256 -1.524,1.625597 -2.8194,5.257797 -1.2954,3.6068 -2.032,9.2456 -0.1778,1.2954 -0.5334,1.8034 -0.3302,0.508 -1.3208,0.508 z"
           style="font-family:Pacifico;-inkscape-font-specification:Pacifico"
           id="path32090" />
        <path
           d="m 37.033349,116.63645 q -1.143,0 -1.8796,-1.0414 -0.7112,-1.0668 -0.7112,-2.6416 0,-1.905 0.254,-3.4798 0.254,-1.6002 0.8382,-3.3782 0.254,-0.762 0.7112,-1.0922 0.4572,-0.3302 1.4478,-0.3302 0.5588,0 0.762,0.1778 0.2286,0.1778 0.2286,0.5334 0,0.2032 -0.2794,1.3716 -0.254,0.9398 -0.4064,1.7018 -0.508,2.667 -0.508,3.556 0,0.5334 0.127,0.762 0.127,0.2032 0.4064,0.2032 0.381,0 0.9398,-0.762 0.5842,-0.762 1.2192,-2.3114 0.6604,-1.5494 1.269999,-3.81 0.2032,-0.762 0.6096,-1.0922 0.4318,-0.3302 1.27,-0.3302 0.5842,0 0.8128,0.1524 0.2286,0.127 0.2286,0.508 0,0.635 -0.635,3.4798 -0.7112,3.2512 -0.7112,4.0132 0,0.4826 0.2032,0.762 0.2032,0.254 0.5334,0.254 0.508,0 1.1938,-0.6096 0.7112,-0.635 1.8796,-2.032 0.3048,-0.3556 0.6858,-0.3556 0.3302,0 0.508,0.3048 0.2032,0.3048 0.2032,0.8382 0,1.016 -0.4826,1.5748 -1.0922,1.3462 -2.3622,2.2098 -1.2446,0.8636 -2.8448,0.8636 -1.2192,0 -1.803399,-0.9398 -0.5588,-0.9398 -0.5588,-2.6416 -0.4318,1.7272 -1.2954,2.667 -0.8636,0.9144 -1.8542,0.9144 z"
           style="font-family:Pacifico;-inkscape-font-specification:Pacifico"
           id="path32092" />
        <path
           d="m 49.504747,102.99665 q -1.0668,0 -1.6002,-0.4826 -0.5334,-0.508 -0.5334,-1.397 0,-0.889 0.6858,-1.473197 0.7112,-0.6096 1.7526,-0.6096 0.9398,0 1.524,0.4572 0.5842,0.4572 0.5842,1.295397 0,1.016 -0.6604,1.6256 -0.6604,0.5842 -1.7526,0.5842 z m -0.2032,13.6398 q -1.651,0 -2.413,-1.1684 -0.7366,-1.1684 -0.7366,-3.0988 0,-1.143 0.2794,-2.921 0.3048,-1.8034 0.762,-3.3528 0.2286,-0.8128 0.6096,-1.1176 0.381,-0.3048 1.2192,-0.3048 1.2954,0 1.2954,0.8636 0,0.635 -0.4826,2.9464 -0.6096,2.794 -0.6096,3.7846 0,0.762 0.2032,1.1684 0.2032,0.4064 0.6858,0.4064 0.4572,0 1.143,-0.635 0.6858,-0.635 1.8288,-2.0066 0.3048,-0.3556 0.6858,-0.3556 0.3302,0 0.508,0.3048 0.2032,0.3048 0.2032,0.8382 0,1.016 -0.4826,1.5748 -2.5146,3.0734 -4.699,3.0734 z"
           style="font-family:Pacifico;-inkscape-font-specification:Pacifico"
           id="path32094" />
        <path
           d="m 63.754107,110.84525 q 0.3302,0 0.508,0.3048 0.2032,0.3048 0.2032,0.8382 0,1.016 -0.4826,1.5748 -1.0922,1.3462 -2.3876,2.2098 -1.2954,0.8636 -2.9718,0.8636 -5.1816,0 -5.1816,-7.2898 0,-1.1176 0.0762,-2.2606 h -0.9906 q -0.762,0 -1.0414,-0.2794 -0.254,-0.2794 -0.254,-0.889 0,-1.4224 1.143,-1.4224 h 1.4478 q 0.4318,-2.794 1.3208,-5.105397 0.889,-2.3114 2.1336,-3.683 1.27,-1.3716 2.7178,-1.3716 1.0668,0 1.6764,0.9398 0.6096,0.9398 0.6096,2.3622 0,3.936997 -3.302,6.857997 h 2.8448 q 0.4064,0 0.5842,0.1778 0.1778,0.1778 0.1778,0.6604 0,1.7526 -2.8702,1.7526 h -3.0988 q -0.0508,1.27 -0.0508,1.9812 0,2.6416 0.6096,3.7084 0.635,1.0668 1.9812,1.0668 1.0922,0 1.9304,-0.6604 0.8382,-0.6604 1.9812,-1.9812 0.3048,-0.3556 0.6858,-0.3556 z m -4.445,-14.071597 q -0.381,0 -0.8636,0.9652 -0.4572,0.9398 -0.889,2.641597 -0.4064,1.6764 -0.6858,3.7338 1.4986,-1.2954 2.2352,-2.8956 0.762,-1.625597 0.762,-2.946397 0,-1.4986 -0.5588,-1.4986 z"
           style="font-family:Pacifico;-inkscape-font-specification:Pacifico"
           id="path32096" />
        <path
           d="m 67.132296,117.19525 q -1.3208,0 -2.032,-0.6096 -0.6858,-0.6096 -0.6858,-1.3716 0,-0.6604 0.4826,-1.143 0.4826,-0.4826 1.4224,-0.4826 0.3302,0 0.762,0.0762 0.4572,0.0508 0.6858,0.0762 -0.0254,-0.6604 -0.3048,-1.2446 -0.254,-0.5842 -0.6604,-1.1176 -0.4064,-0.5588 -0.762,-0.9652 -0.7874,1.4986 -1.5748,2.4892 -0.762,0.9906 -1.6764,1.8796 -0.4572,0.4572 -0.9652,0.4572 -0.4064,0 -0.6604,-0.2794 -0.254,-0.3048 -0.254,-0.7366 0,-0.508 0.3556,-0.9398 l 0.3302,-0.4064 q 1.397,-1.7272 2.1082,-2.8448 0.4572,-0.7366 0.9144,-1.7526 0.4826,-1.016 1.2446,-2.7686 0.4826,-1.1176 2.0066,-1.1176 0.7112,0 0.9906,0.127 0.2794,0.127 0.2794,0.4064 0,0.1524 -0.1016,0.4826 -0.1016,0.3302 -0.2794,0.6604 -0.4572,0.9144 -0.4572,1.5494 0,0.381 0.254,0.8382 0.2794,0.4572 0.8382,1.143 0.8128,1.0668 1.2192,1.8288 0.4318,0.7366 0.4318,1.6256 0,1.0668 -0.508,2.032 -0.4826,0.9398 -1.3716,1.524 -0.889,0.5842 -2.032,0.5842 z"
           style="font-family:Pacifico;-inkscape-font-specification:Pacifico"
           id="path32098" />
        <path
           d="m 93.573655,110.84525 q 0.3302,0 0.508,0.3048 0.2032,0.3048 0.2032,0.8382 0,1.016 -0.4826,1.5748 -1.0414,1.27 -2.286,2.1844 -1.2446,0.889 -2.4638,0.889 -1.9304,0 -2.946399,-2.2606 -1.0668,1.3462 -1.8796,1.8034 -0.7874,0.4572 -1.8542,0.4572 -1.5494,0 -2.5654,-1.143 -0.9906,-1.1684 -0.9906,-3.0226 0,-2.032 0.8636,-3.7592 0.8636,-1.7526 2.3622,-2.8448 1.524,-1.1176 3.4036,-1.3208 0.4826,-4.927597 1.828799,-8.407397 1.3716,-3.5052 3.5814,-3.5052 1.0922,0 1.8034,0.9906 0.7366,0.9906 0.7366,2.9972 0,2.8448 -1.397,6.654797 -1.397,3.81 -3.7338,7.8232 0.1016,1.4732 0.4318,2.1082 0.3556,0.635 0.889,0.635 0.6858,0 1.397,-0.6096 0.7112,-0.6096 1.905,-2.032 0.3048,-0.3556 0.6858,-0.3556 z m -2.9972,-15.722597 q -0.4826,0 -0.9652,1.7272 -0.4826,1.7018 -0.8382,4.470397 -0.3302,2.7686 -0.4826,5.7912 2.8448,-6.1976 2.8448,-9.956797 0,-0.9652 -0.1778,-1.4986 -0.1524,-0.5334 -0.381,-0.5334 z m -7.315199,18.948397 q 0.4826,0 0.9652,-0.381 0.4826,-0.4064 1.2192,-1.4732 -0.254,-1.3716 -0.254,-3.0734 0,-0.6096 0.0508,-1.9812 -1.397,0.4318 -2.3368,1.8796 -0.9144,1.4224 -0.9144,3.175 0,1.8542 1.27,1.8542 z"
           style="font-family:Pacifico;-inkscape-font-specification:Pacifico"
           id="path32100" />
        <path
           d="m 101.32064,111.60725 q 0.3302,0 0.508,0.3048 0.2032,0.3048 0.2032,0.8382 0,0.9144 -0.4318,1.5748 -0.7112,1.0922 -1.879598,1.7018 -1.143,0.6096 -2.7432,0.6096 -2.4384,0 -3.7846,-1.4478 -1.3462,-1.4732 -1.3462,-3.9624 0,-1.7526 0.7366,-3.2512 0.7366,-1.524 2.032,-2.413 1.3208,-0.889 2.9718,-0.889 1.4732,0 2.3622,0.889 0.888998,0.8636 0.888998,2.3622 0,1.7526 -1.269998,3.0226 -1.2446,1.2446 -4.2672,1.9812 0.6096,1.1684 2.0574,1.1684 1.0414,0 1.7018,-0.4826 0.6858,-0.4826 1.574798,-1.6256 0.3048,-0.381 0.6858,-0.381 z m -4.165598,-4.445 q -0.9398,0 -1.6002,1.0922 -0.635,1.0922 -0.635,2.6416 v 0.0508 q 1.4986,-0.3556 2.3622,-1.0668 0.8636,-0.7112 0.8636,-1.651 0,-0.4826 -0.2794,-0.762 -0.254,-0.3048 -0.7112,-0.3048 z"
           style="font-family:Pacifico;-inkscape-font-specification:Pacifico"
           id="path32102" />
        <path
           d="m 119.02441,110.84525 q 0.3302,0 0.508,0.3048 0.2032,0.3048 0.2032,0.8382 0,1.016 -0.4826,1.5748 -1.0922,1.3462 -2.3876,2.2098 -1.27,0.8636 -2.8956,0.8636 -2.2352,0 -3.3274,-2.032 -1.0668,-2.032 -1.0668,-5.2578 0,-3.0988 0.7874,-7.0612 0.8128,-3.962397 2.3622,-6.807197 1.5748,-2.8448 3.7338,-2.8448 1.2192,0 1.905,1.143 0.7112,1.1176 0.7112,3.2258 0,3.022597 -1.6764,7.010397 -1.6764,3.9878 -4.5466,7.8994 0.1778,1.0414 0.5842,1.4986 0.4064,0.4318 1.0668,0.4318 1.0414,0 1.8288,-0.5842 0.7874,-0.6096 2.0066,-2.0574 0.3048,-0.3556 0.6858,-0.3556 z m -3.1242,-15.697197 q -0.5842,0 -1.3208,2.1082 -0.7366,2.1082 -1.2954,5.232397 -0.5588,3.1242 -0.6096,5.9944 1.8034,-2.9718 2.8702,-5.9436 1.0668,-2.997197 1.0668,-5.460997 0,-1.9304 -0.7112,-1.9304 z"
           style="font-family:Pacifico;-inkscape-font-specification:Pacifico"
           id="path32104" />
        <path
           d="m 120.34516,116.63645 q -1.4478,0 -2.3622,-1.143 -0.889,-1.143 -0.889,-2.9972 0,-2.032 0.9398,-3.8354 0.9398,-1.8288 2.4892,-2.921 1.5748,-1.1176 3.3274,-1.1176 0.5588,0 0.7366,0.2286 0.2032,0.2032 0.3302,0.762 0.4826,-0.1016 1.0668,-0.1016 0.6096,0 0.9398,0.3048 0.3302,0.3048 0.3302,0.8636 0,0.5842 -0.254,2.032 -0.2794,1.5494 -0.4318,2.9718 -0.1524,1.397 -0.1524,3.1496 0,0.9652 -0.4064,1.397 -0.381,0.4064 -1.27,0.4064 -0.8636,0 -1.2954,-0.4064 -0.4064,-0.4318 -0.4064,-1.3716 l 0.0254,-0.4064 q -0.7874,2.1844 -2.7178,2.1844 z m 0.9906,-2.5654 q 0.7112,0 1.2954,-0.9906 0.5842,-0.9906 1.0414,-3.5306 l 0.4826,-2.5654 q -1.0414,0.0254 -1.9304,0.8128 -0.889,0.762 -1.4224,2.032 -0.5334,1.27 -0.5334,2.6924 0,0.762 0.2794,1.1684 0.3048,0.381 0.7874,0.381 z"
           style="font-family:Pacifico;-inkscape-font-specification:Pacifico"
           id="path32106" />
        <path
           d="m 145.4149,110.84525 q 0.3302,0 0.508,0.3048 0.2032,0.3048 0.2032,0.8382 0,1.016 -0.4826,1.5748 -1.0922,1.3462 -2.3876,2.2098 -1.27,0.8636 -2.8956,0.8636 -2.2352,0 -3.3274,-2.032 -1.0668,-2.032 -1.0668,-5.2578 0,-3.0988 0.7874,-7.0612 0.8128,-3.962397 2.3622,-6.807197 1.5748,-2.8448 3.7338,-2.8448 1.2192,0 1.905,1.143 0.7112,1.1176 0.7112,3.2258 0,3.022597 -1.6764,7.010397 -1.6764,3.9878 -4.5466,7.8994 0.1778,1.0414 0.5842,1.4986 0.4064,0.4318 1.0668,0.4318 1.0414,0 1.8288,-0.5842 0.7874,-0.6096 2.0066,-2.0574 0.3048,-0.3556 0.6858,-0.3556 z m -3.1242,-15.697197 q -0.5842,0 -1.3208,2.1082 -0.7366,2.1082 -1.2954,5.232397 -0.5588,3.1242 -0.6096,5.9944 1.8034,-2.9718 2.8702,-5.9436 1.0668,-2.997197 1.0668,-5.460997 0,-1.9304 -0.7112,-1.9304 z"
           style="font-family:Pacifico;-inkscape-font-specification:Pacifico"
           id="path32108" />
        <path
           d="m 155.39706,110.84525 q 0.3302,0 0.508,0.3048 0.2032,0.3048 0.2032,0.8382 0,1.016 -0.4826,1.5748 -0.9398,1.143 -2.667,2.1082 -1.7018,0.9652 -3.6576,0.9652 -2.667,0 -4.1402,-1.4478 -1.4732,-1.4478 -1.4732,-3.9624 0,-1.7526 0.7366,-3.2512 0.7366,-1.524 2.032,-2.413 1.3208,-0.889 2.9718,-0.889 1.4732,0 2.3622,0.889 0.889,0.8636 0.889,2.3622 0,1.7526 -1.27,3.0226 -1.2446,1.2446 -4.2418,1.9812 0.635,1.1684 2.413,1.1684 1.143,0 2.5908,-0.7874 1.4732,-0.8128 2.54,-2.1082 0.3048,-0.3556 0.6858,-0.3556 z m -6.4008,-3.683 q -0.9398,0 -1.6002,1.0922 -0.635,1.0922 -0.635,2.6416 v 0.0508 q 1.4986,-0.3556 2.3622,-1.0668 0.8636,-0.7112 0.8636,-1.651 0,-0.4826 -0.2794,-0.762 -0.254,-0.3048 -0.7112,-0.3048 z"
           style="font-family:Pacifico;-inkscape-font-specification:Pacifico"
           id="path32110" />
        <path
           d="m 158.90225,116.63645 q -2.4892,0 -3.8862,-1.397 -1.3716,-1.4224 -1.3716,-3.7338 0,-2.0574 0.8128,-3.6068 0.8128,-1.5494 2.1082,-2.3876 1.2954,-0.8382 2.7178,-0.8382 1.397,0 2.159,0.8382 0.7874,0.8128 0.7874,2.1082 0,1.0668 -0.4826,1.8034 -0.4572,0.7366 -1.2192,0.7366 -0.4826,0 -0.7874,-0.2286 -0.2794,-0.2286 -0.2794,-0.635 0,-0.1778 0.0508,-0.4064 0.0508,-0.2286 0.0762,-0.3302 0.127,-0.381 0.127,-0.7112 0,-0.3302 -0.1778,-0.508 -0.1524,-0.1778 -0.4572,-0.1778 -0.5842,0 -1.0922,0.5334 -0.508,0.508 -0.8128,1.397 -0.3048,0.889 -0.3048,1.9558 0,2.9464 2.5654,2.9464 1.0414,0 2.2352,-0.6858 1.2192,-0.7112 2.3876,-2.1082 0.3048,-0.3556 0.6858,-0.3556 0.3302,0 0.508,0.3048 0.2032,0.3048 0.2032,0.8382 0,0.9652 -0.4826,1.5748 -1.1938,1.4732 -2.8702,2.286 -1.651,0.7874 -3.2004,0.7874 z"
           style="font-family:Pacifico;-inkscape-font-specification:Pacifico"
           id="path32112" />
        <path
           d="m 174.85337,110.84525 q 0.3302,0 0.508,0.3048 0.2032,0.3048 0.2032,0.8382 0,1.016 -0.4826,1.5748 -1.0922,1.3462 -2.3876,2.2098 -1.2954,0.8636 -2.9718,0.8636 -5.1816,0 -5.1816,-7.2898 0,-1.1176 0.0762,-2.2606 h -0.9906 q -0.762,0 -1.0414,-0.2794 -0.254,-0.2794 -0.254,-0.889 0,-1.4224 1.143,-1.4224 h 1.4478 q 0.4318,-2.794 1.3208,-5.105397 0.889,-2.3114 2.1336,-3.683 1.27,-1.3716 2.7178,-1.3716 1.0668,0 1.6764,0.9398 0.6096,0.9398 0.6096,2.3622 0,3.936997 -3.302,6.857997 h 2.8448 q 0.4064,0 0.5842,0.1778 0.1778,0.1778 0.1778,0.6604 0,1.7526 -2.8702,1.7526 h -3.0988 q -0.0508,1.27 -0.0508,1.9812 0,2.6416 0.6096,3.7084 0.635,1.0668 1.9812,1.0668 1.0922,0 1.9304,-0.6604 0.8382,-0.6604 1.9812,-1.9812 0.3048,-0.3556 0.6858,-0.3556 z m -4.445,-14.071597 q -0.381,0 -0.8636,0.9652 -0.4572,0.9398 -0.889,2.641597 -0.4064,1.6764 -0.6858,3.7338 1.4986,-1.2954 2.2352,-2.8956 0.762,-1.625597 0.762,-2.946397 0,-1.4986 -0.5588,-1.4986 z"
           style="font-family:Pacifico;-inkscape-font-specification:Pacifico"
           id="path32114" />
        <path
           d="m 176.09797,116.63645 q -1.143,0 -1.8796,-1.0414 -0.7112,-1.0668 -0.7112,-2.6416 0,-1.905 0.254,-3.4798 0.254,-1.6002 0.8382,-3.3782 0.254,-0.762 0.7112,-1.0922 0.4572,-0.3302 1.4478,-0.3302 0.5588,0 0.762,0.1778 0.2286,0.1778 0.2286,0.5334 0,0.2032 -0.2794,1.3716 -0.254,0.9398 -0.4064,1.7018 -0.508,2.667 -0.508,3.556 0,0.5334 0.127,0.762 0.127,0.2032 0.4064,0.2032 0.381,0 0.9398,-0.762 0.5842,-0.762 1.2192,-2.3114 0.6604,-1.5494 1.27,-3.81 0.2032,-0.762 0.6096,-1.0922 0.4318,-0.3302 1.27,-0.3302 0.5842,0 0.8128,0.1524 0.2286,0.127 0.2286,0.508 0,0.635 -0.635,3.4798 -0.7112,3.2512 -0.7112,4.0132 0,0.4826 0.2032,0.762 0.2032,0.254 0.5334,0.254 0.508,0 1.1938,-0.6096 0.7112,-0.635 1.8796,-2.032 0.3048,-0.3556 0.6858,-0.3556 0.3302,0 0.508,0.3048 0.2032,0.3048 0.2032,0.8382 0,1.016 -0.4826,1.5748 -1.0922,1.3462 -2.3622,2.2098 -1.2446,0.8636 -2.8448,0.8636 -1.2192,0 -1.8034,-0.9398 -0.5588,-0.9398 -0.5588,-2.6416 -0.4318,1.7272 -1.2954,2.667 -0.8636,0.9144 -1.8542,0.9144 z"
           style="font-family:Pacifico;-inkscape-font-specification:Pacifico"
           id="path32116" />
        <path
           d="m 187.04537,116.63645 q -0.9652,0 -1.3716,-1.016 -0.381,-1.016 -0.381,-3.2512 0,-3.302 0.9398,-6.2738 0.2286,-0.7366 0.7366,-1.0668 0.5334,-0.3556 1.4732,-0.3556 0.508,0 0.7112,0.127 0.2032,0.127 0.2032,0.4826 0,0.4064 -0.381,1.8288 -0.254,1.016 -0.4064,1.778 -0.1524,0.762 -0.254,1.8796 0.8382,-2.1844 1.8796,-3.556 1.0414,-1.3716 2.032,-1.9558 1.016,-0.5842 1.8542,-0.5842 1.651,0 1.651,1.651 0,0.3302 -0.2286,1.6002 -0.2032,1.016 -0.2032,1.27 0,0.889 0.635,0.889 0.7112,0 1.8288,-1.1176 0.3302,-0.3302 0.6858,-0.3302 0.3302,0 0.508,0.3048 0.2032,0.2794 0.2032,0.762 0,0.9398 -0.508,1.4732 -0.7112,0.7366 -1.6764,1.27 -0.9398,0.508 -2.0066,0.508 -1.3462,0 -2.0574,-0.6858 -0.6858,-0.6858 -0.6858,-1.8542 0,-0.381 0.0762,-0.762 0.0508,-0.508 0.0508,-0.6858 0,-0.4064 -0.2794,-0.4064 -0.381,0 -1.016,0.8636 -0.6096,0.8382 -1.2192,2.2352 -0.6096,1.397 -0.9906,2.9464 -0.2794,1.1938 -0.6604,1.6256 -0.3556,0.4064 -1.143,0.4064 z"
           style="font-family:Pacifico;-inkscape-font-specification:Pacifico"
           id="path32118" />
        <path
           d="m 205.89216,111.60725 q 0.3302,0 0.508,0.3048 0.2032,0.3048 0.2032,0.8382 0,0.9144 -0.4318,1.5748 -0.7112,1.0922 -1.8796,1.7018 -1.143,0.6096 -2.7432,0.6096 -2.4384,0 -3.7846,-1.4478 -1.3462,-1.4732 -1.3462,-3.9624 0,-1.7526 0.7366,-3.2512 0.7366,-1.524 2.032,-2.413 1.3208,-0.889 2.9718,-0.889 1.4732,0 2.3622,0.889 0.889,0.8636 0.889,2.3622 0,1.7526 -1.27,3.0226 -1.2446,1.2446 -4.2672,1.9812 0.6096,1.1684 2.0574,1.1684 1.0414,0 1.7018,-0.4826 0.6858,-0.4826 1.5748,-1.6256 0.3048,-0.381 0.6858,-0.381 z m -4.1656,-4.445 q -0.9398,0 -1.6002,1.0922 -0.635,1.0922 -0.635,2.6416 v 0.0508 q 1.4986,-0.3556 2.3622,-1.0668 0.8636,-0.7112 0.8636,-1.651 0,-0.4826 -0.2794,-0.762 -0.254,-0.3048 -0.7112,-0.3048 z"
           style="font-family:Pacifico;-inkscape-font-specification:Pacifico"
           id="path32120" />
      </g>
      <g
         aria-label="enregistrement"
         id="text37954"
         style="font-size:25.4px;line-height:1.25;letter-spacing:0px;word-spacing:0px;fill:#aa87de;stroke-width:0.264583">
        <path
           d="m 246.29191,207.37543 q 0.3302,0 0.508,0.3048 0.2032,0.3048 0.2032,0.8382 0,1.016 -0.4826,1.5748 -0.9398,1.143 -2.667,2.1082 -1.7018,0.9652 -3.6576,0.9652 -2.667,0 -4.1402,-1.4478 -1.4732,-1.4478 -1.4732,-3.9624 0,-1.7526 0.7366,-3.2512 0.7366,-1.524 2.032,-2.413 1.3208,-0.889 2.9718,-0.889 1.4732,0 2.3622,0.889 0.889,0.8636 0.889,2.3622 0,1.7526 -1.27,3.0226 -1.2446,1.2446 -4.2418,1.9812 0.635,1.1684 2.413,1.1684 1.143,0 2.5908,-0.7874 1.4732,-0.8128 2.54,-2.1082 0.3048,-0.3556 0.6858,-0.3556 z m -6.4008,-3.683 q -0.9398,0 -1.6002,1.0922 -0.635,1.0922 -0.635,2.6416 v 0.0508 q 1.4986,-0.3556 2.3622,-1.0668 0.8636,-0.7112 0.8636,-1.651 0,-0.4826 -0.2794,-0.762 -0.254,-0.3048 -0.7112,-0.3048 z"
           style="font-family:Pacifico;-inkscape-font-specification:Pacifico"
           id="path1909" />
        <path
           d="m 246.7491,213.16663 q -0.9652,0 -1.3716,-1.016 -0.381,-1.016 -0.381,-3.2512 0,-3.302 0.9398,-6.2738 0.2286,-0.7366 0.7366,-1.0668 0.5334,-0.3556 1.4732,-0.3556 0.508,0 0.7112,0.127 0.2032,0.127 0.2032,0.4826 0,0.4064 -0.381,1.8288 -0.254,1.016 -0.4064,1.778 -0.1524,0.762 -0.254,1.8796 0.8382,-2.1844 1.8796,-3.556 1.0414,-1.3716 2.032,-1.9558 1.016,-0.5842 1.8542,-0.5842 1.651,0 1.651,1.651 0,0.9906 -0.5588,3.5814 -0.4826,2.2098 -0.4826,2.921 0,1.016 0.7366,1.016 0.508,0 1.1938,-0.6096 0.7112,-0.635 1.8796,-2.032 0.3048,-0.3556 0.6858,-0.3556 0.3302,0 0.508,0.3048 0.2032,0.3048 0.2032,0.8382 0,1.016 -0.4826,1.5748 -1.0922,1.3462 -2.3622,2.2098 -1.2446,0.8636 -2.8448,0.8636 -1.2954,0 -1.9558,-0.7366 -0.6604,-0.762 -0.6604,-2.1844 0,-0.7112 0.3556,-2.54 0.3302,-1.6002 0.3302,-2.2098 0,-0.4064 -0.2794,-0.4064 -0.3302,0 -0.9398,0.8636 -0.5842,0.8382 -1.2192,2.2352 -0.6096,1.397 -0.9906,2.9464 -0.2794,1.1938 -0.6604,1.6256 -0.3556,0.4064 -1.143,0.4064 z"
           style="font-family:Pacifico;-inkscape-font-specification:Pacifico"
           id="path1911" />
        <path
           d="m 259.34746,213.16663 q -0.9652,0 -1.3716,-1.016 -0.381,-1.016 -0.381,-3.2512 0,-3.302 0.9398,-6.2738 0.2286,-0.7366 0.7366,-1.0668 0.5334,-0.3556 1.4732,-0.3556 0.508,0 0.7112,0.127 0.2032,0.127 0.2032,0.4826 0,0.4064 -0.381,1.8288 -0.254,1.016 -0.4064,1.778 -0.1524,0.762 -0.254,1.8796 0.8382,-2.1844 1.8796,-3.556 1.0414,-1.3716 2.032,-1.9558 1.016,-0.5842 1.8542,-0.5842 1.651,0 1.651,1.651 0,0.3302 -0.2286,1.6002 -0.2032,1.016 -0.2032,1.27 0,0.889 0.635,0.889 0.7112,0 1.8288,-1.1176 0.3302,-0.3302 0.6858,-0.3302 0.3302,0 0.508,0.3048 0.2032,0.2794 0.2032,0.762 0,0.9398 -0.508,1.4732 -0.7112,0.7366 -1.6764,1.27 -0.9398,0.508 -2.0066,0.508 -1.3462,0 -2.0574,-0.6858 -0.6858,-0.6858 -0.6858,-1.8542 0,-0.381 0.0762,-0.762 0.0508,-0.508 0.0508,-0.6858 0,-0.4064 -0.2794,-0.4064 -0.381,0 -1.016,0.8636 -0.6096,0.8382 -1.2192,2.2352 -0.6096,1.397 -0.9906,2.9464 -0.2794,1.1938 -0.6604,1.6256 -0.3556,0.4064 -1.143,0.4064 z"
           style="font-family:Pacifico;-inkscape-font-specification:Pacifico"
           id="path1913" />
        <path
           d="m 280.42946,207.37543 q 0.3302,0 0.508,0.3048 0.2032,0.3048 0.2032,0.8382 0,1.016 -0.4826,1.5748 -0.9398,1.143 -2.667,2.1082 -1.7018,0.9652 -3.6576,0.9652 -2.667,0 -4.1402,-1.4478 -1.4732,-1.4478 -1.4732,-3.9624 0,-1.7526 0.7366,-3.2512 0.7366,-1.524 2.032,-2.413 1.3208,-0.889 2.9718,-0.889 1.4732,0 2.3622,0.889 0.889,0.8636 0.889,2.3622 0,1.7526 -1.27,3.0226 -1.2446,1.2446 -4.2418,1.9812 0.635,1.1684 2.413,1.1684 1.143,0 2.5908,-0.7874 1.4732,-0.8128 2.54,-2.1082 0.3048,-0.3556 0.6858,-0.3556 z m -6.4008,-3.683 q -0.9398,0 -1.6002,1.0922 -0.635,1.0922 -0.635,2.6416 v 0.0508 q 1.4986,-0.3556 2.3622,-1.0668 0.8636,-0.7112 0.8636,-1.651 0,-0.4826 -0.2794,-0.762 -0.254,-0.3048 -0.7112,-0.3048 z"
           style="font-family:Pacifico;-inkscape-font-specification:Pacifico"
           id="path1915" />
        <path
           d="m 291.96102,207.42623 q 0.3302,0 0.508,0.3302 0.2032,0.3048 0.2032,0.7874 0,0.5842 -0.1778,0.9144 -0.1778,0.3302 -0.5588,0.5842 -2.1844,1.4732 -3.2004,2.1844 l -1.6256,1.0922 q -0.9652,5.2578 -2.54,8.255 -1.5494,3.0226 -3.9624,3.0226 -1.2954,0 -2.1082,-0.8128 -0.8128,-0.7874 -0.8128,-2.0828 0,-1.8034 1.4224,-3.8862 1.4224,-2.0574 5.334,-5.08 l 0.1524,-0.9906 q -0.4318,0.6858 -1.143,1.0668 -0.6858,0.3556 -1.3716,0.3556 -1.5748,0 -2.5146,-1.143 -0.9398,-1.143 -0.9398,-2.9972 0,-2.032 0.9398,-3.8354 0.9398,-1.8288 2.4892,-2.921 1.5748,-1.1176 3.3274,-1.1176 0.5588,0 0.7366,0.2286 0.2032,0.2032 0.3302,0.762 0.4826,-0.1016 1.1176,-0.1016 0.635,0 0.889,0.2032 0.2794,0.1778 0.2794,0.7366 0,0.3048 -0.0254,0.4826 -0.1016,0.7874 -0.635,3.9878 -0.1016,0.6096 -0.2286,1.3462 -0.1016,0.7112 -0.2286,1.524 1.9558,-1.524 3.7592,-2.6924 0.3302,-0.2032 0.5842,-0.2032 z m -8.9662,3.175 q 0.5842,0 1.1176,-0.7112 0.5334,-0.7112 0.762,-2.032 l 0.8128,-4.3434 q -1.0414,0.0254 -1.9304,0.8128 -0.889,0.762 -1.4224,2.032 -0.5334,1.27 -0.5334,2.6924 0,0.7874 0.3048,1.1684 0.3302,0.381 0.889,0.381 z m -2.1082,11.5316 q 0.635,0 1.4224,-1.524 0.8128,-1.524 1.5494,-4.8514 -1.9558,1.6764 -2.8194,3.0226 -0.8636,1.3462 -0.8636,2.3622 0,0.4318 0.1524,0.7112 0.1778,0.2794 0.5588,0.2794 z"
           style="font-family:Pacifico;-inkscape-font-specification:Pacifico"
           id="path1917" />
        <path
           d="m 294.17073,199.52683 q -1.0668,0 -1.6002,-0.4826 -0.5334,-0.508 -0.5334,-1.397 0,-0.889 0.6858,-1.4732 0.7112,-0.6096 1.7526,-0.6096 0.9398,0 1.524,0.4572 0.5842,0.4572 0.5842,1.2954 0,1.016 -0.6604,1.6256 -0.6604,0.5842 -1.7526,0.5842 z m -0.2032,13.6398 q -1.651,0 -2.413,-1.1684 -0.7366,-1.1684 -0.7366,-3.0988 0,-1.143 0.2794,-2.921 0.3048,-1.8034 0.762,-3.3528 0.2286,-0.8128 0.6096,-1.1176 0.381,-0.3048 1.2192,-0.3048 1.2954,0 1.2954,0.8636 0,0.635 -0.4826,2.9464 -0.6096,2.794 -0.6096,3.7846 0,0.762 0.2032,1.1684 0.2032,0.4064 0.6858,0.4064 0.4572,0 1.143,-0.635 0.6858,-0.635 1.8288,-2.0066 0.3048,-0.3556 0.6858,-0.3556 0.3302,0 0.508,0.3048 0.2032,0.3048 0.2032,0.8382 0,1.016 -0.4826,1.5748 -2.5146,3.0734 -4.699,3.0734 z"
           style="font-family:Pacifico;-inkscape-font-specification:Pacifico"
           id="path1919" />
        <path
           d="m 301.81609,213.72543 q -1.3208,0 -2.032,-0.6096 -0.6858,-0.6096 -0.6858,-1.3716 0,-0.6604 0.4826,-1.143 0.4826,-0.4826 1.4224,-0.4826 0.3302,0 0.762,0.0762 0.4572,0.0508 0.6858,0.0762 -0.0254,-0.6604 -0.3048,-1.2446 -0.254,-0.5842 -0.6604,-1.1176 -0.4064,-0.5588 -0.762,-0.9652 -0.7874,1.4986 -1.5748,2.4892 -0.762,0.9906 -1.6764,1.8796 -0.4572,0.4572 -0.9652,0.4572 -0.4064,0 -0.6604,-0.2794 -0.254,-0.3048 -0.254,-0.7366 0,-0.508 0.3556,-0.9398 l 0.3302,-0.4064 q 1.397,-1.7272 2.1082,-2.8448 0.4318,-0.7366 1.016,-1.9558 0.5842,-1.2446 1.143,-2.5654 0.4826,-1.1176 2.0066,-1.1176 0.7112,0 0.9906,0.127 0.2794,0.127 0.2794,0.4064 0,0.1524 -0.1016,0.4826 -0.1016,0.3302 -0.2794,0.6604 -0.4572,0.9144 -0.4572,1.5494 0,0.381 0.254,0.8382 0.2794,0.4572 0.8382,1.143 0.8128,1.0668 1.2192,1.8288 0.4318,0.7366 0.4318,1.6256 0,0.254 -0.0508,0.7112 1.2446,-0.4826 2.921,-2.5654 0.3048,-0.3556 0.6858,-0.3556 0.3302,0 0.508,0.3048 0.2032,0.3048 0.2032,0.8382 0,0.9652 -0.4826,1.5748 -1.27,1.5748 -2.4384,2.159 -1.143,0.5588 -2.8448,0.6096 -1.016,0.8636 -2.413,0.8636 z"
           style="font-family:Pacifico;-inkscape-font-specification:Pacifico"
           id="path1921" />
        <path
           d="m 319.26585,207.37543 q 0.3302,0 0.508,0.3048 0.2032,0.3048 0.2032,0.8382 0,1.016 -0.4826,1.5748 -1.0922,1.3462 -2.3876,2.2098 -1.2954,0.8636 -2.9718,0.8636 -5.1816,0 -5.1816,-7.2898 0,-1.1176 0.0762,-2.2606 h -0.9906 q -0.762,0 -1.0414,-0.2794 -0.254,-0.2794 -0.254,-0.889 0,-1.4224 1.143,-1.4224 h 1.4478 q 0.4318,-2.794 1.3208,-5.1054 0.889,-2.3114 2.1336,-3.683 1.27,-1.3716 2.7178,-1.3716 1.0668,0 1.6764,0.9398 0.6096,0.9398 0.6096,2.3622 0,3.937 -3.302,6.858 h 2.8448 q 0.4064,0 0.5842,0.1778 0.1778,0.1778 0.1778,0.6604 0,1.7526 -2.8702,1.7526 h -3.0988 q -0.0508,1.27 -0.0508,1.9812 0,2.6416 0.6096,3.7084 0.635,1.0668 1.9812,1.0668 1.0922,0 1.9304,-0.6604 0.8382,-0.6604 1.9812,-1.9812 0.3048,-0.3556 0.6858,-0.3556 z m -4.445,-14.0716 q -0.381,0 -0.8636,0.9652 -0.4572,0.9398 -0.889,2.6416 -0.4064,1.6764 -0.6858,3.7338 1.4986,-1.2954 2.2352,-2.8956 0.762,-1.6256 0.762,-2.9464 0,-1.4986 -0.5588,-1.4986 z"
           style="font-family:Pacifico;-inkscape-font-specification:Pacifico"
           id="path1923" />
        <path
           d="m 319.72304,213.16663 q -0.9652,0 -1.3716,-1.016 -0.381,-1.016 -0.381,-3.2512 0,-3.302 0.9398,-6.2738 0.2286,-0.7366 0.7366,-1.0668 0.5334,-0.3556 1.4732,-0.3556 0.508,0 0.7112,0.127 0.2032,0.127 0.2032,0.4826 0,0.4064 -0.381,1.8288 -0.254,1.016 -0.4064,1.778 -0.1524,0.762 -0.254,1.8796 0.8382,-2.1844 1.8796,-3.556 1.0414,-1.3716 2.032,-1.9558 1.016,-0.5842 1.8542,-0.5842 1.651,0 1.651,1.651 0,0.3302 -0.2286,1.6002 -0.2032,1.016 -0.2032,1.27 0,0.889 0.635,0.889 0.7112,0 1.8288,-1.1176 0.3302,-0.3302 0.6858,-0.3302 0.3302,0 0.508,0.3048 0.2032,0.2794 0.2032,0.762 0,0.9398 -0.508,1.4732 -0.7112,0.7366 -1.6764,1.27 -0.9398,0.508 -2.0066,0.508 -1.3462,0 -2.0574,-0.6858 -0.6858,-0.6858 -0.6858,-1.8542 0,-0.381 0.0762,-0.762 0.0508,-0.508 0.0508,-0.6858 0,-0.4064 -0.2794,-0.4064 -0.381,0 -1.016,0.8636 -0.6096,0.8382 -1.2192,2.2352 -0.6096,1.397 -0.9906,2.9464 -0.2794,1.1938 -0.6604,1.6256 -0.3556,0.4064 -1.143,0.4064 z"
           style="font-family:Pacifico;-inkscape-font-specification:Pacifico"
           id="path1925" />
        <path
           d="m 340.80503,207.37543 q 0.3302,0 0.508,0.3048 0.2032,0.3048 0.2032,0.8382 0,1.016 -0.4826,1.5748 -0.9398,1.143 -2.667,2.1082 -1.7018,0.9652 -3.6576,0.9652 -2.667,0 -4.1402,-1.4478 -1.4732,-1.4478 -1.4732,-3.9624 0,-1.7526 0.7366,-3.2512 0.7366,-1.524 2.032,-2.413 1.3208,-0.889 2.9718,-0.889 1.4732,0 2.3622,0.889 0.889,0.8636 0.889,2.3622 0,1.7526 -1.27,3.0226 -1.2446,1.2446 -4.2418,1.9812 0.635,1.1684 2.413,1.1684 1.143,0 2.5908,-0.7874 1.4732,-0.8128 2.54,-2.1082 0.3048,-0.3556 0.6858,-0.3556 z m -6.4008,-3.683 q -0.9398,0 -1.6002,1.0922 -0.635,1.0922 -0.635,2.6416 v 0.0508 q 1.4986,-0.3556 2.3622,-1.0668 0.8636,-0.7112 0.8636,-1.651 0,-0.4826 -0.2794,-0.762 -0.254,-0.3048 -0.7112,-0.3048 z"
           style="font-family:Pacifico;-inkscape-font-specification:Pacifico"
           id="path1927" />
        <path
           d="m 341.26222,213.16663 q -0.9652,0 -1.3716,-1.016 -0.381,-1.016 -0.381,-3.2512 0,-3.302 0.9398,-6.2738 0.2286,-0.7366 0.7366,-1.0668 0.5334,-0.3556 1.4732,-0.3556 0.508,0 0.7112,0.127 0.2032,0.127 0.2032,0.4826 0,0.4064 -0.381,1.8288 -0.254,1.016 -0.4064,1.778 -0.1524,0.7366 -0.254,1.8542 0.6858,-1.9812 1.6256,-3.3528 0.9652,-1.3716 1.9558,-2.032 1.016,-0.6858 1.905,-0.6858 0.889,0 1.2446,0.4064 0.381,0.4064 0.381,1.2446 0,0.8128 -0.4826,2.9464 -0.2032,0.9144 -0.2794,1.3716 1.27,-3.1242 2.8194,-4.5466 1.5494,-1.4224 2.8956,-1.4224 1.651,0 1.651,1.651 0,0.9906 -0.5588,3.5814 -0.4826,2.2098 -0.4826,2.921 0,1.016 0.7366,1.016 0.508,0 1.1938,-0.6096 0.7112,-0.635 1.8796,-2.032 0.3048,-0.3556 0.6858,-0.3556 0.3302,0 0.508,0.3048 0.2032,0.3048 0.2032,0.8382 0,1.016 -0.4826,1.5748 -1.0922,1.3462 -2.3622,2.2098 -1.2446,0.8636 -2.8448,0.8636 -1.2954,0 -1.9558,-0.7366 -0.6604,-0.762 -0.6604,-2.1844 0,-0.7112 0.3556,-2.54 0.3302,-1.6002 0.3302,-2.2098 0,-0.4064 -0.2794,-0.4064 -0.3302,0 -0.9398,0.8636 -0.6096,0.8382 -1.2192,2.2352 -0.6096,1.397 -0.9906,2.9464 -0.2794,1.2192 -0.6604,1.6256 -0.3556,0.4064 -1.1684,0.4064 -0.8382,0 -1.27,-0.7874 -0.4064,-0.8128 -0.4064,-1.9558 0,-0.9652 0.254,-2.794 0.2032,-1.6256 0.2032,-2.1336 0,-0.4064 -0.2794,-0.4064 -0.381,0 -0.9652,0.9144 -0.5842,0.9144 -1.143,2.3368 -0.5334,1.4224 -0.8636,2.794 -0.2794,1.1938 -0.6604,1.6256 -0.3556,0.4064 -1.143,0.4064 z"
           style="font-family:Pacifico;-inkscape-font-specification:Pacifico"
           id="path1929" />
        <path
           d="m 369.68481,207.37543 q 0.3302,0 0.508,0.3048 0.2032,0.3048 0.2032,0.8382 0,1.016 -0.4826,1.5748 -0.9398,1.143 -2.667,2.1082 -1.7018,0.9652 -3.6576,0.9652 -2.667,0 -4.1402,-1.4478 -1.4732,-1.4478 -1.4732,-3.9624 0,-1.7526 0.7366,-3.2512 0.7366,-1.524 2.032,-2.413 1.3208,-0.889 2.9718,-0.889 1.4732,0 2.3622,0.889 0.889,0.8636 0.889,2.3622 0,1.7526 -1.27,3.0226 -1.2446,1.2446 -4.2418,1.9812 0.635,1.1684 2.413,1.1684 1.143,0 2.5908,-0.7874 1.4732,-0.8128 2.54,-2.1082 0.3048,-0.3556 0.6858,-0.3556 z m -6.4008,-3.683 q -0.9398,0 -1.6002,1.0922 -0.635,1.0922 -0.635,2.6416 v 0.0508 q 1.4986,-0.3556 2.3622,-1.0668 0.8636,-0.7112 0.8636,-1.651 0,-0.4826 -0.2794,-0.762 -0.254,-0.3048 -0.7112,-0.3048 z"
           style="font-family:Pacifico;-inkscape-font-specification:Pacifico"
           id="path1931" />
        <path
           d="m 370.142,213.16663 q -0.9652,0 -1.3716,-1.016 -0.381,-1.016 -0.381,-3.2512 0,-3.302 0.9398,-6.2738 0.2286,-0.7366 0.7366,-1.0668 0.5334,-0.3556 1.4732,-0.3556 0.508,0 0.7112,0.127 0.2032,0.127 0.2032,0.4826 0,0.4064 -0.381,1.8288 -0.254,1.016 -0.4064,1.778 -0.1524,0.762 -0.254,1.8796 0.8382,-2.1844 1.8796,-3.556 1.0414,-1.3716 2.032,-1.9558 1.016,-0.5842 1.8542,-0.5842 1.651,0 1.651,1.651 0,0.9906 -0.5588,3.5814 -0.4826,2.2098 -0.4826,2.921 0,1.016 0.7366,1.016 0.508,0 1.1938,-0.6096 0.7112,-0.635 1.8796,-2.032 0.3048,-0.3556 0.6858,-0.3556 0.3302,0 0.508,0.3048 0.2032,0.3048 0.2032,0.8382 0,1.016 -0.4826,1.5748 -1.0922,1.3462 -2.3622,2.2098 -1.2446,0.8636 -2.8448,0.8636 -1.2954,0 -1.9558,-0.7366 -0.6604,-0.762 -0.6604,-2.1844 0,-0.7112 0.3556,-2.54 0.3302,-1.6002 0.3302,-2.2098 0,-0.4064 -0.2794,-0.4064 -0.3302,0 -0.9398,0.8636 -0.5842,0.8382 -1.2192,2.2352 -0.6096,1.397 -0.9906,2.9464 -0.2794,1.1938 -0.6604,1.6256 -0.3556,0.4064 -1.143,0.4064 z"
           style="font-family:Pacifico;-inkscape-font-specification:Pacifico"
           id="path1933" />
        <path
           d="m 385.12796,203.61623 q -0.0508,1.27 -0.0508,1.9812 0,1.8288 0.1778,2.8702 0.2032,1.016 0.635,1.4732 0.4572,0.4318 1.2446,0.4318 0.4064,0 0.9652,-0.254 0.5588,-0.254 1.016,-0.6604 0.2794,-0.254 0.5588,-0.254 0.3048,0 0.4826,0.3556 0.2032,0.3302 0.2032,0.8128 0,0.4826 -0.2032,0.9398 -0.1778,0.4572 -0.5588,0.762 -1.3208,1.0922 -2.9972,1.0922 -2.413,0 -3.5306,-2.0066 -1.1176,-2.032 -1.1176,-5.2832 0,-1.1176 0.0762,-2.2606 h -0.9906 q -0.762,0 -1.0414,-0.2794 -0.254,-0.2794 -0.254,-0.889 0,-1.4224 1.143,-1.4224 h 1.4478 q 0.4318,-2.794 1.3208,-5.1054 0.889,-2.3114 2.1336,-3.683 1.27,-1.3716 2.7178,-1.3716 1.0668,0 1.6764,0.9398 0.6096,0.9398 0.6096,2.3622 0,3.937 -3.302,6.858 h 2.8448 q 0.4064,0 0.5842,0.1778 0.1778,0.1778 0.1778,0.6604 0,1.7526 -2.8702,1.7526 z m 2.6924,-10.3124 q -0.381,0 -0.8636,0.9652 -0.4572,0.9398 -0.889,2.6416 -0.4064,1.6764 -0.6858,3.7338 1.4986,-1.2954 2.2352,-2.8956 0.762,-1.6256 0.762,-2.9464 0,-1.4986 -0.5588,-1.4986 z"
           style="font-family:Pacifico;-inkscape-font-specification:Pacifico"
           id="path1935" />
      </g>
    </g>
  </g>
</svg>
