<?xml version="1.0" encoding="UTF-8" standalone="no"?>
<!-- Created with Inkscape (http://www.inkscape.org/) -->

<svg
   width="600mm"
   height="158.90282mm"
   viewBox="0 0 600.00001 158.90282"
   version="1.1"
   id="svg32169"
   inkscape:version="1.1.2 (b8e25be833, 2022-02-05)"
   sodipodi:docname="nuitsdelalecture-enregistrements.svg"
   xmlns:inkscape="http://www.inkscape.org/namespaces/inkscape"
   xmlns:sodipodi="http://sodipodi.sourceforge.net/DTD/sodipodi-0.dtd"
   xmlns="http://www.w3.org/2000/svg"
   xmlns:svg="http://www.w3.org/2000/svg">
  <sodipodi:namedview
     id="namedview32171"
     pagecolor="#ffffff"
     bordercolor="#666666"
     borderopacity="1.0"
     inkscape:pageshadow="2"
     inkscape:pageopacity="0.0"
     inkscape:pagecheckerboard="0"
     inkscape:document-units="mm"
     showgrid="false"
     fit-margin-top="0"
     fit-margin-left="0"
     fit-margin-right="0"
     fit-margin-bottom="0"
     inkscape:zoom="0.38217592"
     inkscape:cx="1271.6657"
     inkscape:cy="546.86857"
     inkscape:window-width="1920"
     inkscape:window-height="1017"
     inkscape:window-x="1912"
     inkscape:window-y="-8"
     inkscape:window-maximized="1"
     inkscape:current-layer="layer1" />
  <defs
     id="defs32166" />
  <g
     inkscape:label="Layer 1"
     inkscape:groupmode="layer"
     id="layer1"
     transform="translate(-12.839739,-65.693808)">
    <g
       id="g1164">
      <g
         id="g1288">
        <g
           aria-label="enregistrements "
           id="text4255"
           style="font-size:25.4px;line-height:1.25;letter-spacing:0px;word-spacing:0px;fill:#aa87de;stroke-width:0.264583">
          <path
             d="m 242.06281,207.37543 q 0.3302,0 0.508,0.3048 0.2032,0.3048 0.2032,0.8382 0,1.016 -0.4826,1.5748 -0.9398,1.143 -2.667,2.1082 -1.7018,0.9652 -3.6576,0.9652 -2.667,0 -4.1402,-1.4478 -1.4732,-1.4478 -1.4732,-3.9624 0,-1.7526 0.7366,-3.2512 0.7366,-1.524 2.032,-2.413 1.3208,-0.889 2.9718,-0.889 1.4732,0 2.3622,0.889 0.889,0.8636 0.889,2.3622 0,1.7526 -1.27,3.0226 -1.2446,1.2446 -4.2418,1.9812 0.635,1.1684 2.413,1.1684 1.143,0 2.5908,-0.7874 1.4732,-0.8128 2.54,-2.1082 0.3048,-0.3556 0.6858,-0.3556 z m -6.4008,-3.683 q -0.9398,0 -1.6002,1.0922 -0.635,1.0922 -0.635,2.6416 v 0.0508 q 1.4986,-0.3556 2.3622,-1.0668 0.8636,-0.7112 0.8636,-1.651 0,-0.4826 -0.2794,-0.762 -0.254,-0.3048 -0.7112,-0.3048 z"
             style="font-family:Pacifico;-inkscape-font-specification:Pacifico"
             id="path1107" />
          <path
             d="m 242.52,213.16663 q -0.9652,0 -1.3716,-1.016 -0.381,-1.016 -0.381,-3.2512 0,-3.302 0.9398,-6.2738 0.2286,-0.7366 0.7366,-1.0668 0.5334,-0.3556 1.4732,-0.3556 0.508,0 0.7112,0.127 0.2032,0.127 0.2032,0.4826 0,0.4064 -0.381,1.8288 -0.254,1.016 -0.4064,1.778 -0.1524,0.762 -0.254,1.8796 0.8382,-2.1844 1.8796,-3.556 1.0414,-1.3716 2.032,-1.9558 1.016,-0.5842 1.8542,-0.5842 1.651,0 1.651,1.651 0,0.9906 -0.5588,3.5814 -0.4826,2.2098 -0.4826,2.921 0,1.016 0.7366,1.016 0.508,0 1.1938,-0.6096 0.7112,-0.635 1.8796,-2.032 0.3048,-0.3556 0.6858,-0.3556 0.3302,0 0.508,0.3048 0.2032,0.3048 0.2032,0.8382 0,1.016 -0.4826,1.5748 -1.0922,1.3462 -2.3622,2.2098 -1.2446,0.8636 -2.8448,0.8636 -1.2954,0 -1.9558,-0.7366 -0.6604,-0.762 -0.6604,-2.1844 0,-0.7112 0.3556,-2.54 0.3302,-1.6002 0.3302,-2.2098 0,-0.4064 -0.2794,-0.4064 -0.3302,0 -0.9398,0.8636 -0.5842,0.8382 -1.2192,2.2352 -0.6096,1.397 -0.9906,2.9464 -0.2794,1.1938 -0.6604,1.6256 -0.3556,0.4064 -1.143,0.4064 z"
             style="font-family:Pacifico;-inkscape-font-specification:Pacifico"
             id="path1109" />
          <path
             d="m 255.11836,213.16663 q -0.9652,0 -1.3716,-1.016 -0.381,-1.016 -0.381,-3.2512 0,-3.302 0.9398,-6.2738 0.2286,-0.7366 0.7366,-1.0668 0.5334,-0.3556 1.4732,-0.3556 0.508,0 0.7112,0.127 0.2032,0.127 0.2032,0.4826 0,0.4064 -0.381,1.8288 -0.254,1.016 -0.4064,1.778 -0.1524,0.762 -0.254,1.8796 0.8382,-2.1844 1.8796,-3.556 1.0414,-1.3716 2.032,-1.9558 1.016,-0.5842 1.8542,-0.5842 1.651,0 1.651,1.651 0,0.3302 -0.2286,1.6002 -0.2032,1.016 -0.2032,1.27 0,0.889 0.635,0.889 0.7112,0 1.8288,-1.1176 0.3302,-0.3302 0.6858,-0.3302 0.3302,0 0.508,0.3048 0.2032,0.2794 0.2032,0.762 0,0.9398 -0.508,1.4732 -0.7112,0.7366 -1.6764,1.27 -0.9398,0.508 -2.0066,0.508 -1.3462,0 -2.0574,-0.6858 -0.6858,-0.6858 -0.6858,-1.8542 0,-0.381 0.0762,-0.762 0.0508,-0.508 0.0508,-0.6858 0,-0.4064 -0.2794,-0.4064 -0.381,0 -1.016,0.8636 -0.6096,0.8382 -1.2192,2.2352 -0.6096,1.397 -0.9906,2.9464 -0.2794,1.1938 -0.6604,1.6256 -0.3556,0.4064 -1.143,0.4064 z"
             style="font-family:Pacifico;-inkscape-font-specification:Pacifico"
             id="path1111" />
          <path
             d="m 276.20036,207.37543 q 0.3302,0 0.508,0.3048 0.2032,0.3048 0.2032,0.8382 0,1.016 -0.4826,1.5748 -0.9398,1.143 -2.667,2.1082 -1.7018,0.9652 -3.6576,0.9652 -2.667,0 -4.1402,-1.4478 -1.4732,-1.4478 -1.4732,-3.9624 0,-1.7526 0.7366,-3.2512 0.7366,-1.524 2.032,-2.413 1.3208,-0.889 2.9718,-0.889 1.4732,0 2.3622,0.889 0.889,0.8636 0.889,2.3622 0,1.7526 -1.27,3.0226 -1.2446,1.2446 -4.2418,1.9812 0.635,1.1684 2.413,1.1684 1.143,0 2.5908,-0.7874 1.4732,-0.8128 2.54,-2.1082 0.3048,-0.3556 0.6858,-0.3556 z m -6.4008,-3.683 q -0.9398,0 -1.6002,1.0922 -0.635,1.0922 -0.635,2.6416 v 0.0508 q 1.4986,-0.3556 2.3622,-1.0668 0.8636,-0.7112 0.8636,-1.651 0,-0.4826 -0.2794,-0.762 -0.254,-0.3048 -0.7112,-0.3048 z"
             style="font-family:Pacifico;-inkscape-font-specification:Pacifico"
             id="path1113" />
          <path
             d="m 287.73193,207.42623 q 0.3302,0 0.508,0.3302 0.2032,0.3048 0.2032,0.7874 0,0.5842 -0.1778,0.9144 -0.1778,0.3302 -0.5588,0.5842 -2.1844,1.4732 -3.2004,2.1844 l -1.6256,1.0922 q -0.9652,5.2578 -2.54,8.255 -1.5494,3.0226 -3.9624,3.0226 -1.2954,0 -2.1082,-0.8128 -0.8128,-0.7874 -0.8128,-2.0828 0,-1.8034 1.4224,-3.8862 1.4224,-2.0574 5.334,-5.08 l 0.1524,-0.9906 q -0.4318,0.6858 -1.143,1.0668 -0.6858,0.3556 -1.3716,0.3556 -1.5748,0 -2.5146,-1.143 -0.9398,-1.143 -0.9398,-2.9972 0,-2.032 0.9398,-3.8354 0.9398,-1.8288 2.4892,-2.921 1.5748,-1.1176 3.3274,-1.1176 0.5588,0 0.7366,0.2286 0.2032,0.2032 0.3302,0.762 0.4826,-0.1016 1.1176,-0.1016 0.635,0 0.889,0.2032 0.2794,0.1778 0.2794,0.7366 0,0.3048 -0.0254,0.4826 -0.1016,0.7874 -0.635,3.9878 -0.1016,0.6096 -0.2286,1.3462 -0.1016,0.7112 -0.2286,1.524 1.9558,-1.524 3.7592,-2.6924 0.3302,-0.2032 0.5842,-0.2032 z m -8.9662,3.175 q 0.5842,0 1.1176,-0.7112 0.5334,-0.7112 0.762,-2.032 l 0.8128,-4.3434 q -1.0414,0.0254 -1.9304,0.8128 -0.889,0.762 -1.4224,2.032 -0.5334,1.27 -0.5334,2.6924 0,0.7874 0.3048,1.1684 0.3302,0.381 0.889,0.381 z m -2.1082,11.5316 q 0.635,0 1.4224,-1.524 0.8128,-1.524 1.5494,-4.8514 -1.9558,1.6764 -2.8194,3.0226 -0.8636,1.3462 -0.8636,2.3622 0,0.4318 0.1524,0.7112 0.1778,0.2794 0.5588,0.2794 z"
             style="font-family:Pacifico;-inkscape-font-specification:Pacifico"
             id="path1115" />
          <path
             d="m 289.94164,199.52683 q -1.0668,0 -1.6002,-0.4826 -0.5334,-0.508 -0.5334,-1.397 0,-0.889 0.6858,-1.4732 0.7112,-0.6096 1.7526,-0.6096 0.9398,0 1.524,0.4572 0.5842,0.4572 0.5842,1.2954 0,1.016 -0.6604,1.6256 -0.6604,0.5842 -1.7526,0.5842 z m -0.2032,13.6398 q -1.651,0 -2.413,-1.1684 -0.7366,-1.1684 -0.7366,-3.0988 0,-1.143 0.2794,-2.921 0.3048,-1.8034 0.762,-3.3528 0.2286,-0.8128 0.6096,-1.1176 0.381,-0.3048 1.2192,-0.3048 1.2954,0 1.2954,0.8636 0,0.635 -0.4826,2.9464 -0.6096,2.794 -0.6096,3.7846 0,0.762 0.2032,1.1684 0.2032,0.4064 0.6858,0.4064 0.4572,0 1.143,-0.635 0.6858,-0.635 1.8288,-2.0066 0.3048,-0.3556 0.6858,-0.3556 0.3302,0 0.508,0.3048 0.2032,0.3048 0.2032,0.8382 0,1.016 -0.4826,1.5748 -2.5146,3.0734 -4.699,3.0734 z"
             style="font-family:Pacifico;-inkscape-font-specification:Pacifico"
             id="path1117" />
          <path
             d="m 297.587,213.72543 q -1.3208,0 -2.032,-0.6096 -0.6858,-0.6096 -0.6858,-1.3716 0,-0.6604 0.4826,-1.143 0.4826,-0.4826 1.4224,-0.4826 0.3302,0 0.762,0.0762 0.4572,0.0508 0.6858,0.0762 -0.0254,-0.6604 -0.3048,-1.2446 -0.254,-0.5842 -0.6604,-1.1176 -0.4064,-0.5588 -0.762,-0.9652 -0.7874,1.4986 -1.5748,2.4892 -0.762,0.9906 -1.6764,1.8796 -0.4572,0.4572 -0.9652,0.4572 -0.4064,0 -0.6604,-0.2794 -0.254,-0.3048 -0.254,-0.7366 0,-0.508 0.3556,-0.9398 l 0.3302,-0.4064 q 1.397,-1.7272 2.1082,-2.8448 0.4318,-0.7366 1.016,-1.9558 0.5842,-1.2446 1.143,-2.5654 0.4826,-1.1176 2.0066,-1.1176 0.7112,0 0.9906,0.127 0.2794,0.127 0.2794,0.4064 0,0.1524 -0.1016,0.4826 -0.1016,0.3302 -0.2794,0.6604 -0.4572,0.9144 -0.4572,1.5494 0,0.381 0.254,0.8382 0.2794,0.4572 0.8382,1.143 0.8128,1.0668 1.2192,1.8288 0.4318,0.7366 0.4318,1.6256 0,0.254 -0.0508,0.7112 1.2446,-0.4826 2.921,-2.5654 0.3048,-0.3556 0.6858,-0.3556 0.3302,0 0.508,0.3048 0.2032,0.3048 0.2032,0.8382 0,0.9652 -0.4826,1.5748 -1.27,1.5748 -2.4384,2.159 -1.143,0.5588 -2.8448,0.6096 -1.016,0.8636 -2.413,0.8636 z"
             style="font-family:Pacifico;-inkscape-font-specification:Pacifico"
             id="path1119" />
          <path
             d="m 315.03675,207.37543 q 0.3302,0 0.508,0.3048 0.2032,0.3048 0.2032,0.8382 0,1.016 -0.4826,1.5748 -1.0922,1.3462 -2.3876,2.2098 -1.2954,0.8636 -2.9718,0.8636 -5.1816,0 -5.1816,-7.2898 0,-1.1176 0.0762,-2.2606 h -0.9906 q -0.762,0 -1.0414,-0.2794 -0.254,-0.2794 -0.254,-0.889 0,-1.4224 1.143,-1.4224 h 1.4478 q 0.4318,-2.794 1.3208,-5.1054 0.889,-2.3114 2.1336,-3.683 1.27,-1.3716 2.7178,-1.3716 1.0668,0 1.6764,0.9398 0.6096,0.9398 0.6096,2.3622 0,3.937 -3.302,6.858 h 2.8448 q 0.4064,0 0.5842,0.1778 0.1778,0.1778 0.1778,0.6604 0,1.7526 -2.8702,1.7526 h -3.0988 q -0.0508,1.27 -0.0508,1.9812 0,2.6416 0.6096,3.7084 0.635,1.0668 1.9812,1.0668 1.0922,0 1.9304,-0.6604 0.8382,-0.6604 1.9812,-1.9812 0.3048,-0.3556 0.6858,-0.3556 z m -4.445,-14.0716 q -0.381,0 -0.8636,0.9652 -0.4572,0.9398 -0.889,2.6416 -0.4064,1.6764 -0.6858,3.7338 1.4986,-1.2954 2.2352,-2.8956 0.762,-1.6256 0.762,-2.9464 0,-1.4986 -0.5588,-1.4986 z"
             style="font-family:Pacifico;-inkscape-font-specification:Pacifico"
             id="path1121" />
          <path
             d="m 315.49394,213.16663 q -0.9652,0 -1.3716,-1.016 -0.381,-1.016 -0.381,-3.2512 0,-3.302 0.9398,-6.2738 0.2286,-0.7366 0.7366,-1.0668 0.5334,-0.3556 1.4732,-0.3556 0.508,0 0.7112,0.127 0.2032,0.127 0.2032,0.4826 0,0.4064 -0.381,1.8288 -0.254,1.016 -0.4064,1.778 -0.1524,0.762 -0.254,1.8796 0.8382,-2.1844 1.8796,-3.556 1.0414,-1.3716 2.032,-1.9558 1.016,-0.5842 1.8542,-0.5842 1.651,0 1.651,1.651 0,0.3302 -0.2286,1.6002 -0.2032,1.016 -0.2032,1.27 0,0.889 0.635,0.889 0.7112,0 1.8288,-1.1176 0.3302,-0.3302 0.6858,-0.3302 0.3302,0 0.508,0.3048 0.2032,0.2794 0.2032,0.762 0,0.9398 -0.508,1.4732 -0.7112,0.7366 -1.6764,1.27 -0.9398,0.508 -2.0066,0.508 -1.3462,0 -2.0574,-0.6858 -0.6858,-0.6858 -0.6858,-1.8542 0,-0.381 0.0762,-0.762 0.0508,-0.508 0.0508,-0.6858 0,-0.4064 -0.2794,-0.4064 -0.381,0 -1.016,0.8636 -0.6096,0.8382 -1.2192,2.2352 -0.6096,1.397 -0.9906,2.9464 -0.2794,1.1938 -0.6604,1.6256 -0.3556,0.4064 -1.143,0.4064 z"
             style="font-family:Pacifico;-inkscape-font-specification:Pacifico"
             id="path1123" />
          <path
             d="m 336.57594,207.37543 q 0.3302,0 0.508,0.3048 0.2032,0.3048 0.2032,0.8382 0,1.016 -0.4826,1.5748 -0.9398,1.143 -2.667,2.1082 -1.7018,0.9652 -3.6576,0.9652 -2.667,0 -4.1402,-1.4478 -1.4732,-1.4478 -1.4732,-3.9624 0,-1.7526 0.7366,-3.2512 0.7366,-1.524 2.032,-2.413 1.3208,-0.889 2.9718,-0.889 1.4732,0 2.3622,0.889 0.889,0.8636 0.889,2.3622 0,1.7526 -1.27,3.0226 -1.2446,1.2446 -4.2418,1.9812 0.635,1.1684 2.413,1.1684 1.143,0 2.5908,-0.7874 1.4732,-0.8128 2.54,-2.1082 0.3048,-0.3556 0.6858,-0.3556 z m -6.4008,-3.683 q -0.9398,0 -1.6002,1.0922 -0.635,1.0922 -0.635,2.6416 v 0.0508 q 1.4986,-0.3556 2.3622,-1.0668 0.8636,-0.7112 0.8636,-1.651 0,-0.4826 -0.2794,-0.762 -0.254,-0.3048 -0.7112,-0.3048 z"
             style="font-family:Pacifico;-inkscape-font-specification:Pacifico"
             id="path1125" />
          <path
             d="m 337.03313,213.16663 q -0.9652,0 -1.3716,-1.016 -0.381,-1.016 -0.381,-3.2512 0,-3.302 0.9398,-6.2738 0.2286,-0.7366 0.7366,-1.0668 0.5334,-0.3556 1.4732,-0.3556 0.508,0 0.7112,0.127 0.2032,0.127 0.2032,0.4826 0,0.4064 -0.381,1.8288 -0.254,1.016 -0.4064,1.778 -0.1524,0.7366 -0.254,1.8542 0.6858,-1.9812 1.6256,-3.3528 0.9652,-1.3716 1.9558,-2.032 1.016,-0.6858 1.905,-0.6858 0.889,0 1.2446,0.4064 0.381,0.4064 0.381,1.2446 0,0.8128 -0.4826,2.9464 -0.2032,0.9144 -0.2794,1.3716 1.27,-3.1242 2.8194,-4.5466 1.5494,-1.4224 2.8956,-1.4224 1.651,0 1.651,1.651 0,0.9906 -0.5588,3.5814 -0.4826,2.2098 -0.4826,2.921 0,1.016 0.7366,1.016 0.508,0 1.1938,-0.6096 0.7112,-0.635 1.8796,-2.032 0.3048,-0.3556 0.6858,-0.3556 0.3302,0 0.508,0.3048 0.2032,0.3048 0.2032,0.8382 0,1.016 -0.4826,1.5748 -1.0922,1.3462 -2.3622,2.2098 -1.2446,0.8636 -2.8448,0.8636 -1.2954,0 -1.9558,-0.7366 -0.6604,-0.762 -0.6604,-2.1844 0,-0.7112 0.3556,-2.54 0.3302,-1.6002 0.3302,-2.2098 0,-0.4064 -0.2794,-0.4064 -0.3302,0 -0.9398,0.8636 -0.6096,0.8382 -1.2192,2.2352 -0.6096,1.397 -0.9906,2.9464 -0.2794,1.2192 -0.6604,1.6256 -0.3556,0.4064 -1.1684,0.4064 -0.8382,0 -1.27,-0.7874 -0.4064,-0.8128 -0.4064,-1.9558 0,-0.9652 0.254,-2.794 0.2032,-1.6256 0.2032,-2.1336 0,-0.4064 -0.2794,-0.4064 -0.381,0 -0.9652,0.9144 -0.5842,0.9144 -1.143,2.3368 -0.5334,1.4224 -0.8636,2.794 -0.2794,1.1938 -0.6604,1.6256 -0.3556,0.4064 -1.143,0.4064 z"
             style="font-family:Pacifico;-inkscape-font-specification:Pacifico"
             id="path1127" />
          <path
             d="m 365.45572,207.37543 q 0.3302,0 0.508,0.3048 0.2032,0.3048 0.2032,0.8382 0,1.016 -0.4826,1.5748 -0.9398,1.143 -2.667,2.1082 -1.7018,0.9652 -3.6576,0.9652 -2.667,0 -4.1402,-1.4478 -1.4732,-1.4478 -1.4732,-3.9624 0,-1.7526 0.7366,-3.2512 0.7366,-1.524 2.032,-2.413 1.3208,-0.889 2.9718,-0.889 1.4732,0 2.3622,0.889 0.889,0.8636 0.889,2.3622 0,1.7526 -1.27,3.0226 -1.2446,1.2446 -4.2418,1.9812 0.635,1.1684 2.413,1.1684 1.143,0 2.5908,-0.7874 1.4732,-0.8128 2.54,-2.1082 0.3048,-0.3556 0.6858,-0.3556 z m -6.4008,-3.683 q -0.9398,0 -1.6002,1.0922 -0.635,1.0922 -0.635,2.6416 v 0.0508 q 1.4986,-0.3556 2.3622,-1.0668 0.8636,-0.7112 0.8636,-1.651 0,-0.4826 -0.2794,-0.762 -0.254,-0.3048 -0.7112,-0.3048 z"
             style="font-family:Pacifico;-inkscape-font-specification:Pacifico"
             id="path1129" />
          <path
             d="m 365.9129,213.16663 q -0.9652,0 -1.3716,-1.016 -0.381,-1.016 -0.381,-3.2512 0,-3.302 0.9398,-6.2738 0.2286,-0.7366 0.7366,-1.0668 0.5334,-0.3556 1.4732,-0.3556 0.508,0 0.7112,0.127 0.2032,0.127 0.2032,0.4826 0,0.4064 -0.381,1.8288 -0.254,1.016 -0.4064,1.778 -0.1524,0.762 -0.254,1.8796 0.8382,-2.1844 1.8796,-3.556 1.0414,-1.3716 2.032,-1.9558 1.016,-0.5842 1.8542,-0.5842 1.651,0 1.651,1.651 0,0.9906 -0.5588,3.5814 -0.4826,2.2098 -0.4826,2.921 0,1.016 0.7366,1.016 0.508,0 1.1938,-0.6096 0.7112,-0.635 1.8796,-2.032 0.3048,-0.3556 0.6858,-0.3556 0.3302,0 0.508,0.3048 0.2032,0.3048 0.2032,0.8382 0,1.016 -0.4826,1.5748 -1.0922,1.3462 -2.3622,2.2098 -1.2446,0.8636 -2.8448,0.8636 -1.2954,0 -1.9558,-0.7366 -0.6604,-0.762 -0.6604,-2.1844 0,-0.7112 0.3556,-2.54 0.3302,-1.6002 0.3302,-2.2098 0,-0.4064 -0.2794,-0.4064 -0.3302,0 -0.9398,0.8636 -0.5842,0.8382 -1.2192,2.2352 -0.6096,1.397 -0.9906,2.9464 -0.2794,1.1938 -0.6604,1.6256 -0.3556,0.4064 -1.143,0.4064 z"
             style="font-family:Pacifico;-inkscape-font-specification:Pacifico"
             id="path1131" />
          <path
             d="m 388.03626,207.37543 q 0.3302,0 0.508,0.3048 0.2032,0.3048 0.2032,0.8382 0,1.016 -0.4826,1.5748 -1.0922,1.3462 -2.3876,2.2098 -1.2954,0.8636 -2.9718,0.8636 -5.1816,0 -5.1816,-7.2898 0,-1.1176 0.0762,-2.2606 h -0.9906 q -0.762,0 -1.0414,-0.2794 -0.254,-0.2794 -0.254,-0.889 0,-1.4224 1.143,-1.4224 h 1.4478 q 0.4318,-2.794 1.3208,-5.1054 0.889,-2.3114 2.1336,-3.683 1.27,-1.3716 2.7178,-1.3716 1.0668,0 1.6764,0.9398 0.6096,0.9398 0.6096,2.3622 0,3.937 -3.302,6.858 h 2.8448 q 0.4064,0 0.5842,0.1778 0.1778,0.1778 0.1778,0.6604 0,1.7526 -2.8702,1.7526 h -3.0988 q -0.0508,1.27 -0.0508,1.9812 0,2.6416 0.6096,3.7084 0.635,1.0668 1.9812,1.0668 1.0922,0 1.9304,-0.6604 0.8382,-0.6604 1.9812,-1.9812 0.3048,-0.3556 0.6858,-0.3556 z m -4.445,-14.0716 q -0.381,0 -0.8636,0.9652 -0.4572,0.9398 -0.889,2.6416 -0.4064,1.6764 -0.6858,3.7338 1.4986,-1.2954 2.2352,-2.8956 0.762,-1.6256 0.762,-2.9464 0,-1.4986 -0.5588,-1.4986 z"
             style="font-family:Pacifico;-inkscape-font-specification:Pacifico"
             id="path1133" />
          <path
             d="m 391.41446,213.72543 q -1.3208,0 -2.032,-0.6096 -0.6858,-0.6096 -0.6858,-1.3716 0,-0.6604 0.4826,-1.143 0.4826,-0.4826 1.4224,-0.4826 0.3302,0 0.762,0.0762 0.4572,0.0508 0.6858,0.0762 -0.0254,-0.6604 -0.3048,-1.2446 -0.254,-0.5842 -0.6604,-1.1176 -0.4064,-0.5588 -0.762,-0.9652 -0.7874,1.4986 -1.5748,2.4892 -0.762,0.9906 -1.6764,1.8796 -0.4572,0.4572 -0.9652,0.4572 -0.4064,0 -0.6604,-0.2794 -0.254,-0.3048 -0.254,-0.7366 0,-0.508 0.3556,-0.9398 l 0.3302,-0.4064 q 1.397,-1.7272 2.1082,-2.8448 0.4572,-0.7366 0.9144,-1.7526 0.4826,-1.016 1.2446,-2.7686 0.4826,-1.1176 2.0066,-1.1176 0.7112,0 0.9906,0.127 0.2794,0.127 0.2794,0.4064 0,0.1524 -0.1016,0.4826 -0.1016,0.3302 -0.2794,0.6604 -0.4572,0.9144 -0.4572,1.5494 0,0.381 0.254,0.8382 0.2794,0.4572 0.8382,1.143 0.8128,1.0668 1.2192,1.8288 0.4318,0.7366 0.4318,1.6256 0,1.0668 -0.508,2.032 -0.4826,0.9398 -1.3716,1.524 -0.889,0.5842 -2.032,0.5842 z"
             style="font-family:Pacifico;-inkscape-font-specification:Pacifico"
             id="path1135" />
        </g>
        <g
           aria-label="Nuits de la lecture"
           id="text11754"
           style="font-size:25.4px;line-height:1.25;letter-spacing:0px;word-spacing:0px;stroke-width:0.264583"
           transform="matrix(3.0634285,0,0,3.0535225,-20.074892,-184.37)">
          <path
             d="m 16.662577,116.63645 q -0.9398,0 -1.3462,-0.4064 -0.4064,-0.4318 -0.4064,-1.6002 0,-0.7874 0.1524,-1.905 0.1524,-1.1176 0.5334,-3.3782 0.0508,-0.3048 0.4064,-2.4638 0.3556,-2.1844 0.635,-4.572 0.254,-2.032 0.254,-3.047997 0,-1.143 -0.8382,-1.143 -0.635,0 -1.6002,0.6858 -0.9398,0.6604 -2.032,2.133597 -0.3556,0.4826 -0.7874,0.4826 -0.3556,0 -0.635,-0.3302 -0.254,-0.3556 -0.254,-0.7874 0,-0.431797 0.1524,-0.812797 0.1524,-0.4064 0.5588,-0.9652 1.2446,-1.7018 2.7686,-2.6162 1.524,-0.9398 3.2004,-0.9398 1.397,0 2.0828,0.8636 0.7112,0.8636 0.7112,2.5146 0,1.4732 -0.4064,4.267197 1.27,-3.759197 3.2258,-5.689597 1.9558,-1.9558 4.5974,-1.9558 2.0828,0 3.1242,1.1938 1.0668,1.1684 1.0668,3.1496 0,1.117597 -0.3302,2.717797 l -1.5494,7.2644 q -0.254,1.27 -0.254,2.1844 0,1.0668 0.4826,1.6002 0.508,0.5334 1.397,0.5334 0.8382,0 1.6256,-0.5588 0.8128,-0.5588 1.905,-1.8542 0.3048,-0.3556 0.6858,-0.3556 0.3302,0 0.508,0.3048 0.2032,0.3048 0.2032,0.8382 0,0.9906 -0.4826,1.5748 -1.3208,1.6002 -2.6162,2.3368 -1.2954,0.7366 -2.7178,0.7366 -2.159,0 -3.3782,-1.27 -1.2192,-1.2954 -1.2192,-3.4544 0,-0.8382 0.127,-1.8288 0.1524,-0.9906 0.4826,-2.5146 l 1.016,-4.6482 q 0.0508,-0.2286 0.1778,-0.8128 0.127,-0.5842 0.2032,-1.0922 0.0762,-0.5334 0.0762,-1.041397 0,-0.8128 -0.4572,-1.2954 -0.4572,-0.4826 -1.2954,-0.4826 -1.524,0 -3.048,1.6256 -1.524,1.625597 -2.8194,5.257797 -1.2954,3.6068 -2.032,9.2456 -0.1778,1.2954 -0.5334,1.8034 -0.3302,0.508 -1.3208,0.508 z"
             style="font-family:Pacifico;-inkscape-font-specification:Pacifico"
             id="path32090" />
          <path
             d="m 37.033349,116.63645 q -1.143,0 -1.8796,-1.0414 -0.7112,-1.0668 -0.7112,-2.6416 0,-1.905 0.254,-3.4798 0.254,-1.6002 0.8382,-3.3782 0.254,-0.762 0.7112,-1.0922 0.4572,-0.3302 1.4478,-0.3302 0.5588,0 0.762,0.1778 0.2286,0.1778 0.2286,0.5334 0,0.2032 -0.2794,1.3716 -0.254,0.9398 -0.4064,1.7018 -0.508,2.667 -0.508,3.556 0,0.5334 0.127,0.762 0.127,0.2032 0.4064,0.2032 0.381,0 0.9398,-0.762 0.5842,-0.762 1.2192,-2.3114 0.6604,-1.5494 1.269999,-3.81 0.2032,-0.762 0.6096,-1.0922 0.4318,-0.3302 1.27,-0.3302 0.5842,0 0.8128,0.1524 0.2286,0.127 0.2286,0.508 0,0.635 -0.635,3.4798 -0.7112,3.2512 -0.7112,4.0132 0,0.4826 0.2032,0.762 0.2032,0.254 0.5334,0.254 0.508,0 1.1938,-0.6096 0.7112,-0.635 1.8796,-2.032 0.3048,-0.3556 0.6858,-0.3556 0.3302,0 0.508,0.3048 0.2032,0.3048 0.2032,0.8382 0,1.016 -0.4826,1.5748 -1.0922,1.3462 -2.3622,2.2098 -1.2446,0.8636 -2.8448,0.8636 -1.2192,0 -1.803399,-0.9398 -0.5588,-0.9398 -0.5588,-2.6416 -0.4318,1.7272 -1.2954,2.667 -0.8636,0.9144 -1.8542,0.9144 z"
             style="font-family:Pacifico;-inkscape-font-specification:Pacifico"
             id="path32092" />
          <path
             d="m 49.504747,102.99665 q -1.0668,0 -1.6002,-0.4826 -0.5334,-0.508 -0.5334,-1.397 0,-0.889 0.6858,-1.473197 0.7112,-0.6096 1.7526,-0.6096 0.9398,0 1.524,0.4572 0.5842,0.4572 0.5842,1.295397 0,1.016 -0.6604,1.6256 -0.6604,0.5842 -1.7526,0.5842 z m -0.2032,13.6398 q -1.651,0 -2.413,-1.1684 -0.7366,-1.1684 -0.7366,-3.0988 0,-1.143 0.2794,-2.921 0.3048,-1.8034 0.762,-3.3528 0.2286,-0.8128 0.6096,-1.1176 0.381,-0.3048 1.2192,-0.3048 1.2954,0 1.2954,0.8636 0,0.635 -0.4826,2.9464 -0.6096,2.794 -0.6096,3.7846 0,0.762 0.2032,1.1684 0.2032,0.4064 0.6858,0.4064 0.4572,0 1.143,-0.635 0.6858,-0.635 1.8288,-2.0066 0.3048,-0.3556 0.6858,-0.3556 0.3302,0 0.508,0.3048 0.2032,0.3048 0.2032,0.8382 0,1.016 -0.4826,1.5748 -2.5146,3.0734 -4.699,3.0734 z"
             style="font-family:Pacifico;-inkscape-font-specification:Pacifico"
             id="path32094" />
          <path
             d="m 63.754107,110.84525 q 0.3302,0 0.508,0.3048 0.2032,0.3048 0.2032,0.8382 0,1.016 -0.4826,1.5748 -1.0922,1.3462 -2.3876,2.2098 -1.2954,0.8636 -2.9718,0.8636 -5.1816,0 -5.1816,-7.2898 0,-1.1176 0.0762,-2.2606 h -0.9906 q -0.762,0 -1.0414,-0.2794 -0.254,-0.2794 -0.254,-0.889 0,-1.4224 1.143,-1.4224 h 1.4478 q 0.4318,-2.794 1.3208,-5.105397 0.889,-2.3114 2.1336,-3.683 1.27,-1.3716 2.7178,-1.3716 1.0668,0 1.6764,0.9398 0.6096,0.9398 0.6096,2.3622 0,3.936997 -3.302,6.857997 h 2.8448 q 0.4064,0 0.5842,0.1778 0.1778,0.1778 0.1778,0.6604 0,1.7526 -2.8702,1.7526 h -3.0988 q -0.0508,1.27 -0.0508,1.9812 0,2.6416 0.6096,3.7084 0.635,1.0668 1.9812,1.0668 1.0922,0 1.9304,-0.6604 0.8382,-0.6604 1.9812,-1.9812 0.3048,-0.3556 0.6858,-0.3556 z m -4.445,-14.071597 q -0.381,0 -0.8636,0.9652 -0.4572,0.9398 -0.889,2.641597 -0.4064,1.6764 -0.6858,3.7338 1.4986,-1.2954 2.2352,-2.8956 0.762,-1.625597 0.762,-2.946397 0,-1.4986 -0.5588,-1.4986 z"
             style="font-family:Pacifico;-inkscape-font-specification:Pacifico"
             id="path32096" />
          <path
             d="m 67.132296,117.19525 q -1.3208,0 -2.032,-0.6096 -0.6858,-0.6096 -0.6858,-1.3716 0,-0.6604 0.4826,-1.143 0.4826,-0.4826 1.4224,-0.4826 0.3302,0 0.762,0.0762 0.4572,0.0508 0.6858,0.0762 -0.0254,-0.6604 -0.3048,-1.2446 -0.254,-0.5842 -0.6604,-1.1176 -0.4064,-0.5588 -0.762,-0.9652 -0.7874,1.4986 -1.5748,2.4892 -0.762,0.9906 -1.6764,1.8796 -0.4572,0.4572 -0.9652,0.4572 -0.4064,0 -0.6604,-0.2794 -0.254,-0.3048 -0.254,-0.7366 0,-0.508 0.3556,-0.9398 l 0.3302,-0.4064 q 1.397,-1.7272 2.1082,-2.8448 0.4572,-0.7366 0.9144,-1.7526 0.4826,-1.016 1.2446,-2.7686 0.4826,-1.1176 2.0066,-1.1176 0.7112,0 0.9906,0.127 0.2794,0.127 0.2794,0.4064 0,0.1524 -0.1016,0.4826 -0.1016,0.3302 -0.2794,0.6604 -0.4572,0.9144 -0.4572,1.5494 0,0.381 0.254,0.8382 0.2794,0.4572 0.8382,1.143 0.8128,1.0668 1.2192,1.8288 0.4318,0.7366 0.4318,1.6256 0,1.0668 -0.508,2.032 -0.4826,0.9398 -1.3716,1.524 -0.889,0.5842 -2.032,0.5842 z"
             style="font-family:Pacifico;-inkscape-font-specification:Pacifico"
             id="path32098" />
          <path
             d="m 93.573655,110.84525 q 0.3302,0 0.508,0.3048 0.2032,0.3048 0.2032,0.8382 0,1.016 -0.4826,1.5748 -1.0414,1.27 -2.286,2.1844 -1.2446,0.889 -2.4638,0.889 -1.9304,0 -2.946399,-2.2606 -1.0668,1.3462 -1.8796,1.8034 -0.7874,0.4572 -1.8542,0.4572 -1.5494,0 -2.5654,-1.143 -0.9906,-1.1684 -0.9906,-3.0226 0,-2.032 0.8636,-3.7592 0.8636,-1.7526 2.3622,-2.8448 1.524,-1.1176 3.4036,-1.3208 0.4826,-4.927597 1.828799,-8.407397 1.3716,-3.5052 3.5814,-3.5052 1.0922,0 1.8034,0.9906 0.7366,0.9906 0.7366,2.9972 0,2.8448 -1.397,6.654797 -1.397,3.81 -3.7338,7.8232 0.1016,1.4732 0.4318,2.1082 0.3556,0.635 0.889,0.635 0.6858,0 1.397,-0.6096 0.7112,-0.6096 1.905,-2.032 0.3048,-0.3556 0.6858,-0.3556 z m -2.9972,-15.722597 q -0.4826,0 -0.9652,1.7272 -0.4826,1.7018 -0.8382,4.470397 -0.3302,2.7686 -0.4826,5.7912 2.8448,-6.1976 2.8448,-9.956797 0,-0.9652 -0.1778,-1.4986 -0.1524,-0.5334 -0.381,-0.5334 z m -7.315199,18.948397 q 0.4826,0 0.9652,-0.381 0.4826,-0.4064 1.2192,-1.4732 -0.254,-1.3716 -0.254,-3.0734 0,-0.6096 0.0508,-1.9812 -1.397,0.4318 -2.3368,1.8796 -0.9144,1.4224 -0.9144,3.175 0,1.8542 1.27,1.8542 z"
             style="font-family:Pacifico;-inkscape-font-specification:Pacifico"
             id="path32100" />
          <path
             d="m 101.32064,111.60725 q 0.3302,0 0.508,0.3048 0.2032,0.3048 0.2032,0.8382 0,0.9144 -0.4318,1.5748 -0.7112,1.0922 -1.879598,1.7018 -1.143,0.6096 -2.7432,0.6096 -2.4384,0 -3.7846,-1.4478 -1.3462,-1.4732 -1.3462,-3.9624 0,-1.7526 0.7366,-3.2512 0.7366,-1.524 2.032,-2.413 1.3208,-0.889 2.9718,-0.889 1.4732,0 2.3622,0.889 0.888998,0.8636 0.888998,2.3622 0,1.7526 -1.269998,3.0226 -1.2446,1.2446 -4.2672,1.9812 0.6096,1.1684 2.0574,1.1684 1.0414,0 1.7018,-0.4826 0.6858,-0.4826 1.574798,-1.6256 0.3048,-0.381 0.6858,-0.381 z m -4.165598,-4.445 q -0.9398,0 -1.6002,1.0922 -0.635,1.0922 -0.635,2.6416 v 0.0508 q 1.4986,-0.3556 2.3622,-1.0668 0.8636,-0.7112 0.8636,-1.651 0,-0.4826 -0.2794,-0.762 -0.254,-0.3048 -0.7112,-0.3048 z"
             style="font-family:Pacifico;-inkscape-font-specification:Pacifico"
             id="path32102" />
          <path
             d="m 119.02441,110.84525 q 0.3302,0 0.508,0.3048 0.2032,0.3048 0.2032,0.8382 0,1.016 -0.4826,1.5748 -1.0922,1.3462 -2.3876,2.2098 -1.27,0.8636 -2.8956,0.8636 -2.2352,0 -3.3274,-2.032 -1.0668,-2.032 -1.0668,-5.2578 0,-3.0988 0.7874,-7.0612 0.8128,-3.962397 2.3622,-6.807197 1.5748,-2.8448 3.7338,-2.8448 1.2192,0 1.905,1.143 0.7112,1.1176 0.7112,3.2258 0,3.022597 -1.6764,7.010397 -1.6764,3.9878 -4.5466,7.8994 0.1778,1.0414 0.5842,1.4986 0.4064,0.4318 1.0668,0.4318 1.0414,0 1.8288,-0.5842 0.7874,-0.6096 2.0066,-2.0574 0.3048,-0.3556 0.6858,-0.3556 z m -3.1242,-15.697197 q -0.5842,0 -1.3208,2.1082 -0.7366,2.1082 -1.2954,5.232397 -0.5588,3.1242 -0.6096,5.9944 1.8034,-2.9718 2.8702,-5.9436 1.0668,-2.997197 1.0668,-5.460997 0,-1.9304 -0.7112,-1.9304 z"
             style="font-family:Pacifico;-inkscape-font-specification:Pacifico"
             id="path32104" />
          <path
             d="m 120.34516,116.63645 q -1.4478,0 -2.3622,-1.143 -0.889,-1.143 -0.889,-2.9972 0,-2.032 0.9398,-3.8354 0.9398,-1.8288 2.4892,-2.921 1.5748,-1.1176 3.3274,-1.1176 0.5588,0 0.7366,0.2286 0.2032,0.2032 0.3302,0.762 0.4826,-0.1016 1.0668,-0.1016 0.6096,0 0.9398,0.3048 0.3302,0.3048 0.3302,0.8636 0,0.5842 -0.254,2.032 -0.2794,1.5494 -0.4318,2.9718 -0.1524,1.397 -0.1524,3.1496 0,0.9652 -0.4064,1.397 -0.381,0.4064 -1.27,0.4064 -0.8636,0 -1.2954,-0.4064 -0.4064,-0.4318 -0.4064,-1.3716 l 0.0254,-0.4064 q -0.7874,2.1844 -2.7178,2.1844 z m 0.9906,-2.5654 q 0.7112,0 1.2954,-0.9906 0.5842,-0.9906 1.0414,-3.5306 l 0.4826,-2.5654 q -1.0414,0.0254 -1.9304,0.8128 -0.889,0.762 -1.4224,2.032 -0.5334,1.27 -0.5334,2.6924 0,0.762 0.2794,1.1684 0.3048,0.381 0.7874,0.381 z"
             style="font-family:Pacifico;-inkscape-font-specification:Pacifico"
             id="path32106" />
          <path
             d="m 145.4149,110.84525 q 0.3302,0 0.508,0.3048 0.2032,0.3048 0.2032,0.8382 0,1.016 -0.4826,1.5748 -1.0922,1.3462 -2.3876,2.2098 -1.27,0.8636 -2.8956,0.8636 -2.2352,0 -3.3274,-2.032 -1.0668,-2.032 -1.0668,-5.2578 0,-3.0988 0.7874,-7.0612 0.8128,-3.962397 2.3622,-6.807197 1.5748,-2.8448 3.7338,-2.8448 1.2192,0 1.905,1.143 0.7112,1.1176 0.7112,3.2258 0,3.022597 -1.6764,7.010397 -1.6764,3.9878 -4.5466,7.8994 0.1778,1.0414 0.5842,1.4986 0.4064,0.4318 1.0668,0.4318 1.0414,0 1.8288,-0.5842 0.7874,-0.6096 2.0066,-2.0574 0.3048,-0.3556 0.6858,-0.3556 z m -3.1242,-15.697197 q -0.5842,0 -1.3208,2.1082 -0.7366,2.1082 -1.2954,5.232397 -0.5588,3.1242 -0.6096,5.9944 1.8034,-2.9718 2.8702,-5.9436 1.0668,-2.997197 1.0668,-5.460997 0,-1.9304 -0.7112,-1.9304 z"
             style="font-family:Pacifico;-inkscape-font-specification:Pacifico"
             id="path32108" />
          <path
             d="m 155.39706,110.84525 q 0.3302,0 0.508,0.3048 0.2032,0.3048 0.2032,0.8382 0,1.016 -0.4826,1.5748 -0.9398,1.143 -2.667,2.1082 -1.7018,0.9652 -3.6576,0.9652 -2.667,0 -4.1402,-1.4478 -1.4732,-1.4478 -1.4732,-3.9624 0,-1.7526 0.7366,-3.2512 0.7366,-1.524 2.032,-2.413 1.3208,-0.889 2.9718,-0.889 1.4732,0 2.3622,0.889 0.889,0.8636 0.889,2.3622 0,1.7526 -1.27,3.0226 -1.2446,1.2446 -4.2418,1.9812 0.635,1.1684 2.413,1.1684 1.143,0 2.5908,-0.7874 1.4732,-0.8128 2.54,-2.1082 0.3048,-0.3556 0.6858,-0.3556 z m -6.4008,-3.683 q -0.9398,0 -1.6002,1.0922 -0.635,1.0922 -0.635,2.6416 v 0.0508 q 1.4986,-0.3556 2.3622,-1.0668 0.8636,-0.7112 0.8636,-1.651 0,-0.4826 -0.2794,-0.762 -0.254,-0.3048 -0.7112,-0.3048 z"
             style="font-family:Pacifico;-inkscape-font-specification:Pacifico"
             id="path32110" />
          <path
             d="m 158.90225,116.63645 q -2.4892,0 -3.8862,-1.397 -1.3716,-1.4224 -1.3716,-3.7338 0,-2.0574 0.8128,-3.6068 0.8128,-1.5494 2.1082,-2.3876 1.2954,-0.8382 2.7178,-0.8382 1.397,0 2.159,0.8382 0.7874,0.8128 0.7874,2.1082 0,1.0668 -0.4826,1.8034 -0.4572,0.7366 -1.2192,0.7366 -0.4826,0 -0.7874,-0.2286 -0.2794,-0.2286 -0.2794,-0.635 0,-0.1778 0.0508,-0.4064 0.0508,-0.2286 0.0762,-0.3302 0.127,-0.381 0.127,-0.7112 0,-0.3302 -0.1778,-0.508 -0.1524,-0.1778 -0.4572,-0.1778 -0.5842,0 -1.0922,0.5334 -0.508,0.508 -0.8128,1.397 -0.3048,0.889 -0.3048,1.9558 0,2.9464 2.5654,2.9464 1.0414,0 2.2352,-0.6858 1.2192,-0.7112 2.3876,-2.1082 0.3048,-0.3556 0.6858,-0.3556 0.3302,0 0.508,0.3048 0.2032,0.3048 0.2032,0.8382 0,0.9652 -0.4826,1.5748 -1.1938,1.4732 -2.8702,2.286 -1.651,0.7874 -3.2004,0.7874 z"
             style="font-family:Pacifico;-inkscape-font-specification:Pacifico"
             id="path32112" />
          <path
             d="m 174.85337,110.84525 q 0.3302,0 0.508,0.3048 0.2032,0.3048 0.2032,0.8382 0,1.016 -0.4826,1.5748 -1.0922,1.3462 -2.3876,2.2098 -1.2954,0.8636 -2.9718,0.8636 -5.1816,0 -5.1816,-7.2898 0,-1.1176 0.0762,-2.2606 h -0.9906 q -0.762,0 -1.0414,-0.2794 -0.254,-0.2794 -0.254,-0.889 0,-1.4224 1.143,-1.4224 h 1.4478 q 0.4318,-2.794 1.3208,-5.105397 0.889,-2.3114 2.1336,-3.683 1.27,-1.3716 2.7178,-1.3716 1.0668,0 1.6764,0.9398 0.6096,0.9398 0.6096,2.3622 0,3.936997 -3.302,6.857997 h 2.8448 q 0.4064,0 0.5842,0.1778 0.1778,0.1778 0.1778,0.6604 0,1.7526 -2.8702,1.7526 h -3.0988 q -0.0508,1.27 -0.0508,1.9812 0,2.6416 0.6096,3.7084 0.635,1.0668 1.9812,1.0668 1.0922,0 1.9304,-0.6604 0.8382,-0.6604 1.9812,-1.9812 0.3048,-0.3556 0.6858,-0.3556 z m -4.445,-14.071597 q -0.381,0 -0.8636,0.9652 -0.4572,0.9398 -0.889,2.641597 -0.4064,1.6764 -0.6858,3.7338 1.4986,-1.2954 2.2352,-2.8956 0.762,-1.625597 0.762,-2.946397 0,-1.4986 -0.5588,-1.4986 z"
             style="font-family:Pacifico;-inkscape-font-specification:Pacifico"
             id="path32114" />
          <path
             d="m 176.09797,116.63645 q -1.143,0 -1.8796,-1.0414 -0.7112,-1.0668 -0.7112,-2.6416 0,-1.905 0.254,-3.4798 0.254,-1.6002 0.8382,-3.3782 0.254,-0.762 0.7112,-1.0922 0.4572,-0.3302 1.4478,-0.3302 0.5588,0 0.762,0.1778 0.2286,0.1778 0.2286,0.5334 0,0.2032 -0.2794,1.3716 -0.254,0.9398 -0.4064,1.7018 -0.508,2.667 -0.508,3.556 0,0.5334 0.127,0.762 0.127,0.2032 0.4064,0.2032 0.381,0 0.9398,-0.762 0.5842,-0.762 1.2192,-2.3114 0.6604,-1.5494 1.27,-3.81 0.2032,-0.762 0.6096,-1.0922 0.4318,-0.3302 1.27,-0.3302 0.5842,0 0.8128,0.1524 0.2286,0.127 0.2286,0.508 0,0.635 -0.635,3.4798 -0.7112,3.2512 -0.7112,4.0132 0,0.4826 0.2032,0.762 0.2032,0.254 0.5334,0.254 0.508,0 1.1938,-0.6096 0.7112,-0.635 1.8796,-2.032 0.3048,-0.3556 0.6858,-0.3556 0.3302,0 0.508,0.3048 0.2032,0.3048 0.2032,0.8382 0,1.016 -0.4826,1.5748 -1.0922,1.3462 -2.3622,2.2098 -1.2446,0.8636 -2.8448,0.8636 -1.2192,0 -1.8034,-0.9398 -0.5588,-0.9398 -0.5588,-2.6416 -0.4318,1.7272 -1.2954,2.667 -0.8636,0.9144 -1.8542,0.9144 z"
             style="font-family:Pacifico;-inkscape-font-specification:Pacifico"
             id="path32116" />
          <path
             d="m 187.04537,116.63645 q -0.9652,0 -1.3716,-1.016 -0.381,-1.016 -0.381,-3.2512 0,-3.302 0.9398,-6.2738 0.2286,-0.7366 0.7366,-1.0668 0.5334,-0.3556 1.4732,-0.3556 0.508,0 0.7112,0.127 0.2032,0.127 0.2032,0.4826 0,0.4064 -0.381,1.8288 -0.254,1.016 -0.4064,1.778 -0.1524,0.762 -0.254,1.8796 0.8382,-2.1844 1.8796,-3.556 1.0414,-1.3716 2.032,-1.9558 1.016,-0.5842 1.8542,-0.5842 1.651,0 1.651,1.651 0,0.3302 -0.2286,1.6002 -0.2032,1.016 -0.2032,1.27 0,0.889 0.635,0.889 0.7112,0 1.8288,-1.1176 0.3302,-0.3302 0.6858,-0.3302 0.3302,0 0.508,0.3048 0.2032,0.2794 0.2032,0.762 0,0.9398 -0.508,1.4732 -0.7112,0.7366 -1.6764,1.27 -0.9398,0.508 -2.0066,0.508 -1.3462,0 -2.0574,-0.6858 -0.6858,-0.6858 -0.6858,-1.8542 0,-0.381 0.0762,-0.762 0.0508,-0.508 0.0508,-0.6858 0,-0.4064 -0.2794,-0.4064 -0.381,0 -1.016,0.8636 -0.6096,0.8382 -1.2192,2.2352 -0.6096,1.397 -0.9906,2.9464 -0.2794,1.1938 -0.6604,1.6256 -0.3556,0.4064 -1.143,0.4064 z"
             style="font-family:Pacifico;-inkscape-font-specification:Pacifico"
             id="path32118" />
          <path
             d="m 205.89216,111.60725 q 0.3302,0 0.508,0.3048 0.2032,0.3048 0.2032,0.8382 0,0.9144 -0.4318,1.5748 -0.7112,1.0922 -1.8796,1.7018 -1.143,0.6096 -2.7432,0.6096 -2.4384,0 -3.7846,-1.4478 -1.3462,-1.4732 -1.3462,-3.9624 0,-1.7526 0.7366,-3.2512 0.7366,-1.524 2.032,-2.413 1.3208,-0.889 2.9718,-0.889 1.4732,0 2.3622,0.889 0.889,0.8636 0.889,2.3622 0,1.7526 -1.27,3.0226 -1.2446,1.2446 -4.2672,1.9812 0.6096,1.1684 2.0574,1.1684 1.0414,0 1.7018,-0.4826 0.6858,-0.4826 1.5748,-1.6256 0.3048,-0.381 0.6858,-0.381 z m -4.1656,-4.445 q -0.9398,0 -1.6002,1.0922 -0.635,1.0922 -0.635,2.6416 v 0.0508 q 1.4986,-0.3556 2.3622,-1.0668 0.8636,-0.7112 0.8636,-1.651 0,-0.4826 -0.2794,-0.762 -0.254,-0.3048 -0.7112,-0.3048 z"
             style="font-family:Pacifico;-inkscape-font-specification:Pacifico"
             id="path32120" />
        </g>
      </g>
      <g
         aria-label="Lycée Français International de Tokyo"
         id="text952"
         style="font-size:22.402px;line-height:1.25;letter-spacing:0px;word-spacing:0px;fill:#2777cb;stroke-width:0.56005">
        <path
           d="m 151.09737,81.756063 q 0.29123,0 0.44804,0.268824 0.17922,0.268824 0.17922,0.739266 0,0.873678 -0.42564,1.388924 -1.25451,1.500934 -2.44182,2.105788 -1.1649,0.604854 -2.82265,0.604854 -1.1649,0 -2.15059,-0.291226 -0.98569,-0.291226 -2.39702,-0.873678 -1.27691,-0.56005 -2.46422,-0.918482 -1.1425,2.083386 -3.4275,2.083386 -1.25451,0 -1.99378,-0.56005 -0.76167,-0.582452 -0.76167,-1.478532 0,-1.097698 1.0529,-1.814562 1.05289,-0.739266 2.80025,-0.739266 h 0.29122 l 0.40324,-6.518982 q 0.13441,-2.2402 0.80647,-3.69633 0.67206,-1.45613 1.85937,-2.486622 1.03049,-0.89608 2.35221,-1.34412 1.32171,-0.470442 2.80025,-0.470442 2.41941,0 3.71873,1.254512 1.29931,1.254512 1.29931,3.270692 0,1.366522 -0.49284,2.217798 -0.49284,0.828874 -1.36652,0.828874 -0.62726,0 -0.98569,-0.291226 -0.35843,-0.313628 -0.35843,-0.873678 0,-0.201618 0.0896,-0.739266 0.13441,-0.627256 0.13441,-1.1201 0,-0.940884 -0.56005,-1.478532 -0.53765,-0.56005 -1.65775,-0.56005 -1.97138,0 -3.04667,1.299316 -1.0753,1.276914 -1.36652,4.03236 l -0.51525,5.085254 q -0.11201,1.075296 -0.29123,1.859366 1.43373,0.246422 3.58432,0.78407 1.25452,0.313628 1.92658,0.44804 0.67206,0.134412 1.1873,0.134412 1.29932,0 2.2178,-0.425638 0.94088,-0.44804 1.76976,-1.411326 0.26882,-0.313628 0.60485,-0.313628 z"
           style="font-family:Pacifico;-inkscape-font-specification:Pacifico"
           id="path894" />
        <path
           d="m 161.3799,81.800867 q 0.29122,0 0.44804,0.291226 0.17921,0.268824 0.17921,0.694462 0,0.515246 -0.15681,0.806472 -0.15681,0.291226 -0.49284,0.515246 l -4.30119,2.889858 q -0.85127,4.637214 -2.2402,7.28065 -1.36652,2.665838 -3.49471,2.665838 -1.1425,0 -1.85937,-0.716864 -0.71686,-0.694462 -0.71686,-1.836964 0,-1.052894 0.47044,-2.150592 0.49285,-1.097698 1.79216,-2.531426 1.32172,-1.411326 3.71873,-3.24829 l 0.0672,-0.515246 q 0.15681,-0.828874 0.35843,-2.374612 -0.44804,1.612944 -1.25451,2.46422 -0.80647,0.828874 -1.70255,0.828874 -1.00809,0 -1.65775,-0.918482 -0.62726,-0.940884 -0.62726,-2.329808 0,-1.68015 0.22402,-3.069074 0.22402,-1.411326 0.73927,-2.979466 0.22402,-0.67206 0.62726,-0.963286 0.40323,-0.291226 1.27691,-0.291226 0.49284,0 0.67206,0.156814 0.20162,0.156814 0.20162,0.470442 0,0.179216 -0.24642,1.209708 -0.22402,0.828874 -0.35844,1.500934 -0.17921,0.918482 -0.31362,1.769758 -0.13442,0.828874 -0.13442,1.366522 0,0.851276 0.47045,0.851276 0.33603,0 0.82887,-0.67206 0.51525,-0.67206 1.0753,-2.038582 0.58245,-1.366522 1.1201,-3.3603 0.17921,-0.67206 0.53764,-0.963286 0.38084,-0.291226 1.1201,-0.291226 0.51525,0 0.71687,0.134412 0.20162,0.134412 0.20162,0.44804 0,0.56005 -0.58246,3.853144 l -0.58245,3.606722 q 1.72496,-1.299316 3.3603,-2.374612 0.29123,-0.179216 0.51525,-0.179216 z m -9.81208,12.970758 q 0.56005,0 1.25451,-1.299316 0.69447,-1.299316 1.38893,-4.323586 -1.72496,1.45613 -2.50903,2.643436 -0.76166,1.209708 -0.76166,2.105788 0,0.380834 0.13441,0.627256 0.15681,0.246422 0.49284,0.246422 z"
           style="font-family:Pacifico;-inkscape-font-specification:Pacifico"
           id="path896" />
        <path
           d="m 164.91942,86.863719 q -2.1954,0 -3.42751,-1.23211 -1.20971,-1.254512 -1.20971,-3.293094 0,-1.814562 0.71687,-3.181084 0.71686,-1.366522 1.85936,-2.105788 1.1425,-0.739266 2.39702,-0.739266 1.23211,0 1.90417,0.739266 0.69446,0.716864 0.69446,1.859366 0,0.940884 -0.42564,1.590542 -0.40324,0.649658 -1.0753,0.649658 -0.42563,0 -0.69446,-0.201618 -0.24642,-0.201618 -0.24642,-0.56005 0,-0.156814 0.0448,-0.358432 0.0448,-0.201618 0.0672,-0.291226 0.11201,-0.33603 0.11201,-0.627256 0,-0.291226 -0.15681,-0.44804 -0.13442,-0.156814 -0.40324,-0.156814 -0.51525,0 -0.96329,0.470442 -0.44804,0.44804 -0.71686,1.23211 -0.26882,0.78407 -0.26882,1.724954 0,2.598632 2.2626,2.598632 0.91848,0 1.97137,-0.604854 1.0753,-0.627256 2.10579,-1.859366 0.26883,-0.313628 0.60486,-0.313628 0.29122,0 0.44804,0.268824 0.17921,0.268824 0.17921,0.739266 0,0.851276 -0.42564,1.388924 -1.05289,1.299316 -2.53142,2.01618 -1.45613,0.694462 -2.82265,0.694462 z"
           style="font-family:Pacifico;-inkscape-font-specification:Pacifico"
           id="path898" />
        <path
           d="m 178.87586,81.756063 q 0.29123,0 0.44804,0.268824 0.17922,0.268824 0.17922,0.739266 0,0.89608 -0.42564,1.388924 -0.82888,1.00809 -2.35221,1.859366 -1.50094,0.851276 -3.22589,0.851276 -2.35221,0 -3.65153,-1.276914 -1.29931,-1.276914 -1.29931,-3.494712 0,-1.545738 0.64966,-2.867456 0.64965,-1.34412 1.79216,-2.12819 1.1649,-0.78407 2.62103,-0.78407 1.29932,0 2.08339,0.78407 0.78407,0.761668 0.78407,2.083386 0,1.545738 -1.1201,2.665838 -1.0977,1.097698 -3.74114,1.747356 0.56005,1.030492 2.12819,1.030492 1.00809,0 2.28501,-0.694462 1.29931,-0.716864 2.2402,-1.859366 0.26882,-0.313628 0.60485,-0.313628 z m -5.6453,-3.24829 q -0.82888,0 -1.41133,0.963286 -0.56005,0.963286 -0.56005,2.329808 v 0.0448 q 1.32172,-0.313628 2.08339,-0.940884 0.76166,-0.627256 0.76166,-1.45613 0,-0.425638 -0.24642,-0.67206 -0.22402,-0.268824 -0.62725,-0.268824 z m 0.58245,-3.673928 q -0.31363,0 -0.56005,-0.22402 -0.22402,-0.246422 -0.22402,-0.582452 0,-0.156814 0.11201,-0.425638 l 2.08338,-4.659616 q 0.20162,-0.44804 0.51525,-0.649658 0.33603,-0.22402 0.73927,-0.22402 0.56005,0 0.98568,0.403236 0.44804,0.403236 0.44804,1.00809 0,0.627256 -0.49284,1.254512 l -2.88986,3.718732 q -0.29122,0.380834 -0.71686,0.380834 z"
           style="font-family:Pacifico;-inkscape-font-specification:Pacifico"
           id="path900" />
        <path
           d="m 185.70846,82.428123 q 0.29123,0 0.44804,0.268824 0.17922,0.268824 0.17922,0.739266 0,0.806472 -0.38084,1.388924 -0.62725,0.963286 -1.65774,1.500934 -1.00809,0.537648 -2.41942,0.537648 -2.15059,0 -3.3379,-1.276914 -1.1873,-1.299316 -1.1873,-3.494712 0,-1.545738 0.64965,-2.867456 0.64966,-1.34412 1.79216,-2.12819 1.16491,-0.78407 2.62104,-0.78407 1.29931,0 2.08338,0.78407 0.78407,0.761668 0.78407,2.083386 0,1.545738 -1.1201,2.665838 -1.09769,1.097698 -3.76353,1.747356 0.53765,1.030492 1.81456,1.030492 0.91848,0 1.50093,-0.425638 0.60486,-0.425638 1.38893,-1.433728 0.26882,-0.33603 0.60485,-0.33603 z m -3.67393,-3.92035 q -0.82887,0 -1.41132,0.963286 -0.56005,0.963286 -0.56005,2.329808 v 0.0448 q 1.32172,-0.313628 2.08338,-0.940884 0.76167,-0.627256 0.76167,-1.45613 0,-0.425638 -0.24642,-0.67206 -0.22402,-0.268824 -0.62726,-0.268824 z"
           style="font-family:Pacifico;-inkscape-font-specification:Pacifico"
           id="path902" />
        <path
           d="m 211.62755,68.180451 q 0.62726,0.08961 0.85128,0.380834 0.24642,0.291226 0.24642,0.761668 0,1.545738 -1.65775,1.433728 l -0.78407,-0.06721 q -1.32172,-0.11201 -2.64343,-0.179216 -1.29932,-0.06721 -2.73305,-0.06721 h -1.00809 q -0.26882,3.315496 -0.56005,6.04854 l 3.85315,-0.06721 q 0.82887,0 1.09769,0.291226 0.29123,0.291226 0.29123,0.78407 0,0.761668 -0.44804,1.209708 -0.44804,0.425638 -1.27691,0.425638 h -3.83075 l -0.13441,0.963286 q -0.47044,3.69633 -2.01618,5.26447 -1.52333,1.56814 -4.21157,1.56814 -1.52334,0 -2.80025,-0.649658 -1.27692,-0.67206 -1.88177,-1.612944 -0.24642,-0.380834 -0.24642,-0.918482 0,-0.537648 0.24642,-0.940884 0.26882,-0.403236 0.64966,-0.403236 0.26882,0 0.51524,0.179216 0.26883,0.179216 0.67206,0.694462 1.0753,1.411326 2.66584,1.411326 1.27691,0 2.12819,-1.030492 0.87368,-1.052894 1.1201,-3.293094 l 0.13441,-1.23211 h -1.07529 q -0.51525,0 -0.89608,-0.291226 -0.35844,-0.291226 -0.35844,-0.828874 0,-0.694462 0.35844,-1.052894 0.35843,-0.380834 1.05289,-0.380834 0.62726,0 1.23211,-0.0224 0.26882,-2.46422 0.58245,-5.981334 -2.41941,0.22402 -3.4051,0.78407 -0.98569,0.56005 -0.98569,1.657748 0,0.761668 0.44804,1.45613 0.13441,0.201618 0.13441,0.403236 0,0.403236 -0.44804,0.716864 -0.44804,0.291226 -1.00809,0.291226 -0.60485,0 -1.03049,-0.358432 -0.26882,-0.22402 -0.51525,-0.918482 -0.24642,-0.694462 -0.24642,-1.545738 0,-2.777848 2.84506,-4.03236 2.86745,-1.254512 8.35594,-1.254512 3.80834,0 6.7206,0.403236 z"
           style="font-family:Pacifico;-inkscape-font-specification:Pacifico"
           id="path904" />
        <path
           d="m 210.37304,86.863719 q -0.85128,0 -1.20971,-0.89608 -0.33603,-0.89608 -0.33603,-2.867456 0,-2.91226 0.82887,-5.533294 0.20162,-0.649658 0.64966,-0.940884 0.47044,-0.313628 1.29932,-0.313628 0.44804,0 0.62725,0.11201 0.17922,0.11201 0.17922,0.425638 0,0.358432 -0.33603,1.612944 -0.22402,0.89608 -0.35843,1.56814 -0.13441,0.67206 -0.22402,1.657748 0.73926,-1.926572 1.65775,-3.13628 0.91848,-1.209708 1.79216,-1.724954 0.89608,-0.515246 1.63534,-0.515246 1.45613,0 1.45613,1.45613 0,0.291226 -0.20162,1.411326 -0.17921,0.89608 -0.17921,1.1201 0,0.78407 0.56005,0.78407 0.62725,0 1.61294,-0.985688 0.29123,-0.291226 0.60486,-0.291226 0.29122,0 0.44804,0.268824 0.17921,0.246422 0.17921,0.67206 0,0.828874 -0.44804,1.299316 -0.62725,0.649658 -1.47853,1.1201 -0.82887,0.44804 -1.76976,0.44804 -1.1873,0 -1.81456,-0.604854 -0.60485,-0.604854 -0.60485,-1.635346 0,-0.33603 0.0672,-0.67206 0.0448,-0.44804 0.0448,-0.604854 0,-0.358432 -0.24643,-0.358432 -0.33603,0 -0.89608,0.761668 -0.53764,0.739266 -1.07529,1.971376 -0.53765,1.23211 -0.87368,2.598632 -0.24642,1.052894 -0.58245,1.433728 -0.31363,0.358432 -1.00809,0.358432 z"
           style="font-family:Pacifico;-inkscape-font-specification:Pacifico"
           id="path906" />
        <path
           d="m 221.73085,86.863719 q -1.38892,0 -2.2178,-1.00809 -0.82887,-1.00809 -0.82887,-2.643436 0,-1.79216 0.82887,-3.382702 0.82888,-1.612944 2.1954,-2.57623 1.38892,-0.985688 2.93466,-0.985688 0.49284,0 0.64966,0.201618 0.17921,0.179216 0.29122,0.67206 0.47045,-0.08961 0.98569,-0.08961 1.0977,0 1.0977,0.78407 0,0.470442 -0.33603,2.2402 -0.51525,2.57623 -0.51525,3.58432 0,0.33603 0.15682,0.537648 0.17921,0.201618 0.44804,0.201618 0.42564,0 1.03049,-0.537648 0.60485,-0.56005 1.63535,-1.79216 0.26882,-0.313628 0.60485,-0.313628 0.29123,0 0.44804,0.268824 0.17922,0.268824 0.17922,0.739266 0,0.89608 -0.42564,1.388924 -0.91848,1.142502 -1.94898,1.926572 -1.03049,0.78407 -1.99377,0.78407 -0.73927,0 -1.36653,-0.492844 -0.60485,-0.515246 -0.91848,-1.388924 -1.1649,1.881768 -2.93466,1.881768 z m 0.80647,-2.262602 q 0.49285,0 0.94089,-0.582452 0.44804,-0.582452 0.64965,-1.545738 l 0.82888,-4.121968 q -0.94089,0.0224 -1.74736,0.716864 -0.78407,0.67206 -1.25451,1.79216 -0.47044,1.1201 -0.47044,2.374612 0,0.694462 0.26882,1.030492 0.29123,0.33603 0.78407,0.33603 z"
           style="font-family:Pacifico;-inkscape-font-specification:Pacifico"
           id="path908" />
        <path
           d="m 231.09487,86.863719 q -0.85128,0 -1.20971,-0.89608 -0.33603,-0.89608 -0.33603,-2.867456 0,-2.91226 0.82888,-5.533294 0.20161,-0.649658 0.64965,-0.940884 0.47045,-0.313628 1.29932,-0.313628 0.44804,0 0.62726,0.11201 0.17921,0.11201 0.17921,0.425638 0,0.358432 -0.33603,1.612944 -0.22402,0.89608 -0.35843,1.56814 -0.13441,0.67206 -0.22402,1.657748 0.73927,-1.926572 1.65775,-3.13628 0.91848,-1.209708 1.79216,-1.724954 0.89608,-0.515246 1.63534,-0.515246 1.45613,0 1.45613,1.45613 0,0.873678 -0.49284,3.158682 -0.42564,1.948974 -0.42564,2.57623 0,0.89608 0.64966,0.89608 0.44804,0 1.05289,-0.537648 0.62726,-0.56005 1.65775,-1.79216 0.26883,-0.313628 0.60486,-0.313628 0.29122,0 0.44804,0.268824 0.17921,0.268824 0.17921,0.739266 0,0.89608 -0.42564,1.388924 -0.96328,1.187306 -2.08338,1.948974 -1.0977,0.761668 -2.50903,0.761668 -1.1425,0 -1.72495,-0.649658 -0.58245,-0.67206 -0.58245,-1.926572 0,-0.627256 0.31363,-2.2402 0.29122,-1.411326 0.29122,-1.948974 0,-0.358432 -0.24642,-0.358432 -0.29123,0 -0.82887,0.761668 -0.51525,0.739266 -1.0753,1.971376 -0.53765,1.23211 -0.87368,2.598632 -0.24642,1.052894 -0.58245,1.433728 -0.31363,0.358432 -1.00809,0.358432 z"
           style="font-family:Pacifico;-inkscape-font-specification:Pacifico"
           id="path910" />
        <path
           d="m 250.04697,81.756063 q 0.29122,0 0.44804,0.268824 0.17921,0.268824 0.17921,0.739266 0,0.851276 -0.42564,1.388924 -0.76166,0.940884 -1.76975,1.590542 -0.98569,0.627256 -2.06099,0.918482 0.87368,0.739266 0.87368,2.01618 0,1.052894 -0.51525,1.881768 -0.49284,0.851276 -1.45613,1.321718 -0.94088,0.470442 -2.21779,0.470442 -0.85128,0 -1.38893,-0.11201 -0.87368,-0.156814 -0.87368,-0.985688 0,-1.00809 0.89608,-1.00809 0.17922,0 0.29123,0.0224 0.60485,0.08961 1.18731,0.08961 0.89608,0 1.38892,-0.380834 0.51525,-0.358432 0.51525,-1.1201 0,-0.56005 -0.49285,-0.89608 -0.47044,-0.313628 -1.29931,-0.313628 -0.58246,0 -0.89608,-0.156814 -0.31363,-0.156814 -0.31363,-0.537648 0,-0.134412 0.0224,-0.201618 0.0672,-0.33603 0.20162,-0.492844 -1.00809,-0.537648 -1.54574,-1.56814 -0.53765,-1.030492 -0.53765,-2.35221 0,-1.814562 0.71687,-3.181084 0.71686,-1.366522 1.85936,-2.105788 1.1425,-0.739266 2.39702,-0.739266 1.23211,0 1.90417,0.739266 0.69446,0.716864 0.69446,1.859366 0,0.940884 -0.42564,1.590542 -0.40324,0.649658 -1.0753,0.649658 -0.42563,0 -0.69446,-0.201618 -0.24642,-0.201618 -0.24642,-0.56005 0,-0.156814 0.0448,-0.358432 0.0448,-0.201618 0.0672,-0.291226 0.11201,-0.33603 0.11201,-0.627256 0,-0.291226 -0.15681,-0.44804 -0.13442,-0.156814 -0.40324,-0.156814 -0.51525,0 -0.96329,0.470442 -0.44804,0.44804 -0.71686,1.23211 -0.26882,0.78407 -0.26882,1.724954 0,2.598632 2.2626,2.598632 0.91848,0 1.97137,-0.604854 1.0753,-0.627256 2.10579,-1.859366 0.26883,-0.313628 0.60486,-0.313628 z"
           style="font-family:Pacifico;-inkscape-font-specification:Pacifico"
           id="path912" />
        <path
           d="m 251.39108,86.863719 q -1.38892,0 -2.2178,-1.00809 -0.82887,-1.00809 -0.82887,-2.643436 0,-1.79216 0.82887,-3.382702 0.82888,-1.612944 2.1954,-2.57623 1.38892,-0.985688 2.93466,-0.985688 0.49285,0 0.64966,0.201618 0.17922,0.179216 0.29123,0.67206 0.47044,-0.08961 0.98569,-0.08961 1.09769,0 1.09769,0.78407 0,0.470442 -0.33603,2.2402 -0.51524,2.57623 -0.51524,3.58432 0,0.33603 0.15681,0.537648 0.17922,0.201618 0.44804,0.201618 0.42564,0 1.03049,-0.537648 0.60486,-0.56005 1.63535,-1.79216 0.26882,-0.313628 0.60485,-0.313628 0.29123,0 0.44804,0.268824 0.17922,0.268824 0.17922,0.739266 0,0.89608 -0.42564,1.388924 -0.91848,1.142502 -1.94897,1.926572 -1.03049,0.78407 -1.99378,0.78407 -0.73927,0 -1.36652,-0.492844 -0.60486,-0.515246 -0.91848,-1.388924 -1.16491,1.881768 -2.93467,1.881768 z m 0.80647,-2.262602 q 0.49285,0 0.94089,-0.582452 0.44804,-0.582452 0.64966,-1.545738 l 0.82887,-4.121968 q -0.94088,0.0224 -1.74736,0.716864 -0.78407,0.67206 -1.25451,1.79216 -0.47044,1.1201 -0.47044,2.374612 0,0.694462 0.26882,1.030492 0.29123,0.33603 0.78407,0.33603 z"
           style="font-family:Pacifico;-inkscape-font-specification:Pacifico"
           id="path914" />
        <path
           d="m 262.09922,74.833845 q -0.94088,0 -1.41132,-0.425638 -0.47045,-0.44804 -0.47045,-1.23211 0,-0.78407 0.60486,-1.299316 0.62725,-0.537648 1.54574,-0.537648 0.82887,0 1.34412,0.403236 0.51524,0.403236 0.51524,1.142502 0,0.89608 -0.58245,1.433728 -0.58245,0.515246 -1.54574,0.515246 z m -0.17921,12.029874 q -1.45613,0 -2.12819,-1.030492 -0.64966,-1.030492 -0.64966,-2.733044 0,-1.00809 0.24642,-2.57623 0.26882,-1.590542 0.67206,-2.957064 0.20162,-0.716864 0.53765,-0.985688 0.33603,-0.268824 1.07529,-0.268824 1.14251,0 1.14251,0.761668 0,0.56005 -0.42564,2.598632 -0.53765,2.46422 -0.53765,3.337898 0,0.67206 0.17922,1.030492 0.17921,0.358432 0.60485,0.358432 0.40324,0 1.00809,-0.56005 0.60485,-0.56005 1.61294,-1.769758 0.26883,-0.313628 0.60486,-0.313628 0.29122,0 0.44804,0.268824 0.17921,0.268824 0.17921,0.739266 0,0.89608 -0.42563,1.388924 -2.2178,2.710642 -4.14437,2.710642 z"
           style="font-family:Pacifico;-inkscape-font-specification:Pacifico"
           id="path916" />
        <path
           d="m 268.84223,87.356563 q -1.16491,0 -1.79216,-0.537648 -0.60486,-0.537648 -0.60486,-1.209708 0,-0.582452 0.42564,-1.00809 0.42564,-0.425638 1.25451,-0.425638 0.29123,0 0.67206,0.06721 0.40324,0.0448 0.60486,0.06721 -0.0224,-0.582452 -0.26883,-1.097698 -0.22402,-0.515246 -0.58245,-0.985688 -0.35843,-0.492844 -0.67206,-0.851276 -0.69446,1.321718 -1.38892,2.195396 -0.67206,0.873678 -1.47854,1.657748 -0.40323,0.403236 -0.85127,0.403236 -0.35843,0 -0.58245,-0.246422 -0.22402,-0.268824 -0.22402,-0.649658 0,-0.44804 0.31362,-0.828874 l 0.29123,-0.358432 q 1.23211,-1.523336 1.85937,-2.509024 0.40323,-0.649658 0.80647,-1.545738 0.42564,-0.89608 1.0977,-2.441818 0.42563,-0.985688 1.76975,-0.985688 0.62726,0 0.87368,0.11201 0.24642,0.11201 0.24642,0.358432 0,0.134412 -0.0896,0.425638 -0.0896,0.291226 -0.24643,0.582452 -0.40323,0.806472 -0.40323,1.366522 0,0.33603 0.22402,0.739266 0.24642,0.403236 0.73926,1.00809 0.71687,0.940884 1.0753,1.612944 0.38083,0.649658 0.38083,1.433728 0,0.940884 -0.44804,1.79216 -0.42563,0.828874 -1.2097,1.34412 -0.78407,0.515246 -1.79216,0.515246 z"
           style="font-family:Pacifico;-inkscape-font-specification:Pacifico"
           id="path918" />
        <path
           d="m 289.42964,67.889225 q 0.58245,0 0.98569,0.291226 0.40323,0.268824 0.40323,0.67206 0,0.716864 -0.44804,1.164904 -0.44804,0.425638 -1.27691,0.425638 -1.29932,0 -1.97138,0.0224 -0.0448,0.268824 -0.40323,2.419416 -0.40324,2.397014 -0.49285,2.934662 l -0.47044,2.934662 q -0.49284,3.293094 -0.78407,5.510892 0.47044,-0.0224 1.27692,-0.0224 1.1873,0 1.61294,0.313628 0.42564,0.313628 0.42564,0.940884 0,0.582452 -0.47044,0.985688 -0.44804,0.403236 -1.27692,0.403236 -0.56005,0 -1.76976,-0.0448 -1.1201,-0.0448 -1.47853,-0.0448 -1.41132,0 -3.09147,0.246422 -0.73927,0.11201 -1.0529,0.11201 -0.49284,0 -0.82887,-0.268824 -0.33603,-0.268824 -0.33603,-0.78407 0,-0.806472 0.71686,-1.254512 0.71687,-0.44804 2.01618,-0.470442 l 1.0529,-0.0224 0.0672,-0.492844 q 0.53765,-3.58432 0.78407,-5.062852 l 0.49285,-2.934662 q 0.44804,-2.598632 0.80647,-5.354078 l -1.88177,0.0224 q -0.80647,0 -1.1201,-0.246422 -0.29123,-0.268824 -0.29123,-0.739266 0,-1.523336 2.1954,-1.635346 1.03049,-0.0448 2.50902,-0.0448 z"
           style="font-family:Pacifico;-inkscape-font-specification:Pacifico"
           id="path920" />
        <path
           d="m 292.11789,86.863719 q -0.85127,0 -1.2097,-0.89608 -0.33603,-0.89608 -0.33603,-2.867456 0,-2.91226 0.82887,-5.533294 0.20162,-0.649658 0.64966,-0.940884 0.47044,-0.313628 1.29931,-0.313628 0.44804,0 0.62726,0.11201 0.17922,0.11201 0.17922,0.425638 0,0.358432 -0.33603,1.612944 -0.22402,0.89608 -0.35844,1.56814 -0.13441,0.67206 -0.22402,1.657748 0.73927,-1.926572 1.65775,-3.13628 0.91849,-1.209708 1.79216,-1.724954 0.89608,-0.515246 1.63535,-0.515246 1.45613,0 1.45613,1.45613 0,0.873678 -0.49284,3.158682 -0.42564,1.948974 -0.42564,2.57623 0,0.89608 0.64966,0.89608 0.44804,0 1.05289,-0.537648 0.62726,-0.56005 1.65775,-1.79216 0.26882,-0.313628 0.60485,-0.313628 0.29123,0 0.44804,0.268824 0.17922,0.268824 0.17922,0.739266 0,0.89608 -0.42564,1.388924 -0.96329,1.187306 -2.08339,1.948974 -1.09769,0.761668 -2.50902,0.761668 -1.1425,0 -1.72495,-0.649658 -0.58246,-0.67206 -0.58246,-1.926572 0,-0.627256 0.31363,-2.2402 0.29123,-1.411326 0.29123,-1.948974 0,-0.358432 -0.24642,-0.358432 -0.29123,0 -0.82888,0.761668 -0.51525,0.739266 -1.0753,1.971376 -0.53764,1.23211 -0.87367,2.598632 -0.24643,1.052894 -0.58246,1.433728 -0.31362,0.358432 -1.00809,0.358432 z"
           style="font-family:Pacifico;-inkscape-font-specification:Pacifico"
           id="path922" />
        <path
           d="m 311.63005,81.756063 q 0.29123,0 0.44804,0.268824 0.17922,0.268824 0.17922,0.739266 0,0.89608 -0.42564,1.388924 -0.96329,1.187306 -2.10579,1.948974 -1.1425,0.761668 -2.62103,0.761668 -4.57001,0 -4.57001,-6.429374 0,-0.985688 0.0672,-1.993778 h -0.87367 q -0.67206,0 -0.91849,-0.246422 -0.22402,-0.246422 -0.22402,-0.78407 0,-1.254512 1.00809,-1.254512 h 1.27692 q 0.38083,-2.46422 1.1649,-4.502802 0.78407,-2.038582 1.88177,-3.24829 1.1201,-1.209708 2.39701,-1.209708 0.94089,0 1.47854,0.828874 0.53764,0.828874 0.53764,2.083386 0,3.47231 -2.91226,6.04854 h 2.50903 q 0.35843,0 0.51524,0.156814 0.15682,0.156814 0.15682,0.582452 0,1.545738 -2.53143,1.545738 h -2.73304 q -0.0448,1.1201 -0.0448,1.747356 0,2.329808 0.53765,3.270692 0.56005,0.940884 1.74736,0.940884 0.96328,0 1.70255,-0.582452 0.73927,-0.582452 1.74736,-1.747356 0.26882,-0.313628 0.60485,-0.313628 z M 307.7097,69.345355 q -0.33603,0 -0.76167,0.851276 -0.40323,0.828874 -0.78407,2.329808 -0.35843,1.478532 -0.60485,3.293094 1.32172,-1.142502 1.97137,-2.553828 0.67206,-1.433728 0.67206,-2.598632 0,-1.321718 -0.49284,-1.321718 z"
           style="font-family:Pacifico;-inkscape-font-specification:Pacifico"
           id="path924" />
        <path
           d="m 320.43402,81.756063 q 0.29123,0 0.44804,0.268824 0.17922,0.268824 0.17922,0.739266 0,0.89608 -0.42564,1.388924 -0.82888,1.00809 -2.35221,1.859366 -1.50094,0.851276 -3.22589,0.851276 -2.35221,0 -3.65153,-1.276914 -1.29931,-1.276914 -1.29931,-3.494712 0,-1.545738 0.64966,-2.867456 0.64965,-1.34412 1.79216,-2.12819 1.1649,-0.78407 2.62103,-0.78407 1.29932,0 2.08339,0.78407 0.78407,0.761668 0.78407,2.083386 0,1.545738 -1.1201,2.665838 -1.0977,1.097698 -3.74114,1.747356 0.56005,1.030492 2.12819,1.030492 1.00809,0 2.28501,-0.694462 1.29931,-0.716864 2.2402,-1.859366 0.26882,-0.313628 0.60485,-0.313628 z m -5.6453,-3.24829 q -0.82888,0 -1.41133,0.963286 -0.56005,0.963286 -0.56005,2.329808 v 0.0448 q 1.32172,-0.313628 2.08339,-0.940884 0.76166,-0.627256 0.76166,-1.45613 0,-0.425638 -0.24642,-0.67206 -0.22402,-0.268824 -0.62725,-0.268824 z"
           style="font-family:Pacifico;-inkscape-font-specification:Pacifico"
           id="path926" />
        <path
           d="m 320.83726,86.863719 q -0.85128,0 -1.20971,-0.89608 -0.33603,-0.89608 -0.33603,-2.867456 0,-2.91226 0.82887,-5.533294 0.20162,-0.649658 0.64966,-0.940884 0.47044,-0.313628 1.29932,-0.313628 0.44804,0 0.62725,0.11201 0.17922,0.11201 0.17922,0.425638 0,0.358432 -0.33603,1.612944 -0.22402,0.89608 -0.35843,1.56814 -0.13442,0.67206 -0.22402,1.657748 0.73926,-1.926572 1.65774,-3.13628 0.91849,-1.209708 1.79216,-1.724954 0.89608,-0.515246 1.63535,-0.515246 1.45613,0 1.45613,1.45613 0,0.291226 -0.20162,1.411326 -0.17921,0.89608 -0.17921,1.1201 0,0.78407 0.56005,0.78407 0.62725,0 1.61294,-0.985688 0.29123,-0.291226 0.60485,-0.291226 0.29123,0 0.44804,0.268824 0.17922,0.246422 0.17922,0.67206 0,0.828874 -0.44804,1.299316 -0.62726,0.649658 -1.47853,1.1201 -0.82888,0.44804 -1.76976,0.44804 -1.18731,0 -1.81456,-0.604854 -0.60486,-0.604854 -0.60486,-1.635346 0,-0.33603 0.0672,-0.67206 0.0448,-0.44804 0.0448,-0.604854 0,-0.358432 -0.24642,-0.358432 -0.33603,0 -0.89608,0.761668 -0.53765,0.739266 -1.07529,1.971376 -0.53765,1.23211 -0.87368,2.598632 -0.24642,1.052894 -0.58245,1.433728 -0.31363,0.358432 -1.00809,0.358432 z"
           style="font-family:Pacifico;-inkscape-font-specification:Pacifico"
           id="path928" />
        <path
           d="m 331.03016,86.863719 q -0.85128,0 -1.20971,-0.89608 -0.33603,-0.89608 -0.33603,-2.867456 0,-2.91226 0.82887,-5.533294 0.20162,-0.649658 0.64966,-0.940884 0.47044,-0.313628 1.29932,-0.313628 0.44804,0 0.62725,0.11201 0.17922,0.11201 0.17922,0.425638 0,0.358432 -0.33603,1.612944 -0.22402,0.89608 -0.35843,1.56814 -0.13442,0.67206 -0.22402,1.657748 0.73926,-1.926572 1.65774,-3.13628 0.91849,-1.209708 1.79216,-1.724954 0.89609,-0.515246 1.63535,-0.515246 1.45613,0 1.45613,1.45613 0,0.873678 -0.49284,3.158682 -0.42564,1.948974 -0.42564,2.57623 0,0.89608 0.64966,0.89608 0.44804,0 1.05289,-0.537648 0.62726,-0.56005 1.65775,-1.79216 0.26882,-0.313628 0.60485,-0.313628 0.29123,0 0.44804,0.268824 0.17922,0.268824 0.17922,0.739266 0,0.89608 -0.42564,1.388924 -0.96328,1.187306 -2.08338,1.948974 -1.0977,0.761668 -2.50903,0.761668 -1.1425,0 -1.72495,-0.649658 -0.58246,-0.67206 -0.58246,-1.926572 0,-0.627256 0.31363,-2.2402 0.29123,-1.411326 0.29123,-1.948974 0,-0.358432 -0.24642,-0.358432 -0.29123,0 -0.82888,0.761668 -0.51524,0.739266 -1.07529,1.971376 -0.53765,1.23211 -0.87368,2.598632 -0.24642,1.052894 -0.58245,1.433728 -0.31363,0.358432 -1.00809,0.358432 z"
           style="font-family:Pacifico;-inkscape-font-specification:Pacifico"
           id="path930" />
        <path
           d="m 343.30647,86.863719 q -1.38893,0 -2.2178,-1.00809 -0.82888,-1.00809 -0.82888,-2.643436 0,-1.79216 0.82888,-3.382702 0.82887,-1.612944 2.19539,-2.57623 1.38893,-0.985688 2.93467,-0.985688 0.49284,0 0.64965,0.201618 0.17922,0.179216 0.29123,0.67206 0.47044,-0.08961 0.98569,-0.08961 1.0977,0 1.0977,0.78407 0,0.470442 -0.33603,2.2402 -0.51525,2.57623 -0.51525,3.58432 0,0.33603 0.15681,0.537648 0.17922,0.201618 0.44804,0.201618 0.42564,0 1.0305,-0.537648 0.60485,-0.56005 1.63534,-1.79216 0.26883,-0.313628 0.60486,-0.313628 0.29122,0 0.44804,0.268824 0.17921,0.268824 0.17921,0.739266 0,0.89608 -0.42564,1.388924 -0.91848,1.142502 -1.94897,1.926572 -1.03049,0.78407 -1.99378,0.78407 -0.73926,0 -1.36652,-0.492844 -0.60485,-0.515246 -0.91848,-1.388924 -1.16491,1.881768 -2.93466,1.881768 z m 0.80647,-2.262602 q 0.49284,0 0.94088,-0.582452 0.44804,-0.582452 0.64966,-1.545738 l 0.82887,-4.121968 q -0.94088,0.0224 -1.74735,0.716864 -0.78407,0.67206 -1.25451,1.79216 -0.47045,1.1201 -0.47045,2.374612 0,0.694462 0.26883,1.030492 0.29122,0.33603 0.78407,0.33603 z"
           style="font-family:Pacifico;-inkscape-font-specification:Pacifico"
           id="path932" />
        <path
           d="m 361.07123,81.756063 q 0.29122,0 0.44804,0.268824 0.17921,0.268824 0.17921,0.739266 0,0.89608 -0.42564,1.388924 -0.96328,1.187306 -2.10578,1.948974 -1.14251,0.761668 -2.62104,0.761668 -4.57001,0 -4.57001,-6.429374 0,-0.985688 0.0672,-1.993778 h -0.87368 q -0.67206,0 -0.91848,-0.246422 -0.22402,-0.246422 -0.22402,-0.78407 0,-1.254512 1.00809,-1.254512 h 1.27691 q 0.38084,-2.46422 1.16491,-4.502802 0.78407,-2.038582 1.88177,-3.24829 1.1201,-1.209708 2.39701,-1.209708 0.94088,0 1.47853,0.828874 0.53765,0.828874 0.53765,2.083386 0,3.47231 -2.91226,6.04854 h 2.50902 q 0.35844,0 0.51525,0.156814 0.15681,0.156814 0.15681,0.582452 0,1.545738 -2.53142,1.545738 h -2.73305 q -0.0448,1.1201 -0.0448,1.747356 0,2.329808 0.53765,3.270692 0.56005,0.940884 1.74735,0.940884 0.96329,0 1.70256,-0.582452 0.73926,-0.582452 1.74735,-1.747356 0.26883,-0.313628 0.60486,-0.313628 z m -3.92035,-12.410708 q -0.33603,0 -0.76167,0.851276 -0.40324,0.828874 -0.78407,2.329808 -0.35843,1.478532 -0.60486,3.293094 1.32172,-1.142502 1.97138,-2.553828 0.67206,-1.433728 0.67206,-2.598632 0,-1.321718 -0.49284,-1.321718 z"
           style="font-family:Pacifico;-inkscape-font-specification:Pacifico"
           id="path934" />
        <path
           d="m 362.81858,74.833845 q -0.94088,0 -1.41132,-0.425638 -0.47045,-0.44804 -0.47045,-1.23211 0,-0.78407 0.60486,-1.299316 0.62725,-0.537648 1.54574,-0.537648 0.82887,0 1.34412,0.403236 0.51524,0.403236 0.51524,1.142502 0,0.89608 -0.58245,1.433728 -0.58245,0.515246 -1.54574,0.515246 z m -0.17921,12.029874 q -1.45613,0 -2.12819,-1.030492 -0.64966,-1.030492 -0.64966,-2.733044 0,-1.00809 0.24642,-2.57623 0.26882,-1.590542 0.67206,-2.957064 0.20162,-0.716864 0.53765,-0.985688 0.33603,-0.268824 1.07529,-0.268824 1.14251,0 1.14251,0.761668 0,0.56005 -0.42564,2.598632 -0.53765,2.46422 -0.53765,3.337898 0,0.67206 0.17922,1.030492 0.17921,0.358432 0.60485,0.358432 0.40324,0 1.00809,-0.56005 0.60485,-0.56005 1.61294,-1.769758 0.26883,-0.313628 0.60486,-0.313628 0.29122,0 0.44804,0.268824 0.17921,0.268824 0.17921,0.739266 0,0.89608 -0.42563,1.388924 -2.2178,2.710642 -4.14437,2.710642 z"
           style="font-family:Pacifico;-inkscape-font-specification:Pacifico"
           id="path936" />
        <path
           d="m 376.81984,79.874295 q 0.29122,0 0.44804,0.291226 0.15681,0.291226 0.15681,0.739266 0,1.075296 -0.64966,1.276914 -1.34412,0.470442 -2.95706,0.537648 -0.42564,1.881768 -1.68015,3.02427 -1.25451,1.1201 -2.84506,1.1201 -1.34412,0 -2.3074,-0.649658 -0.94089,-0.649658 -1.43373,-1.724954 -0.49284,-1.075296 -0.49284,-2.329808 0,-1.702552 0.64965,-3.02427 0.64966,-1.34412 1.79216,-2.083386 1.14251,-0.761668 2.53143,-0.761668 1.70255,0 2.73304,1.187306 1.0529,1.164904 1.23211,2.889858 1.0529,-0.06721 2.50903,-0.44804 0.17921,-0.0448 0.31363,-0.0448 z m -7.34786,4.614812 q 0.71686,0 1.23211,-0.582452 0.53765,-0.582452 0.71686,-1.68015 -0.69446,-0.470442 -1.07529,-1.23211 -0.35843,-0.761668 -0.35843,-1.612944 0,-0.358432 0.0672,-0.716864 h -0.11201 q -0.89608,0 -1.50093,0.873678 -0.58245,0.851276 -0.58245,2.419416 0,1.23211 0.47044,1.881768 0.49284,0.649658 1.1425,0.649658 z"
           style="font-family:Pacifico;-inkscape-font-specification:Pacifico"
           id="path938" />
        <path
           d="m 377.08867,86.863719 q -0.85127,0 -1.2097,-0.89608 -0.33603,-0.89608 -0.33603,-2.867456 0,-2.91226 0.82887,-5.533294 0.20162,-0.649658 0.64966,-0.940884 0.47044,-0.313628 1.29931,-0.313628 0.44804,0 0.62726,0.11201 0.17922,0.11201 0.17922,0.425638 0,0.358432 -0.33603,1.612944 -0.22402,0.89608 -0.35844,1.56814 -0.13441,0.67206 -0.22402,1.657748 0.73927,-1.926572 1.65775,-3.13628 0.91848,-1.209708 1.79216,-1.724954 0.89608,-0.515246 1.63535,-0.515246 1.45613,0 1.45613,1.45613 0,0.873678 -0.49285,3.158682 -0.42563,1.948974 -0.42563,2.57623 0,0.89608 0.64965,0.89608 0.44804,0 1.0529,-0.537648 0.62725,-0.56005 1.65775,-1.79216 0.26882,-0.313628 0.60485,-0.313628 0.29123,0 0.44804,0.268824 0.17922,0.268824 0.17922,0.739266 0,0.89608 -0.42564,1.388924 -0.96329,1.187306 -2.08339,1.948974 -1.0977,0.761668 -2.50902,0.761668 -1.1425,0 -1.72496,-0.649658 -0.58245,-0.67206 -0.58245,-1.926572 0,-0.627256 0.31363,-2.2402 0.29123,-1.411326 0.29123,-1.948974 0,-0.358432 -0.24643,-0.358432 -0.29122,0 -0.82887,0.761668 -0.51525,0.739266 -1.0753,1.971376 -0.53764,1.23211 -0.87367,2.598632 -0.24643,1.052894 -0.58246,1.433728 -0.31362,0.358432 -1.00809,0.358432 z"
           style="font-family:Pacifico;-inkscape-font-specification:Pacifico"
           id="path940" />
        <path
           d="m 389.36497,86.863719 q -1.38893,0 -2.2178,-1.00809 -0.82887,-1.00809 -0.82887,-2.643436 0,-1.79216 0.82887,-3.382702 0.82887,-1.612944 2.1954,-2.57623 1.38892,-0.985688 2.93466,-0.985688 0.49284,0 0.64966,0.201618 0.17921,0.179216 0.29122,0.67206 0.47044,-0.08961 0.98569,-0.08961 1.0977,0 1.0977,0.78407 0,0.470442 -0.33603,2.2402 -0.51525,2.57623 -0.51525,3.58432 0,0.33603 0.15682,0.537648 0.17921,0.201618 0.44804,0.201618 0.42563,0 1.03049,-0.537648 0.60485,-0.56005 1.63534,-1.79216 0.26883,-0.313628 0.60486,-0.313628 0.29122,0 0.44804,0.268824 0.17921,0.268824 0.17921,0.739266 0,0.89608 -0.42563,1.388924 -0.91849,1.142502 -1.94898,1.926572 -1.03049,0.78407 -1.99378,0.78407 -0.73926,0 -1.36652,-0.492844 -0.60485,-0.515246 -0.91848,-1.388924 -1.1649,1.881768 -2.93466,1.881768 z m 0.80647,-2.262602 q 0.49284,0 0.94088,-0.582452 0.44804,-0.582452 0.64966,-1.545738 l 0.82888,-4.121968 q -0.94089,0.0224 -1.74736,0.716864 -0.78407,0.67206 -1.25451,1.79216 -0.47044,1.1201 -0.47044,2.374612 0,0.694462 0.26882,1.030492 0.29123,0.33603 0.78407,0.33603 z"
           style="font-family:Pacifico;-inkscape-font-specification:Pacifico"
           id="path942" />
        <path
           d="m 403.61263,83.593027 q 0.24642,-0.22402 0.49284,-0.22402 0.26883,0 0.42564,0.313628 0.17922,0.291226 0.17922,0.716864 0,0.940884 -0.67206,1.500934 -1.16491,0.963286 -2.64344,0.963286 -2.12819,0 -3.11388,-1.769758 -0.98568,-1.79216 -0.98568,-4.659616 0,-2.733044 0.69446,-6.227756 0.71686,-3.494712 2.08338,-6.003736 1.38893,-2.509024 3.2931,-2.509024 1.07529,0 1.68015,1.00809 0.62725,0.985688 0.62725,2.845054 0,2.665838 -1.47853,6.182952 -1.45613,3.517114 -3.98755,6.94462 0.15681,0.918482 0.56005,1.321718 0.40323,0.403236 1.09769,0.403236 0.38084,0 0.85128,-0.22402 0.49284,-0.22402 0.89608,-0.582452 z m -0.73927,-15.6814 q -0.51524,0 -1.1649,1.859366 -0.64966,1.859366 -1.1425,4.614812 -0.49285,2.755446 -0.53765,5.286872 1.59054,-2.621034 2.53143,-5.242068 0.94088,-2.643436 0.94088,-4.81643 0,-1.702552 -0.62726,-1.702552 z"
           style="font-family:Pacifico;-inkscape-font-specification:Pacifico"
           id="path944" />
        <path
           d="m 424.04324,81.756063 q 0.29122,0 0.44804,0.268824 0.17921,0.268824 0.17921,0.739266 0,0.89608 -0.42563,1.388924 -0.91849,1.1201 -2.01618,1.926572 -1.0977,0.78407 -2.173,0.78407 -1.70255,0 -2.59863,-1.993778 -0.94088,1.187306 -1.65775,1.590542 -0.69446,0.403236 -1.63534,0.403236 -1.36653,0 -2.26261,-1.00809 -0.87367,-1.030492 -0.87367,-2.665838 0,-1.79216 0.76166,-3.315496 0.76167,-1.545738 2.08339,-2.509024 1.34412,-0.985688 3.00187,-1.164904 0.42564,-4.345988 1.61294,-7.415062 1.20971,-3.091476 3.15868,-3.091476 0.96329,0 1.59055,0.873678 0.64965,0.873678 0.64965,2.643436 0,2.509024 -1.23211,5.869324 -1.23211,3.3603 -3.29309,6.899816 0.0896,1.299316 0.38083,1.859366 0.31363,0.56005 0.78407,0.56005 0.60486,0 1.23211,-0.537648 0.62726,-0.537648 1.68015,-1.79216 0.26883,-0.313628 0.60486,-0.313628 z M 421.3998,67.889225 q -0.42564,0 -0.85127,1.523336 -0.42564,1.500934 -0.73927,3.942752 -0.29123,2.441818 -0.42564,5.107656 2.50903,-5.466088 2.50903,-8.781584 0,-0.851276 -0.15682,-1.321718 -0.13441,-0.470442 -0.33603,-0.470442 z m -6.45177,16.711892 q 0.42563,0 0.85127,-0.33603 0.42564,-0.358432 1.0753,-1.299316 -0.22402,-1.209708 -0.22402,-2.710642 0,-0.537648 0.0448,-1.747356 -1.23211,0.380834 -2.06098,1.657748 -0.80647,1.254512 -0.80647,2.80025 0,1.635346 1.1201,1.635346 z"
           style="font-family:Pacifico;-inkscape-font-specification:Pacifico"
           id="path946" />
        <path
           d="m 430.87584,82.428123 q 0.29122,0 0.44804,0.268824 0.17921,0.268824 0.17921,0.739266 0,0.806472 -0.38083,1.388924 -0.62726,0.963286 -1.65775,1.500934 -1.00809,0.537648 -2.41942,0.537648 -2.15059,0 -3.33789,-1.276914 -1.18731,-1.299316 -1.18731,-3.494712 0,-1.545738 0.64966,-2.867456 0.64966,-1.34412 1.79216,-2.12819 1.1649,-0.78407 2.62103,-0.78407 1.29932,0 2.08339,0.78407 0.78407,0.761668 0.78407,2.083386 0,1.545738 -1.1201,2.665838 -1.0977,1.097698 -3.76354,1.747356 0.53765,1.030492 1.81456,1.030492 0.91849,0 1.50094,-0.425638 0.60485,-0.425638 1.38892,-1.433728 0.26883,-0.33603 0.60486,-0.33603 z m -3.67393,-3.92035 q -0.82888,0 -1.41133,0.963286 -0.56005,0.963286 -0.56005,2.329808 v 0.0448 q 1.32172,-0.313628 2.08339,-0.940884 0.76167,-0.627256 0.76167,-1.45613 0,-0.425638 -0.24643,-0.67206 -0.22402,-0.268824 -0.62725,-0.268824 z"
           style="font-family:Pacifico;-inkscape-font-specification:Pacifico"
           id="path948" />
        <path
           d="m 455.76441,68.158049 q 0.69447,0.134412 1.0305,0.470442 0.35843,0.33603 0.35843,0.78407 0,0.739266 -0.42564,1.075296 -0.40324,0.33603 -1.29932,0.268824 -2.01618,-0.156814 -3.15868,-0.201618 -1.1201,-0.06721 -2.95706,-0.08961 -0.82888,4.121968 -1.52334,8.28874 -0.24642,1.523336 -0.51524,3.539516 -0.26883,1.993778 -0.35844,3.225888 -0.0448,0.649658 -0.53764,1.00809 -0.49285,0.33603 -1.18731,0.33603 -0.73927,0 -1.1425,-0.358432 -0.40324,-0.358432 -0.40324,-0.940884 0,-0.537648 0.15682,-1.769758 0.17921,-1.254512 0.40323,-2.621034 0.24642,-1.366522 0.38084,-2.374612 0.24642,-1.702552 0.56005,-3.382702 0.31362,-1.68015 0.62725,-3.181084 0.0672,-0.33603 0.15682,-0.761668 0.0896,-0.44804 0.20161,-0.985688 -2.19539,0.06721 -3.4499,0.358432 -1.25452,0.291226 -1.79216,0.828874 -0.51525,0.515246 -0.51525,1.34412 0,0.761668 0.44804,1.45613 0.0896,0.156814 0.0896,0.33603 0,0.425638 -0.51525,0.806472 -0.49284,0.358432 -1.03049,0.358432 -0.38083,0 -0.62726,-0.22402 -0.44804,-0.380834 -0.73926,-1.075296 -0.29123,-0.716864 -0.29123,-1.612944 0,-1.90417 1.23211,-3.046672 1.25451,-1.164904 3.78594,-1.702552 2.55383,-0.537648 6.54138,-0.537648 2.46422,0 3.92035,0.08961 1.47854,0.08961 2.57623,0.291226 z"
           style="font-family:Pacifico;-inkscape-font-specification:Pacifico"
           id="path950" />
        <path
           d="m 463.02267,79.874295 q 0.29123,0 0.44804,0.291226 0.15681,0.291226 0.15681,0.739266 0,1.075296 -0.64965,1.276914 -1.34412,0.470442 -2.95707,0.537648 -0.42564,1.881768 -1.68015,3.02427 -1.25451,1.1201 -2.84505,1.1201 -1.34412,0 -2.30741,-0.649658 -0.94088,-0.649658 -1.43373,-1.724954 -0.49284,-1.075296 -0.49284,-2.329808 0,-1.702552 0.64966,-3.02427 0.64966,-1.34412 1.79216,-2.083386 1.1425,-0.761668 2.53142,-0.761668 1.70256,0 2.73305,1.187306 1.05289,1.164904 1.23211,2.889858 1.05289,-0.06721 2.50902,-0.44804 0.17922,-0.0448 0.31363,-0.0448 z m -7.34786,4.614812 q 0.71687,0 1.23211,-0.582452 0.53765,-0.582452 0.71687,-1.68015 -0.69446,-0.470442 -1.0753,-1.23211 -0.35843,-0.761668 -0.35843,-1.612944 0,-0.358432 0.0672,-0.716864 h -0.11201 q -0.89608,0 -1.50094,0.873678 -0.58245,0.851276 -0.58245,2.419416 0,1.23211 0.47044,1.881768 0.49285,0.649658 1.1425,0.649658 z"
           style="font-family:Pacifico;-inkscape-font-specification:Pacifico"
           id="path952" />
        <path
           d="m 474.64934,81.756063 q 0.29122,0 0.44804,0.268824 0.17921,0.268824 0.17921,0.739266 0,0.89608 -0.42563,1.388924 -1.00809,1.23211 -2.03859,1.971376 -1.03049,0.739266 -2.44181,0.739266 -1.72496,0 -2.77785,-0.985688 -1.0529,-0.985688 -1.0529,-2.621034 0,-0.873678 0.89608,-1.254512 0.98569,-0.425638 1.41133,-0.89608 0.42564,-0.492844 0.42564,-1.187306 0,-0.403236 -0.17922,-0.604854 -0.15681,-0.201618 -0.40323,-0.201618 -0.60486,0 -1.34412,0.873678 -0.71687,0.873678 -1.34412,2.262602 -0.62726,1.366522 -0.98569,2.822652 -0.24642,1.052894 -0.58245,1.433728 -0.31363,0.358432 -1.00809,0.358432 -0.69447,0 -1.0305,-0.492844 -0.31362,-0.515246 -0.42563,-1.56814 -0.11201,-1.052894 -0.11201,-3.091476 0,-3.449908 0.69446,-7.191042 0.71686,-3.741134 2.08338,-6.27256 1.38893,-2.553828 3.3155,-2.553828 1.03049,0 1.65775,0.89608 0.64966,0.873678 0.64966,2.285004 0,2.262602 -1.32172,4.70442 -1.32172,2.419416 -4.30119,5.667706 -0.0672,1.164904 -0.0672,2.397014 1.07529,-2.80025 2.46422,-4.054762 1.38892,-1.276914 2.59863,-1.276914 1.1201,0 1.79216,0.761668 0.69446,0.761668 0.69446,1.881768 0,1.23211 -0.62725,2.262602 -0.62726,1.030492 -2.1506,1.836964 0.0896,0.604854 0.53765,0.985688 0.47044,0.358432 1.1201,0.358432 0.69446,0 1.34412,-0.537648 0.64966,-0.537648 1.70255,-1.79216 0.26883,-0.313628 0.60486,-0.313628 z M 467.4807,67.911627 q -0.40324,0 -0.89608,1.164904 -0.49285,1.142502 -0.96329,3.113878 -0.44804,1.948974 -0.73926,4.25638 1.38892,-1.635346 2.285,-3.561918 0.91848,-1.926572 0.91848,-3.494712 0,-0.716864 -0.15681,-1.097698 -0.15682,-0.380834 -0.44804,-0.380834 z"
           style="font-family:Pacifico;-inkscape-font-specification:Pacifico"
           id="path954" />
        <path
           d="m 484.93182,81.800867 q 0.29123,0 0.44804,0.291226 0.17922,0.268824 0.17922,0.694462 0,0.515246 -0.15681,0.806472 -0.15682,0.291226 -0.49285,0.515246 l -4.30118,2.889858 q -0.85128,4.637214 -2.2402,7.28065 -1.36652,2.665838 -3.49471,2.665838 -1.14251,0 -1.85937,-0.716864 -0.71686,-0.694462 -0.71686,-1.836964 0,-1.052894 0.47044,-2.150592 0.49284,-1.097698 1.79216,-2.531426 1.32172,-1.411326 3.71873,-3.24829 l 0.0672,-0.515246 q 0.15681,-0.828874 0.35843,-2.374612 -0.44804,1.612944 -1.25451,2.46422 -0.80648,0.828874 -1.70256,0.828874 -1.00809,0 -1.65774,-0.918482 -0.62726,-0.940884 -0.62726,-2.329808 0,-1.68015 0.22402,-3.069074 0.22402,-1.411326 0.73927,-2.979466 0.22402,-0.67206 0.62725,-0.963286 0.40324,-0.291226 1.27692,-0.291226 0.49284,0 0.67206,0.156814 0.20161,0.156814 0.20161,0.470442 0,0.179216 -0.24642,1.209708 -0.22402,0.828874 -0.35843,1.500934 -0.17922,0.918482 -0.31363,1.769758 -0.13441,0.828874 -0.13441,1.366522 0,0.851276 0.47044,0.851276 0.33603,0 0.82888,-0.67206 0.51524,-0.67206 1.07529,-2.038582 0.58245,-1.366522 1.1201,-3.3603 0.17922,-0.67206 0.53765,-0.963286 0.38083,-0.291226 1.1201,-0.291226 0.51525,0 0.71686,0.134412 0.20162,0.134412 0.20162,0.44804 0,0.56005 -0.58245,3.853144 l -0.58245,3.606722 q 1.72495,-1.299316 3.3603,-2.374612 0.29122,-0.179216 0.51524,-0.179216 z m -9.81207,12.970758 q 0.56005,0 1.25451,-1.299316 0.69446,-1.299316 1.38892,-4.323586 -1.72495,1.45613 -2.50902,2.643436 -0.76167,1.209708 -0.76167,2.105788 0,0.380834 0.13441,0.627256 0.15682,0.246422 0.49285,0.246422 z"
           style="font-family:Pacifico;-inkscape-font-specification:Pacifico"
           id="path956" />
        <path
           d="m 487.9785,86.863719 q -1.32172,0 -2.2626,-0.649658 -0.91849,-0.67206 -1.38893,-1.747356 -0.47044,-1.075296 -0.47044,-2.307406 0,-1.702552 0.62726,-3.02427 0.64965,-1.34412 1.74735,-2.083386 1.0977,-0.761668 2.46422,-0.761668 1.32172,0 2.2626,0.67206 0.94089,0.649658 1.41133,1.724954 0.47044,1.075296 0.47044,2.307406 0,1.702552 -0.64966,3.046672 -0.64965,1.321718 -1.76975,2.083386 -1.0977,0.739266 -2.44182,0.739266 z m 0.24642,-2.419416 q 0.76167,0 1.27691,-0.828874 0.53765,-0.828874 0.53765,-2.419416 0,-1.23211 -0.44804,-1.859366 -0.44804,-0.627256 -1.07529,-0.627256 -0.80648,0 -1.34412,0.828874 -0.51525,0.806472 -0.51525,2.419416 0,1.276914 0.44804,1.881768 0.44804,0.604854 1.1201,0.604854 z"
           style="font-family:Pacifico;-inkscape-font-specification:Pacifico"
           id="path958" />
      </g>
    </g>
  </g>
</svg>
