<?xml version="1.0" encoding="UTF-8" standalone="no"?>
<svg
   xmlns:dc="http://purl.org/dc/elements/1.1/"
   xmlns:cc="http://creativecommons.org/ns#"
   xmlns:rdf="http://www.w3.org/1999/02/22-rdf-syntax-ns#"
   xmlns:svg="http://www.w3.org/2000/svg"
   xmlns="http://www.w3.org/2000/svg"
   xmlns:sodipodi="http://sodipodi.sourceforge.net/DTD/sodipodi-0.dtd"
   xmlns:inkscape="http://www.inkscape.org/namespaces/inkscape"
   width="20.000244mm"
   height="18.015436mm"
   viewBox="0 0 20.000244 18.015436"
   version="1.1"
   id="svg8"
   inkscape:version="1.0 (4035a4fb49, 2020-05-01)"
   sodipodi:docname="quote-right.svg">
  <defs
     id="defs2" />
  <sodipodi:namedview
     id="base"
     pagecolor="#ffffff"
     bordercolor="#666666"
     borderopacity="1.0"
     inkscape:pageopacity="0.0"
     inkscape:pageshadow="2"
     inkscape:zoom="1.4142136"
     inkscape:cx="259.96807"
     inkscape:cy="226.60694"
     inkscape:document-units="mm"
     inkscape:current-layer="layer1"
     showgrid="false"
     inkscape:window-width="1920"
     inkscape:window-height="1017"
     inkscape:window-x="3832"
     inkscape:window-y="-8"
     inkscape:window-maximized="1"
     inkscape:document-rotation="0"
     fit-margin-top="0"
     fit-margin-left="0"
     fit-margin-right="0"
     fit-margin-bottom="0" />
  <metadata
     id="metadata5">
    <rdf:RDF>
      <cc:Work
         rdf:about="">
        <dc:format>image/svg+xml</dc:format>
        <dc:type
           rdf:resource="http://purl.org/dc/dcmitype/StillImage" />
        <dc:title></dc:title>
      </cc:Work>
    </rdf:RDF>
  </metadata>
  <g
     inkscape:label="Layer 1"
     inkscape:groupmode="layer"
     id="layer1"
     transform="translate(-833.15137,-57.214785)">
    <g
       style="font-style:normal;font-weight:normal;line-height:0%;font-family:sans-serif;letter-spacing:0px;word-spacing:0px;fill:#5fb57d;fill-opacity:1;stroke:none;stroke-width:0.184783"
       id="g1178"
       aria-label=","
       transform="matrix(2.6091709,0,0,2.6143768,-576.84946,-14.200544)" />
    <g
       transform="translate(38.166087,0.18708866)"
       id="g855">
      <g
         style="font-style:normal;font-weight:normal;line-height:0%;font-family:sans-serif;letter-spacing:0px;word-spacing:0px;fill:#96cfa9;fill-opacity:1;stroke:none;stroke-width:0.184783"
         id="g1238"
         aria-label=","
         transform="matrix(2.6091709,0,0,2.6143768,-602.5217,-79.376875)">
        <path
           id="path1236"
           style="font-style:normal;font-variant:normal;font-weight:bold;font-stretch:normal;font-size:33.2609px;line-height:1.25;font-family:Dosis;-inkscape-font-specification:'Dosis Bold';fill:#96cfa9;fill-opacity:1;stroke-width:1.82404"
           d="m 3102.4844,461.87305 c -6.1227,0 -11.3708,2.1902 -15.7442,6.57226 -4.1547,4.38206 -6.2324,9.64051 -6.2324,15.77539 0,4.38206 1.0946,8.32639 3.2813,11.83203 2.1866,3.50566 5.1381,6.24487 8.8554,8.2168 l -0.8574,1.98047 -3.6738,7.9375 c -0.8747,1.53373 -1.3106,3.06785 -1.3106,4.60156 0,3.72476 1.5305,6.46396 4.5918,8.2168 3.28,1.97192 6.4503,2.95703 9.5117,2.95703 1.7493,0 3.3894,-0.43804 4.92,-1.31445 1.5307,-0.65729 2.8422,-2.08045 3.9355,-4.27149 3.0459,-7.01958 5.5846,-13.02044 7.6758,-18.12695 2.1038,-5.20307 3.7247,-9.35889 4.7266,-12.16992 1.3117,-3.28654 2.0779,-5.58577 2.2968,-6.90039 0.219,-1.31462 0.3282,-2.4107 0.3282,-3.28711 0,-6.13489 -2.1872,-11.28431 -6.5606,-15.44727 -4.3733,-4.38206 -9.6214,-6.57226 -15.7441,-6.57226 z"
           transform="matrix(0.10140514,0,0,0.10120321,226.40912,5.4317587)" />
      </g>
      <g
         transform="matrix(2.6091709,0,0,2.6143768,-610.80585,-79.376875)"
         aria-label=","
         id="g1234"
         style="font-style:normal;font-weight:normal;line-height:0%;font-family:sans-serif;letter-spacing:0px;word-spacing:0px;fill:#5fb57d;fill-opacity:1;stroke:none;stroke-width:0.184783">
        <path
           transform="matrix(0.10140514,0,0,0.10120321,226.40912,5.4317587)"
           d="m 3102.4844,461.87305 c -6.1227,0 -11.3708,2.1902 -15.7442,6.57226 -4.1547,4.38206 -6.2324,9.64051 -6.2324,15.77539 0,4.38206 1.0946,8.32639 3.2813,11.83203 2.1866,3.50566 5.1381,6.24487 8.8554,8.2168 l -0.8574,1.98047 -3.6738,7.9375 c -0.8747,1.53373 -1.3106,3.06785 -1.3106,4.60156 0,3.72476 1.5305,6.46396 4.5918,8.2168 3.28,1.97192 6.4503,2.95703 9.5117,2.95703 1.7493,0 3.3894,-0.43804 4.92,-1.31445 1.5307,-0.65729 2.8422,-2.08045 3.9355,-4.27149 3.0459,-7.01958 5.5846,-13.02044 7.6758,-18.12695 2.1038,-5.20307 3.7247,-9.35889 4.7266,-12.16992 1.3117,-3.28654 2.0779,-5.58577 2.2968,-6.90039 0.219,-1.31462 0.3282,-2.4107 0.3282,-3.28711 0,-6.13489 -2.1872,-11.28431 -6.5606,-15.44727 -4.3733,-4.38206 -9.6214,-6.57226 -15.7441,-6.57226 z"
           style="font-style:normal;font-variant:normal;font-weight:bold;font-stretch:normal;font-size:33.2609px;line-height:1.25;font-family:Dosis;-inkscape-font-specification:'Dosis Bold';fill:#5fb57d;fill-opacity:1;stroke-width:1.82404"
           id="path1232" />
      </g>
    </g>
  </g>
</svg>
